<svg id="Layer_1" data-name="Layer 1" xmlns="http://www.w3.org/2000/svg" viewBox="0 0 128 45"><defs><style>.cls-1{fill:#ef6036;}.cls-2{fill:#ee3138;}.cls-3{fill:#d13236;}.cls-4{fill:#00aff0;}.cls-5{fill:#0071bc;}.cls-6{font-size:5.84px;letter-spacing:-0.05em;}.cls-10,.cls-6,.cls-9{fill:#000f1e;}.cls-10,.cls-6{font-family:Inter-SemiBold, Inter;font-weight:600;}.cls-7{letter-spacing:-0.09em;}.cls-8{letter-spacing:-0.05em;}.cls-9{fill-rule:evenodd;}.cls-10{font-size:5.05px;letter-spacing:-0.05em;}</style></defs><g id="Design_Work" data-name="Design Work"><path class="cls-1" d="M34.14,33.3a17.15,17.15,0,0,1-12.22,5.07A17.64,17.64,0,0,1,4.62,21.28a17.08,17.08,0,0,1,2.88-10A17.61,17.61,0,0,0,3.82,22.3c0,9.56,8.07,17,17.63,17A18.15,18.15,0,0,0,34.1,33.39.36.36,0,0,1,34.14,33.3Z"/><path class="cls-1" d="M25.38,5.46a19.39,19.39,0,0,1,5.43,2.3A17.24,17.24,0,0,0,25.38,5.46Z"/><path class="cls-2" d="M34,33.63a2.17,2.17,0,0,1,.07-.24,18.11,18.11,0,0,1-12.65,5.92c-9.56,0-17.63-7.45-17.63-17S10.48,5,21.45,5A17.25,17.25,0,0,1,33.18,9.6l.44.32.53.35C30.35,5.82,24.8,3,20.12,3,8.46,3,.26,11.17.26,21.77A19.19,19.19,0,0,0,19.45,41c5.2,0,10.78-2.86,14.57-7.31Z"/><path class="cls-3" d="M6.82,21.58A15.75,15.75,0,0,1,22.57,5.83,16,16,0,0,1,32.25,9l.49.32.21.14.1.08A17,17,0,0,0,21.11,4.78C10.37,4.78,4.53,12.2,4.53,21.35S12.3,38.49,23,38.49a14,14,0,0,0,9-3.14,18.87,18.87,0,0,1-10.38,2.56C14.09,37.91,6.82,30.64,6.82,21.58Z"/><path class="cls-4" d="M28.73,25.94c0,2.37-1.61,6-5.65,6a5.33,5.33,0,0,1-5.64-5.46,5.16,5.16,0,0,1,4.31-5.38V17.43a9.21,9.21,0,0,0-7.87,9.11,8.87,8.87,0,0,0,9.25,9.07,9.28,9.28,0,0,0,9.22-9.49c0-.06,0-.12,0-.18Z"/><rect class="cls-2" x="23.11" y="17.43" width="9.24" height="3.68"/><rect class="cls-2" x="26.92" y="19.17" width="7.16" height="3.68" transform="translate(9.49 51.52) rotate(-90)"/><circle class="cls-4" cx="30.81" cy="14.85" r="1.83"/><path class="cls-5" d="M30,32.48a9.21,9.21,0,0,1-15.66-6.25A8.72,8.72,0,0,1,15.82,21a9,9,0,0,0-2,5.76c0,5,4.29,8.84,9.36,8.84a9.75,9.75,0,0,0,6.71-3.08Z"/></g><rect class="cls-4" x="39.41" y="35.84" width="86.4" height="0.62"/><g id="Text_Data" data-name="Text Data"><text class="cls-6" transform="translate(38.02 42.34) scale(0.93 1)"><tspan xml:space="preserve">FOR   </tspan><tspan class="cls-7" x="14.33" y="0">Y</tspan><tspan class="cls-8" x="17.91" y="0" xml:space="preserve">OUR   CONFUSED   MOMENTS</tspan></text><path class="cls-9" d="M57,15.71H49c-1.46,0-2.2-.61-2.2-1.84a4.12,4.12,0,0,1,.14-1l2-8.43a3.31,3.31,0,0,1,3.47-2.87h8l-.2,2.15a4.47,4.47,0,0,0-2-.35H54.09a.92.92,0,0,0-.62.18,1.38,1.38,0,0,0-.35.68L51,13.05a1.75,1.75,0,0,0,0,.4.4.4,0,0,0,.14.35.93.93,0,0,0,.47.09h4.15a6.07,6.07,0,0,0,2.22-.33L57,15.71ZM72.39,8.08a6.4,6.4,0,0,0,.11-.66,2.62,2.62,0,0,0,0-.43c0-1.15-.67-1.72-2-1.72h-9l-.67,1.8a5.69,5.69,0,0,1,.93-.19,6.58,6.58,0,0,1,.94,0H68.4a.42.42,0,0,1,.32.1.58.58,0,0,1,.09.39L68.65,8A.61.61,0,0,1,68,8.5H62.71a3.25,3.25,0,0,0-1.54.32A2.56,2.56,0,0,0,60.1,9.91a8.64,8.64,0,0,0-.79,2.18,9.64,9.64,0,0,0-.23,1.08A5.73,5.73,0,0,0,59,14a1.64,1.64,0,0,0,.47,1.33,2.38,2.38,0,0,0,1.49.38h4.66a1.81,1.81,0,0,0,.95-.24,2.7,2.7,0,0,0,.75-.83h.05l-.09,1.07h3.47a10.17,10.17,0,0,1,.34-2.35l1.3-5.28Zm-4.25,2.06-.77,3.19a1.12,1.12,0,0,1-.31.58.86.86,0,0,1-.53.16H63.21a.6.6,0,0,1-.38-.09.32.32,0,0,1-.12-.28l0-.37.59-2.43a1.35,1.35,0,0,1,.29-.59.76.76,0,0,1,.54-.17ZM83.25,5.27l-.57,2.3a13.86,13.86,0,0,0-2.49-.19H78.77a.71.71,0,0,0-.78.54l-1.34,5.44a10.26,10.26,0,0,0-.35,2.35H72.12a12.48,12.48,0,0,0,.78-2.35l1.4-5.74a10.58,10.58,0,0,0,.35-2.35h3.6l-.14,1.17h0a1.69,1.69,0,0,1,.71-.91,2.56,2.56,0,0,1,1.32-.26Zm3.48,4.54h4.61l.52-2.15,0-.37A.34.34,0,0,0,91.79,7a.61.61,0,0,0-.38-.08H88.09a.87.87,0,0,0-.56.16,1.25,1.25,0,0,0-.29.58l-.51,2.15Zm8,1.65.82-3.37c.06-.28.09-.5.11-.67a3.88,3.88,0,0,0,0-.43c0-1.15-.67-1.72-2-1.72h-7A3.09,3.09,0,0,0,84.55,6a3.94,3.94,0,0,0-1.14,2.13l-1.19,4.84c0,.26-.09.47-.11.64a3.73,3.73,0,0,0,0,.43,1.58,1.58,0,0,0,.51,1.3,2.32,2.32,0,0,0,1.51.42h9.27l.74-1.78a7.1,7.1,0,0,1-1.24.14H86.34A.64.64,0,0,1,86,14a.35.35,0,0,1-.11-.28l0-.38.45-1.86Zm5.59-1.65h4.61l.52-2.15,0-.37a.37.37,0,0,0-.11-.29.67.67,0,0,0-.39-.08h-3.32a.89.89,0,0,0-.56.16,1.35,1.35,0,0,0-.29.58l-.51,2.15Zm8,1.65H99.92l-.46,1.86,0,.38a.32.32,0,0,0,.12.28.62.62,0,0,0,.38.09h6.53a7.1,7.1,0,0,0,1.23-.14l-.74,1.78H97.67a2.32,2.32,0,0,1-1.51-.42,1.58,1.58,0,0,1-.51-1.3,3.73,3.73,0,0,1,0-.43,6.15,6.15,0,0,1,.12-.64L97,8.08A3.93,3.93,0,0,1,98.12,6a3.1,3.1,0,0,1,2.08-.68h7c1.34,0,2,.57,2,1.72a3.88,3.88,0,0,1,0,.43c0,.17-.06.39-.12.67l-.82,3.37ZM120,5.27h-3.07a2.59,2.59,0,0,0-1.32.26,1.64,1.64,0,0,0-.7.91h-.05L115,5.27h-3.6A10.47,10.47,0,0,1,111,7.62l-1.41,5.74a12.59,12.59,0,0,1-.77,2.35H113a10.17,10.17,0,0,1,.34-2.35l1.34-5.44a.72.72,0,0,1,.78-.54h1.42a13.86,13.86,0,0,1,2.49.19Z"/><path class="cls-9" d="M67.61,33.32l0-1.12h0a1.74,1.74,0,0,1-1.52,1.12H60.66a2.69,2.69,0,0,1-1.74-.48,1.83,1.83,0,0,1-.59-1.5,3.22,3.22,0,0,1,0-.5,6.15,6.15,0,0,1,.13-.74l1.37-5.57a4.52,4.52,0,0,1,1.31-2.46,3.53,3.53,0,0,1,2.39-.78h5.2a.88.88,0,0,1,.77.27,1.88,1.88,0,0,1,.32,1H70l.7-2.86c.14-.56.23-1.07.31-1.53A8.33,8.33,0,0,0,71.08,17h4.57L72.33,30.61a11.49,11.49,0,0,0-.4,2.71Zm-4.37-1.9h3.83a.94.94,0,0,0,.61-.18,1.31,1.31,0,0,0,.36-.67L69.6,24l.05-.42a.41.41,0,0,0-.13-.33.71.71,0,0,0-.44-.1H65.25a1,1,0,0,0-.64.18,1.54,1.54,0,0,0-.33.67l-1.56,6.53,0,.43a.38.38,0,0,0,.13.32.75.75,0,0,0,.44.1Zm15.63,0H82.7a1,1,0,0,0,.61-.18,1.31,1.31,0,0,0,.36-.67L85.23,24l0-.42a.41.41,0,0,0-.13-.33.73.73,0,0,0-.45-.1H80.88a1,1,0,0,0-.64.18,1.54,1.54,0,0,0-.33.67l-1.56,6.53,0,.43a.38.38,0,0,0,.13.32.75.75,0,0,0,.44.1Zm5.51,1.9A4,4,0,0,0,86.12,33a3.09,3.09,0,0,0,1.23-1.07,5,5,0,0,0,.73-1.79l1.37-5.57c.06-.31.11-.57.13-.77a3.2,3.2,0,0,0,0-.49c0-1.32-.78-2-2.33-2H79.2a3.53,3.53,0,0,0-2.39.78,4.52,4.52,0,0,0-1.31,2.46L74.13,30.1a6.15,6.15,0,0,0-.13.74,3.22,3.22,0,0,0,0,.5,1.83,1.83,0,0,0,.59,1.5,2.69,2.69,0,0,0,1.74.48Zm19.11-5.54-.7,2.86a3.3,3.3,0,0,1-3.63,2.68H89.24l.17-2.08a4.83,4.83,0,0,0,1,.23l1.73.05h5.26a1.09,1.09,0,0,0,1.12-.79l.17-.64c0-.55-.25-.82-.74-.82H92.49q-2,0-2-1.89A5.67,5.67,0,0,1,90.64,26L91,24.56a4.91,4.91,0,0,1,1.24-2.46,3,3,0,0,1,2.18-.81h10.3l-.17,2.07a10,10,0,0,0-2.77-.27H96.34a.84.84,0,0,0-.94.71l-.15.57a1,1,0,0,0,.13.58.57.57,0,0,0,.46.16h5.31q2.46,0,2.46,1.77a4,4,0,0,1-.12.9Zm6.17-1.26H115l.61-2.47.05-.43a.41.41,0,0,0-.13-.33.71.71,0,0,0-.44-.1h-3.83a1,1,0,0,0-.64.18,1.53,1.53,0,0,0-.33.68l-.59,2.47Zm9.18,1.9,1-3.89a6.37,6.37,0,0,0,.13-.76,3.41,3.41,0,0,0,0-.5c0-1.32-.78-2-2.33-2h-8.09a3.53,3.53,0,0,0-2.39.78,4.52,4.52,0,0,0-1.31,2.46l-1.37,5.57a6.15,6.15,0,0,0-.13.74,3.22,3.22,0,0,0,0,.5,1.83,1.83,0,0,0,.59,1.5,2.69,2.69,0,0,0,1.74.48H117.3l.85-2.05a8.27,8.27,0,0,1-1.42.15h-7.52a.7.7,0,0,1-.43-.1.36.36,0,0,1-.14-.32l0-.43.52-2.15Z"/><text class="cls-10" transform="translate(120.28 4.68)">TM</text></g></svg>