<svg xmlns="http://www.w3.org/2000/svg" xmlns:xlink="http://www.w3.org/1999/xlink" viewBox="0 0 4695.38 2787.83"><defs><style>.cls-1,.cls-3{mask:url(#mask);}.cls-1{filter:url(#luminosity-noclip-5);}.cls-14,.cls-17,.cls-2,.cls-21,.cls-4,.cls-6{mix-blend-mode:multiply;}.cls-2{fill:url(#linear-gradient);}.cls-4{fill:url(#Fade_to_White_6);}.cls-5{mask:url(#mask-3);filter:url(#luminosity-noclip-7);}.cls-6{fill:url(#radial-gradient);}.cls-7{isolation:isolate;}.cls-8{mask:url(#mask-5);}.cls-40,.cls-9{opacity:0.3;}.cls-9{fill:url(#linear-gradient-2);}.cls-10{opacity:0.18;fill:url(#Fade_to_White_4);}.cls-11{fill:#f26522;}.cls-12,.cls-36,.cls-41{fill:#fff;}.cls-12{opacity:0.46;}.cls-13{fill:#c3b69c;}.cls-14{fill:#bcbec0;}.cls-14,.cls-17{opacity:0.6;}.cls-15{fill:#907f77;}.cls-16{fill:#83726b;}.cls-17,.cls-18{fill:#a7a9ac;}.cls-19{fill:#939598;}.cls-20{fill:#808285;}.cls-21{opacity:0.4;}.cls-22{fill:#6d6e71;}.cls-23{fill:#231f20;opacity:0.15;}.cls-24{fill:#ecbf99;}.cls-25{fill:#414042;}.cls-26{fill:#e6e7e8;}.cls-27{fill:#d1d3d4;}.cls-28{fill:#58595b;}.cls-29{fill:#4c4c51;}.cls-30{fill:#75787a;}.cls-31{fill:#696b6d;opacity:0.7;}.cls-32{fill:#636566;}.cls-33{fill:#26a867;}.cls-34{fill:#2bb673;}.cls-35{fill:#29292b;}.cls-37{mask:url(#mask-7);}.cls-38{fill:url(#radial-gradient-2);}.cls-39{fill:#0e0e0e;}.cls-40{fill:#070707;}.cls-41{opacity:0.8;}.cls-42{fill:#754b28;}.cls-43{fill:#020202;}.cls-44{fill:#050606;}.cls-45{opacity:0.16;fill:url(#linear-gradient-3);}.cls-46{filter:url(#luminosity-noclip-3);}.cls-47{filter:url(#luminosity-noclip);}</style><filter id="luminosity-noclip" x="442.96" y="-9313.78" width="4252.42" height="32766" filterUnits="userSpaceOnUse" color-interpolation-filters="sRGB"><feFlood flood-color="#fff" result="bg"/><feBlend in="SourceGraphic" in2="bg"/></filter><mask id="mask" x="442.96" y="-9313.78" width="4252.42" height="32766" maskUnits="userSpaceOnUse"><g class="cls-47"/></mask><linearGradient id="linear-gradient" x1="2193.51" y1="2421.45" x2="2657.25" y2="1462.01" gradientUnits="userSpaceOnUse"><stop offset="0"/><stop offset="0.34"/><stop offset="0.38"/><stop offset="0.47" stop-color="#030303"/><stop offset="0.55" stop-color="#0e0e0e"/><stop offset="0.62" stop-color="#202020"/><stop offset="0.7" stop-color="#393939"/><stop offset="0.77" stop-color="#5a5a5a"/><stop offset="0.84" stop-color="#828282"/><stop offset="0.91" stop-color="#b1b1b1"/><stop offset="0.97" stop-color="#e6e6e6"/><stop offset="1" stop-color="#fff"/></linearGradient><linearGradient id="Fade_to_White_6" x1="265.62" y1="2478.8" x2="1476.37" y2="1063.82" gradientTransform="matrix(-1, 0, 0, 1, 3421.29, 0)" gradientUnits="userSpaceOnUse"><stop offset="0"/><stop offset="0.16" stop-color="#030303"/><stop offset="0.29" stop-color="#0d0d0d"/><stop offset="0.41" stop-color="#1e1e1e"/><stop offset="0.52" stop-color="#363636"/><stop offset="0.63" stop-color="#555"/><stop offset="0.74" stop-color="#7b7b7b"/><stop offset="0.84" stop-color="#a7a7a7"/><stop offset="0.94" stop-color="#dadada"/><stop offset="1" stop-color="#fff"/></linearGradient><filter id="luminosity-noclip-3" x="1206.28" y="-9313.78" width="61.88" height="32766" filterUnits="userSpaceOnUse" color-interpolation-filters="sRGB"><feFlood flood-color="#fff" result="bg"/><feBlend in="SourceGraphic" in2="bg"/></filter><mask id="mask-3" x="1206.28" y="-9313.78" width="61.88" height="32766" maskUnits="userSpaceOnUse"><g class="cls-46"/></mask><radialGradient id="radial-gradient" cx="2468.71" cy="1419.86" r="41.27" gradientTransform="matrix(0.72, 0.25, -0.38, 0.92, 12.03, -748.16)" gradientUnits="userSpaceOnUse"><stop offset="0"/><stop offset="0.09" stop-color="#1b1b1b"/><stop offset="0.43" stop-color="#7c7c7c"/><stop offset="0.7" stop-color="#c2c2c2"/><stop offset="0.9" stop-color="#eee"/><stop offset="1" stop-color="#fff"/></radialGradient><filter id="luminosity-noclip-5" x="442.96" y="358.47" width="4252.42" height="2219.16" filterUnits="userSpaceOnUse" color-interpolation-filters="sRGB"><feFlood flood-color="#fff" result="bg"/><feBlend in="SourceGraphic" in2="bg"/></filter><mask id="mask-5" x="442.96" y="358.47" width="4252.42" height="2219.16" maskUnits="userSpaceOnUse"><g class="cls-1"><polygon class="cls-2" points="518.91 626.17 598.92 536.99 603.12 532.31 683.13 443.13 759.08 358.47 4695.38 2577.64 1785.11 2577.64 442.96 710.83 518.91 626.17"/></g></mask><linearGradient id="linear-gradient-2" x1="2193.51" y1="2421.45" x2="2657.25" y2="1462.01" gradientUnits="userSpaceOnUse"><stop offset="0" stop-color="#fdfdfe"/><stop offset="0.34" stop-color="#fdfdfe"/><stop offset="0.38" stop-color="#fdfdfe"/><stop offset="0.96" stop-color="#fdfdfe"/><stop offset="1" stop-color="#fdfdfe"/></linearGradient><linearGradient id="Fade_to_White_4" x1="265.62" y1="2478.8" x2="1476.37" y2="1063.82" gradientTransform="matrix(-1, 0, 0, 1, 3421.29, 0)" gradientUnits="userSpaceOnUse"><stop offset="0" stop-color="#fdfdfe"/><stop offset="0.91" stop-color="#fdfdfe"/><stop offset="1" stop-color="#fdfdfe"/></linearGradient><filter id="luminosity-noclip-7" x="1206.28" y="1145.95" width="61.88" height="87.66" filterUnits="userSpaceOnUse" color-interpolation-filters="sRGB"><feFlood flood-color="#fff" result="bg"/><feBlend in="SourceGraphic" in2="bg"/></filter><mask id="mask-7" x="1206.28" y="1145.95" width="61.88" height="87.66" maskUnits="userSpaceOnUse"><g class="cls-5"><path class="cls-6" d="M1262.1,1199.35c-10.16,23.62-29.53,38.48-43.27,33.19s-16.64-28.72-6.48-52.34,29.53-38.47,43.27-33.19S1272.26,1175.73,1262.1,1199.35Z"/></g></mask><radialGradient id="radial-gradient-2" cx="2468.71" cy="1419.86" r="41.27" gradientTransform="matrix(0.72, 0.25, -0.38, 0.92, 12.03, -748.16)" gradientUnits="userSpaceOnUse"><stop offset="0" stop-color="#231f20"/><stop offset="0.36" stop-color="#7e7c7c"/><stop offset="0.67" stop-color="#c4c2c3"/><stop offset="0.89" stop-color="#efeeee"/><stop offset="1" stop-color="#fff"/></radialGradient><linearGradient id="linear-gradient-3" x1="265.62" y1="2478.8" x2="1476.37" y2="1063.82" gradientTransform="matrix(-1, 0, 0, 1, 3421.29, 0)" gradientUnits="userSpaceOnUse"><stop offset="0" stop-color="#f9ed32"/><stop offset="0.91" stop-color="#f9ed32"/><stop offset="1" stop-color="#f9ed32"/></linearGradient></defs><title>Focused_1</title><g class="cls-7"><g id="Layer_2" data-name="Layer 2"><g id="Layer_3" data-name="Layer 3"><g class="cls-8"><polygon class="cls-9" points="518.91 626.17 598.92 536.99 603.12 532.31 683.13 443.13 759.08 358.47 4695.38 2577.64 1785.11 2577.64 442.96 710.83 518.91 626.17"/></g><g class="cls-8"><polygon class="cls-10" points="518.91 626.17 598.92 536.99 603.12 532.31 683.13 443.13 759.08 358.47 4695.38 2577.64 1785.11 2577.64 442.96 710.83 518.91 626.17"/></g><path class="cls-11" d="M4695.38,2618.88c.19-93.3-644.18-168.9-1443.64-168.94-797.29,0-1443.63,75.64-1443.63,168.94s646.34,168.95,1443.63,168.95S4695.2,2712.19,4695.38,2618.88Z"/><path class="cls-12" d="M4695.38,2606.25c.19-93.3-644.18-168.9-1443.64-168.94-797.29,0-1443.63,75.64-1443.63,168.94s646.34,168.95,1443.63,168.95S4695.2,2699.56,4695.38,2606.25Z"/></g><g id="Layer_6" data-name="Layer 6"><path class="cls-13" d="M418.63,444A42.4,42.4,0,0,0,478.51,441l28.4-31.48a42.4,42.4,0,0,0-3.08-59.88L128.48,10.92A42.38,42.38,0,0,0,68.61,14L40.21,45.47a42.4,42.4,0,0,0,3.07,59.88Z"/><path class="cls-14" d="M486,369.38,110.63,30.71a42.4,42.4,0,0,0-59.88,3.07L68.61,14a42.38,42.38,0,0,1,59.87-3.08L503.83,349.59a42.4,42.4,0,0,1,3.08,59.88l-17.86,19.79A42.4,42.4,0,0,0,486,369.38Z"/><path class="cls-15" d="M433.06,517.32c-13.52-31.35-27.65-62.61-4.53-88.23l30.1-33.36,1.28-1.42L490,360.94c23.12-25.61,55.67-14.76,88.24-4.53L683,397.29,584.37,506.6,583.08,508,484.45,617.34Z"/><polygon class="cls-16" points="536.62 466.1 537.9 464.68 620.66 372.96 683 397.29 584.37 506.6 583.09 508.02 484.45 617.34 453.86 557.81 536.62 466.1"/><path class="cls-17" d="M460.48,393.68,490,360.94c23.12-25.61,55.67-14.76,88.24-4.53L683,397.29,653.46,430,548.71,389.15C516.14,378.92,483.59,368.07,460.48,393.68Z"/><rect class="cls-18" x="446.57" y="502.26" width="296.73" height="29.87" transform="translate(-187.61 612.38) rotate(-47.94)"/><polygon class="cls-19" points="653.29 430.22 683.23 397.04 705.41 417.05 675.52 450.17 653.29 430.22"/><path class="cls-20" d="M415.82,383.34A15.71,15.71,0,0,0,438,382.2l5.26-5.83a15.72,15.72,0,0,0-1.14-22.19l-55.19-49.8a15.72,15.72,0,0,0-22.19,1.14l-5.26,5.84a15.71,15.71,0,0,0,1.14,22.19Z"/><g class="cls-21"><rect class="cls-19" x="64.86" y="79.02" width="127.19" height="37.17" transform="translate(-30.06 127.58) rotate(-47.94)"/></g><path class="cls-22" d="M420.68,334.82l21.45,19.36a15.72,15.72,0,0,1,1.14,22.19L438,382.2a15.71,15.71,0,0,1-22.19,1.14L394.36,364Z"/></g><g id="Layer_4" data-name="Layer 4"><polygon class="cls-11" points="3373.71 2505.53 3885.39 2605.13 3154.56 2725.94 3231.93 2640.99 2672.78 2640.99 2745.93 2569.27 3311.06 2569.27 3373.71 2505.53"/></g><g id="Layer_5" data-name="Layer 5"><path class="cls-23" d="M1496.29,2623.14c0,49.24-335,89.16-748.15,89.16S0,2672.38,0,2623.14,335,2534,748.14,2534,1496.29,2573.9,1496.29,2623.14Z"/><path class="cls-24" d="M1368.47,1628.31s22.7,2.86,20.76,16.62-26.77,20.37-57.51,5.9Z"/><path class="cls-24" d="M1342.33,1655.09a97.9,97.9,0,0,1-10.61-4.26l36.75-22.52a43.73,43.73,0,0,1,5.14,1.07Z"/><path class="cls-24" d="M1285.51,1604.25s-8.76,31.75,52.8,37.1l-49.71,81.27s-32.84,10.7-105.87-3.75l-29.39,2.53-22.1-96,33.2-13.11Z"/><path class="cls-25" d="M1307.48,1689.43c-50,34.77-94.91,56.54-100.41,48.64s30.54-42.5,80.49-77.26,94.92-56.55,100.42-48.64S1357.44,1654.67,1307.48,1689.43Z"/><path class="cls-25" d="M1499.69,1602.66c-54.57,38-110.54,51.9-125,31.1s18-68.45,72.6-106.43,110.53-51.89,125-31.09S1554.25,1564.69,1499.69,1602.66Z"/><path class="cls-25" d="M1488.42,1586.47c35.18-24.48,61.18-53,71.34-75.72l12.52-14.51L1561,1480.05c-14.48-20.8-70.45-6.88-125,31.09s-87.07,85.63-72.6,106.43l11.27,16.19,18-6.7C1417.48,1625.44,1453.24,1611,1488.42,1586.47Z"/><path class="cls-26" d="M1497.72,1599.83c-49.62,34.53-100.51,47.19-113.67,28.27s16.39-62.23,66-96.76,100.51-47.19,113.67-28.27S1547.33,1565.3,1497.72,1599.83Z"/><path class="cls-27" d="M1562.23,1531.76a270.53,270.53,0,0,1-30.52,24.58c-49.62,34.53-100.51,47.19-113.67,28.28-4.78-6.88-3.92-17,1.49-28.7-30.34,28.43-45.64,57.58-35.48,72.18,13.16,18.92,64,6.26,113.67-28.27C1529.3,1577.85,1552.75,1552.3,1562.23,1531.76Z"/><path class="cls-25" d="M1377.7,1640.57c-2,1.41-4.56,1.3-5.64-.26l-16-23c-1.08-1.56-.31-4,1.72-5.38l3.07-2.13c2-1.42,4.55-1.3,5.63.25l16,23c1.08,1.56.31,4-1.72,5.38Z"/><path class="cls-24" d="M1283.78,1609.76c-6.11,14.56-46,61.38-90.89,59.57-40-4.93-45.34-44.67-28.45-57l1.44-.51s38-32.77,108.79-38.13c19.51-.15,44.1-9.94,48-12.71s21.92,7.44,8.64,30.21C1321.61,1604.42,1293.41,1611.91,1283.78,1609.76Z"/><path class="cls-24" d="M1308.24,1642.29l46.58,14.44c5.82,2.53,8.8,15.25,6.26,21.08s-13.86,12.33-19.69,9.8l-42.32-24.22a11.5,11.5,0,0,1,9.17-21.1Z"/><path class="cls-24" d="M1297.38,1658.47l47.85,27.38a11,11,0,0,0,6.84.19c-3.77,1.9-7.87,2.79-10.68,1.57l-42.32-24.22a11.51,11.51,0,0,1-6.8-8.9A13.07,13.07,0,0,0,1297.38,1658.47Z"/><path class="cls-24" d="M1293.77,1660.38l42.47,23.95c5.16,3.71,5.38,16.78,1.67,21.93s-16.16,9.13-21.32,5.42l-36.25-32.61a11.51,11.51,0,0,1,13.43-18.69Z"/><path class="cls-24" d="M1276.46,1665.26a12.19,12.19,0,0,0,5.1,9.83l38.61,34.74c2.94,2.11,8.09,1.88,12.86.38-5.29,2.84-12.74,4.13-16.44,1.47l-36.25-32.61A11.5,11.5,0,0,1,1276.46,1665.26Z"/><path class="cls-24" d="M1257.6,1677l42.66,17c5.28,2.81,7.14,15,4.33,20.25s-13.92,10.56-19.2,7.75l-38-25.84A10.83,10.83,0,0,1,1257.6,1677Z"/><path class="cls-24" d="M1243,1681.44a10.81,10.81,0,0,1,3.73-4,11.57,11.57,0,0,0-.82,1.31,10.83,10.83,0,0,0,4.49,14.65l37.94,25.84c3.84,2,10.77-.19,15.34-3.6-3.81,4.75-13.45,8.89-18.25,6.33l-38-25.84A10.82,10.82,0,0,1,1243,1681.44Z"/><polygon class="cls-26" points="1155.4 1732.16 1187.17 1721.19 1160.54 1611.03 1128.77 1622 1155.4 1732.16"/><path class="cls-28" d="M786.32,2439.37l-51.43,25L640,2486.56l-12.34,99.07,407.6,36.49.34-41c-7.45-7.92-11.88-24.15-38-38.83-16.47-9.3-51.23-16-70.25-25.86C863.81,2483.36,786.32,2439.37,786.32,2439.37Z"/><rect class="cls-29" x="627.86" y="2581.63" width="407.97" height="49.62" transform="translate(-21.66 7.01) rotate(-0.48)"/><path class="cls-30" d="M903.49,1751.19h0s0,.09,0,.24l.75,10.39c3.17,19.5,19,56.47,96,27.74h0l163-60.79-27.73-114.71-108.36,42.47-20.19-265-124.46,13.17,17.72,301.54Z"/><path class="cls-31" d="M1020.94,1762c-77,28.73-92.87-8.24-96-27.74l-.75-10.39c0-.16,0-.24,0-.24h0l-3.24-44.92-16.24-276.34-22.12,2.34,17.72,301.54,3.23,44.92h0s0,.09,0,.24l.75,10.39c3.17,19.5,19,56.47,96,27.74l163-60.79-4.4-18.2Z"/><polygon class="cls-22" points="320.96 1607.27 243.58 2140.59 113.24 2488.8 299.73 2496.26 431.55 2177.9 551.9 1663.67 320.96 1607.27"/><path class="cls-32" d="M249.63,2098.88l-6,41.71L113.24,2488.8l186.48,7.46L431.55,2177.9l.34-1.43C382.74,2201,307.53,2211.34,249.63,2098.88Z"/><polygon class="cls-32" points="281.12 2140.59 365.4 1618.12 320.96 1607.27 243.58 2140.59 113.24 2488.8 147.45 2490.17 281.12 2140.59"/><path class="cls-20" d="M1002,1327.68s35.8,136.48-72.6,236.57c-114.53,109.55-237.3,245.63-237.3,245.63l-20.19-47.56L655.24,1723S951.63,1520.23,1002,1327.68Z"/><polygon class="cls-22" points="655.24 1723.02 551.9 1684.73 467.65 1811.09 638.77 2162.92 638.77 2503.78 831.85 2464.91 831.85 2140.59 655.24 1723.02"/><path class="cls-32" d="M678.41,2154.13l-125.28-246,46.31-28h-98.2l137.53,282.78v340.86l193.08-38.87V2140.59C773.18,2244.38,678.41,2154.13,678.41,2154.13Z"/><path class="cls-19" d="M721.38,1702.39c81.33-7.23,223.74-156.71,223.74-156.71l2.41-62,34.08-3.56L1007,1363c-1.47-21.74-5-35.33-5-35.33-37.48,143.26-211.14,292.18-297.6,359Z"/><path class="cls-26" d="M1000.3,1337.19l-30.93,73.49s-73.21,218.89-313.23,325.66c0,0-86.95,7.45-115.93-41.84l349.88-471.06Z"/><polygon class="cls-24" points="935.61 1189.16 907.83 1232.2 944.74 1360.58 987.29 1325.78 1000.3 1275.89 935.61 1189.16"/><polygon class="cls-27" points="891.93 1212.09 914.2 1218.13 944.74 1360.58 866.94 1365.87 891.93 1212.09"/><polygon class="cls-27" points="969.37 1410.68 944.74 1360.58 991.9 1308.11 1003.51 1330.69 969.37 1410.68"/><path class="cls-20" d="M903.79,1213.34s-34.46,218.21-105.7,301.45S483.3,1750.92,483.3,1750.92s-154.67,14.35-222.64-165l453.18-309.82,39.64-76Z"/><path class="cls-31" d="M694.4,1312.14H666.54l-405.88,273.8a336.3,336.3,0,0,0,14.86,33.65Z"/><path class="cls-19" d="M868.72,1208.49l-80.39,157.38,28.83,45L724.79,1446s-38,152.76-107.71,215.93c65.19-42.32,141.2-100.6,181-147.12,71.24-83.24,105.7-301.45,105.7-301.45Z"/><path class="cls-28" d="M88.45,2585.05c1.37-6.67,2.65-11.32,2.65-11.32s4.3-23.66,13.23-60.39S171.1,2445,215,2444.54c35.47-.35,89.43,29.68,89.43,29.68s3.57,28,14.24,55c16.18,19.56,24.7,36.77,29.32,52l.28,34.09-259.59-2Z"/><rect class="cls-29" x="88.64" y="2580.71" width="259.57" height="51.16" transform="translate(-21.71 1.91) rotate(-0.48)"/><polygon class="cls-33" points="888.72 1364.39 896.65 1407.18 940.01 1421.47 962.19 1396.07 944.74 1360.58 888.72 1364.39"/><polygon class="cls-34" points="896.65 1407.18 817.16 1809.88 865.44 1889.51 926.12 1820.41 940.01 1421.47 896.65 1407.18"/><path class="cls-20" d="M760.43,1361.06l92.77-152.13L516.69,1098.84c-23.28-7.7-40-.46-50.51,8h0a58.85,58.85,0,0,0-13.31,15l-.36.62h0L317,1344.26l111.91,84.25,113.49-181.08Z"/><path class="cls-31" d="M467,1152l.36-.63a59,59,0,0,1,13.31-15h0c10.53-8.42,27.23-15.65,50.51-7.95l322,80.52L516.69,1098.84c-23.28-7.7-40-.46-50.51,8h0a58.85,58.85,0,0,0-13.31,15l-.36.62h0L317,1344.26l22.31,16.8L467,1152Z"/><polygon class="cls-26" points="321.45 1348.26 296.08 1381.73 404.7 1457.29 425.49 1425.51 321.45 1348.26"/><path class="cls-24" d="M1080.31,1379.07c-55.56-21.47-130.18-81.09-164.65-271,.58-8.48.14-29,1.32-38L1051,909s205.19,48.07,311.84,140.22c0,0,3.36,82.51-70.06,156.28l-12.5,76.09C1255.34,1345.33,1194.1,1414.56,1080.31,1379.07Z"/><path class="cls-24" d="M1051,909s205.19,48.07,311.84,140.22a115,115,0,0,1-.57,13.48l-140.79-50.56-86.64,4.21s-207.61,155.81-62.33,359.45c-54.56-24-124-86.63-156.83-267.73.58-8.48.14-29,1.32-38Z"/><path class="cls-35" d="M1114.5,1267.51c14.67,16.62,36.67,31.28,52.63,40.22,16.33,8.24,41.42,18.64,63.43,21.54-4.43,11.14-25.58,6-38.88,13.55-15,8.57-20.58,19.73-47.74,11.35l-.7-.29c-34.2-14.1-32.63-47.39-37.67-76.39C1103,1262.4,1106.94,1257.21,1114.5,1267.51Z"/><path class="cls-36" d="M1155.84,1320.42c-32.6-17.35-37.3-40.37-39.64-51,16,16.33,36.1,28.77,51.45,37.37,16.32,8.24,38.55,17.55,57.66,21.74C1218.7,1333.2,1192.08,1339.71,1155.84,1320.42Z"/><path class="cls-36" d="M1255.77,1127.87s48.67,8.07-12.37,117.38c0,0-12.68-14.22-31.88-20.3s-41.5-3.88-41.5-3.88S1210.25,1116.79,1255.77,1127.87Z"/><g class="cls-37"><path class="cls-38" d="M1255.62,1147c-13.74-5.28-33.11,9.58-43.27,33.19-7.6,17.66-7.89,35.22-1.81,45.16a24.37,24.37,0,0,1,5.38,1.22,23.89,23.89,0,0,1,10.08,7c12.69-.86,27.61-14.47,36.1-34.2C1272.26,1175.73,1269.36,1152.3,1255.62,1147Z"/></g><path class="cls-39" d="M1257.19,1197.46c-8.15,19-23.71,30.88-34.73,26.64s-13.36-23.06-5.2-42,23.7-30.88,34.73-26.63S1265.34,1178.51,1257.19,1197.46Z"/><path class="cls-40" d="M1263.32,1196.71c.36-.87.8-2,1.21-3.26s1-2.77,1.46-4.46a77.54,77.54,0,0,0,2.61-12.28,47,47,0,0,0-.44-15.62l-.48-2c-.19-.67-.43-1.32-.67-2a25.82,25.82,0,0,0-1.73-3.83,17.16,17.16,0,0,0-1.15-1.76,9.87,9.87,0,0,0-1.3-1.64l-1.45-1.52c-.56-.45-1.15-.87-1.74-1.31a15.8,15.8,0,0,0-8.06-2.83,21.36,21.36,0,0,0-9.51,1.48c-6.46,2.44-12.68,7.31-17.88,13.37-.33.37-.67.74-1,1.13l-.93,1.2c-.61.81-1.25,1.59-1.84,2.42-1.13,1.69-2.34,3.33-3.34,5.13-.51.89-1,1.75-1.54,2.67l-1.41,2.77c-.49.93-.89,1.85-1.29,2.77l-1.22,2.81a81.06,81.06,0,0,0-3.69,11.55c-.55,1.94-.84,3.88-1.22,5.81-.16,1-.26,1.93-.39,2.89l-.19,1.44c-.06.48-.07,1-.11,1.43-.61,7.6.15,15,2.75,21l.6,1.24a25.13,25.13,0,0,1,2.61.32l-.66-.84c-.37-.64-.74-1.28-1.12-1.92a29.31,29.31,0,0,1-3-9.14c-.19-.82-.2-1.72-.31-2.58a23.35,23.35,0,0,1-.16-2.67l0-2.72c0-.92.11-1.85.18-2.78.53-7.47,2.9-15.22,6.11-22.44l1.32-2.68c.44-.91.89-1.82,1.39-2.65l1.45-2.54c.49-.84,1-1.65,1.58-2.47,1-1.68,2.2-3.2,3.31-4.76.58-.77,1.21-1.48,1.8-2.22l.91-1.1c.3-.36.63-.69,1-1a52.69,52.69,0,0,1,8-7.28,33.79,33.79,0,0,1,8.58-4.62c5.78-2,11.27-1.57,15.45,1.24l1.43,1c.44.43.87.87,1.3,1.3a8.94,8.94,0,0,1,1.17,1.41c.34.52.77.94,1.07,1.5a22.19,22.19,0,0,1,1.7,3.33c.23.59.51,1.13.71,1.72s.37,1.22.56,1.81a44.05,44.05,0,0,1,1.53,14.43c0,1.14-.17,2.26-.25,3.34-.06.54-.12,1.07-.17,1.59s-.17,1-.25,1.55c-.17,1-.34,2-.5,2.9s-.44,1.8-.65,2.64c-.37,1.68-.88,3.16-1.28,4.45s-.81,2.37-1.16,3.25c-.68,1.74-1,2.68-1,2.68h0l-1.24,2.61a33.3,33.3,0,0,1-1.56,3.1c-.66,1.2-1.38,2.58-2.35,4-.48.73-1,1.5-1.49,2.32l-1.79,2.41c-.31.41-.62.85-1,1.27l-1.06,1.25c-.74.83-1.44,1.75-2.28,2.56a49.07,49.07,0,0,1-11.75,9.37l-1.73,1c-.59.29-1.19.5-1.79.77a26.19,26.19,0,0,1-3.69,1.32,25.31,25.31,0,0,1-5.73.76,26.24,26.24,0,0,1,2.6,3l1.07-.2a16.76,16.76,0,0,0,2.1-.47,30.07,30.07,0,0,0,4.06-1.55c.65-.31,1.31-.61,1.94-1l1.84-1.13a50.47,50.47,0,0,0,11.85-10.84,79.92,79.92,0,0,0,7.2-10.5c.94-1.5,1.6-3,2.26-4.16s1.15-2.27,1.54-3.13c.78-1.72,1.21-2.63,1.21-2.63h0Z"/><path class="cls-41" d="M1247.6,1208.29c-1.71,4.17-5.73,6.62-9,5.47s-4.45-5.45-2.73-9.62,5.73-6.62,9-5.47S1249.32,1204.13,1247.6,1208.29Z"/><path class="cls-36" d="M1240.15,1174.47c-3.62,8.77-12.05,13.92-18.85,11.51s-9.37-11.48-5.75-20.25,12-13.91,18.84-11.5S1243.77,1165.71,1240.15,1174.47Z"/><path class="cls-42" d="M1167.32,1220.7s51.45,8.39,82.07,29.42C1249.39,1250.12,1224,1207.06,1167.32,1220.7Z"/><path class="cls-43" d="M1247,1239.83l-.06.09Z"/><path class="cls-43" d="M1170.35,1218.71l0,.07Z"/><path class="cls-44" d="M1235,848.31c158.69,71.87,127.61,213.48,127.61,213.48l-139.86-70.67-115.23-14.74s-3.56,83.92-89.72,152.77l-103.19-26.81s-5.6-28.3-10-74.32c-3.79-39.46,13.17-85.9,13.17-85.9C1016.27,796.56,1091.25,783.2,1235,848.31Z"/><path class="cls-44" d="M1202.69,1110c23.1,9.78,38.26-17.6,89.14,23.26,20.09,22.8,25.44.72,24.17-4.13-3.69-14-29.84-40.22-72.78-46S1179.58,1100.24,1202.69,1110Z"/><path class="cls-24" d="M1293.22,1312.14c-7.62,11.77-46.86,15.36-46.86,15.36l21.59-65.57S1315.21,1278.16,1293.22,1312.14Z"/><path class="cls-24" d="M991.32,1171.2c-19,1.58-33.52-27.92-37.53-60.6l52.79,14.21Z"/><path class="cls-24" d="M1046.06,1043.77s-27.23-29.18-61.09-4.37c-39,28.55-19.22,140.27,17.36,137.24Z"/><path class="cls-24" d="M372.21,1573.71l.14-.15Z"/><path class="cls-24" d="M372.35,1573.56l0-.06Z"/><path class="cls-24" d="M372.4,1573.5l.38-.44Z"/><path class="cls-24" d="M372.1,1573.85l.07-.09Z"/><path class="cls-24" d="M372.17,1573.76l0,0Z"/><path class="cls-24" d="M372.08,1573.87l0,0Z"/><path class="cls-24" d="M372.78,1573.06l.39-.46Z"/><path class="cls-24" d="M373.17,1572.6l.3-.34Z"/><path class="cls-24" d="M374.18,1571.45Z"/><path class="cls-24" d="M412.41,1488.5l-7.71-31.21h0l-99.09-68.93c-15.46,25.86-13.68,49.83-13.68,49.83l15.32,56.68-3.45,40.52s-12.33,14.71-16.89,21.39-12.52,16.71-1.15,25.8c6,4.8,12.79-5.42,12.79-5.42l24.78-28.87,16.13-30.87-10.76,39.52-15.64,15.3a45.52,45.52,0,0,0-20.55,20.5c-8.48,18.49,8.14,21.22,8.14,21.22l12.41-9.45c-12.4,12.64,6.44,24.23,6.44,24.23l24.58-16.33s23.8-21.68,28.16-30.12l16.3-43.81,1,28.32s-12.38,30.08-15.46,37.43c-4.06,9.69-2.07,21,1.66,23.39,7.64,4.92,13-2.8,13-2.8s19.33-36.1,25.53-55.24c5.18-16,9.12-25.32,8.33-29.49C420.85,1530.56,412.41,1488.5,412.41,1488.5Z"/><path class="cls-24" d="M374.12,1571.51l.06-.06Z"/><path class="cls-24" d="M373.47,1572.26l.08-.08Z"/><path class="cls-24" d="M373.94,1571.72l.18-.21Z"/><path class="cls-24" d="M312.93,1604.61l.13-.1a15.52,15.52,0,0,0-3.88,6.39c7.92-5.87,39.16-29.59,45.31-39.63,7.12-11.63,11.91-41.38,11.91-41.38s-7.89,27.86-14.75,39.64c-5.11,8.78-27.52,26.49-38.61,35Z"/></g><g id="Layer_7" data-name="Layer 7"><g class="cls-8"><polygon class="cls-45" points="518.91 626.17 598.92 536.99 603.12 532.31 683.13 443.13 759.08 358.47 4695.38 2577.64 1785.11 2577.64 442.96 710.83 518.91 626.17"/></g></g></g></g></svg>