<svg xmlns="http://www.w3.org/2000/svg" viewBox="0 0 812.79 729.7"><defs><style>.cls-1{isolation:isolate;}.cls-14,.cls-2{fill:#07113d;}.cls-2{opacity:0.16;}.cls-13,.cls-3{fill:#591239;}.cls-4{fill:#f4a891;}.cls-5{fill:#d79481;}.cls-6{fill:#c22d3c;}.cls-7{fill:#fff;}.cls-8{fill:#f4b84d;}.cls-9{fill:#ffc7b0;}.cls-10{fill:#ffc4bc;}.cls-11{fill:#65324e;}.cls-12{fill:#d93838;}.cls-13{opacity:0.37;}.cls-15{fill:#b95241;}.cls-16,.cls-19,.cls-21,.cls-24,.cls-25,.cls-30,.cls-33{fill:none;stroke-miterlimit:10;}.cls-16,.cls-19,.cls-21,.cls-24,.cls-25,.cls-33{stroke:#07113d;}.cls-16,.cls-19,.cls-21,.cls-24,.cls-25{stroke-linecap:round;}.cls-16{stroke-width:0.84px;}.cls-17{fill:#111d4d;}.cls-18,.cls-32{fill:#9995a7;}.cls-19{stroke-width:0.86px;}.cls-20{opacity:0.15;}.cls-21{stroke-width:1.17px;}.cls-22{fill:#6572bf;}.cls-23{fill:#757182;}.cls-24{stroke-width:0.8px;}.cls-25,.cls-30{stroke-width:0.83px;}.cls-26{fill:#eaecee;}.cls-27{fill:#061f48;}.cls-28{fill:#080b2e;}.cls-29{fill:#061d48;}.cls-30{stroke:#9995a7;}.cls-31{fill:#2c3765;}.cls-32{opacity:0.34;mix-blend-mode:multiply;}.cls-33{stroke-width:4.35px;}.cls-34{fill:#6d322e;}.cls-35{fill:#542221;}.cls-36{fill:#929498;}.cls-37{fill:#b7b9bd;}.cls-38{fill:#893836;}</style></defs><title>guidance</title><g class="cls-1"><g id="Layer_2" data-name="Layer 2"><g id="Layer_1-2" data-name="Layer 1"><path class="cls-2" d="M799.54,729.7H13.25C6,729.7,0,724.86,0,718.94H0c0-5.91,6-10.75,13.25-10.75H799.54c7.29,0,13.25,4.84,13.25,10.75h0C812.79,724.86,806.83,729.7,799.54,729.7Z"/><path class="cls-3" d="M544.51,139.64c-.82.13-1.66.24-2.49.29l-.37,0A25.3,25.3,0,1,1,556.5,95.26c.24.21.47.4.71.63a24.93,24.93,0,0,1,7.88,13.87,24,24,0,0,1,.43,3.19A25.32,25.32,0,0,1,544.51,139.64Z"/><path class="cls-3" d="M585.89,146.36a25.3,25.3,0,1,1-23.89-42,11.7,11.7,0,0,1,1.26-.25,22.57,22.57,0,0,1,2.49-.29,25.3,25.3,0,0,1,20.14,42.58Z"/><path class="cls-4" d="M756,335.87l-22,3.46a4.47,4.47,0,0,0-3.95,4.95l.07.42a4.57,4.57,0,0,0,5.36,3.48l22-3.46a4.48,4.48,0,0,0,4-5l-.07-.42A4.58,4.58,0,0,0,756,335.87Z"/><path class="cls-4" d="M727.29,366.65s14.43,3.36,18.57,4.44c8,2.09,12.6,1.25,14.65-3.52l1.3-10.61c-.21-5.95-.61-8.75-5.41-10.74l-15.82-6.54a9.63,9.63,0,0,0-12.46,5.06l-4.1,9.54C722,359.05,722.48,364.67,727.29,366.65Z"/><path class="cls-4" d="M757.38,354.81l19.18,3.65c3.08.69,6-.38,6.46-2.36h0c.47-2-1.67-4.17-4.75-4.85l-19.18-3.66c-3.08-.68-6,.38-6.46,2.37h0C752.16,351.94,754.3,354.13,757.38,354.81Z"/><path class="cls-4" d="M759.65,364.33,778.84,368c3.08.68,6-.39,6.45-2.37h0c.47-2-1.66-4.17-4.74-4.85l-19.19-3.66c-3.08-.68-6,.39-6.45,2.37h0C754.44,361.47,756.57,363.65,759.65,364.33Z"/><path class="cls-4" d="M752.53,372l19.19,3.65c3.08.69,6-.38,6.46-2.36h0c.47-2-1.67-4.17-4.75-4.85l-19.18-3.66c-3.08-.68-6,.39-6.46,2.37h0C747.32,369.18,749.45,371.36,752.53,372Z"/><path class="cls-4" d="M657.57,339.51a106.25,106.25,0,0,0,20,11.54,99.06,99.06,0,0,0,11.65,4.27l43.27,12.76a11.59,11.59,0,0,0,7.31-.16c4.16-1.51,7.31-5.48,8-10.85,1.07-8.26-5.27-10.7-12.66-12.87L695.07,330a91.4,91.4,0,0,1-12.47-5.77,93,93,0,0,1-10.28-6.64c-17.31-12.88-29.67-31.45-36-52.67L626,230.14c-2.47-8.33-10.18-13.54-17.22-11.64s-10.76,10.18-8.29,18.5l10.31,34.75C619.19,299.89,636.05,323.84,657.57,339.51Z"/><path class="cls-5" d="M667.86,314.45l-14.74,22c6.3,4.59,12.48,9.06,19.49,12.13L680.54,323Z"/><path class="cls-6" d="M655.3,297.53c-.64-.86-5.34-4.57-13.15-26.43-9.24-25.89-13.95-47.11-15.9-58.92-3.25-19.69-29-.27-29.55,16.81s19.09,66.69,28.64,82,33,32.83,33,32.83L675,314.24S662.73,307.42,655.3,297.53Z"/><polygon class="cls-7" points="667.12 308.71 659.56 322.66 665.2 332.29 654.03 330.58 649.63 338.3 662.98 347.02 679.46 316.34 667.12 308.71"/><circle class="cls-3" cx="527.04" cy="83.13" r="25.3" transform="translate(118.12 425.87) rotate(-48.93)"/><circle class="cls-8" cx="607.89" cy="67.12" r="11.81" transform="translate(1.75 148.51) rotate(-13.95)"/><circle class="cls-8" cx="584.48" cy="70.79" r="11.81" transform="translate(4.44 171.72) rotate(-16.78)"/><path class="cls-3" d="M561.47,146.1c.24.4.4-4.35.65-11.6.66-19.93,2-58.77,7.8-61.52,15.86-7.54,77.34,39.13,81.88,21.85a59.7,59.7,0,0,0,1.92-12.56c0-.9.07-1.79.06-2.68a59.94,59.94,0,0,0-11-34.87v0A60.24,60.24,0,0,0,593.6,19.26c-.92,0-1.83,0-2.75,0-24.39,1.06-45.57,15.21-55.14,37.12a65.49,65.49,0,0,0-5.35,22.68C527.47,129.06,555.91,137,561.47,146.1Z"/><path class="cls-4" d="M584.68,224.11h0a16.14,16.14,0,0,1-17.15-14.94l-4.83-70.31a16.14,16.14,0,0,1,14.94-17.15h0a16.13,16.13,0,0,1,17.14,14.94L599.62,207A16.14,16.14,0,0,1,584.68,224.11Z"/><path class="cls-9" d="M558.66,115.6c0,.55.08,1.08.14,1.62a4.6,4.6,0,0,0,.06.52,48.47,48.47,0,0,0,6.08,18.79c.15.28.32.55.48.83a47.11,47.11,0,0,0,22.34,19.47s0,0,0,0a43.38,43.38,0,0,0,11.39,3c1.45.17,2.91.29,4.37.35.5,0,1,0,1.49,0a2.38,2.38,0,0,0,.31,0,41.13,41.13,0,0,0,6.32-.58,15.38,15.38,0,0,0,1.78-.3c19.31-3.88,34.13-20.37,36.47-40.69a50.47,50.47,0,0,0,.32-6.65l-.08-3.42-.45-22.8a59.76,59.76,0,0,0-.93-10,36.78,36.78,0,0,0-2.07-7.26,47,47,0,0,0-10.17-16.17,45.48,45.48,0,0,0-32.86-13.49,44.71,44.71,0,0,0-25.52,8.47c-1,.76-2.08,1.56-3.07,2.4A47.25,47.25,0,0,0,563.18,65.2a.2.2,0,0,0,0,0,43.28,43.28,0,0,0-2,4.86c-.1.3-.21.58-.3.91a51,51,0,0,0-1.76,6.22c-.1.47-.2,1-.29,1.43a39.08,39.08,0,0,0-.77,8v.48l0,1.85,0,2,0,2.59v.6l0,1.18v0l.27,12.31.06,4.08,0,1.54,0,.34c0,.11,0,.21,0,.32A14.23,14.23,0,0,0,558.66,115.6Z"/><path class="cls-10" d="M555.43,113.84a11.49,11.49,0,0,0,1.23.15,3.11,3.11,0,0,0,.62,0l1.3,0,1.59,0-.09-6.12,0-1.37-.2-11.12-1.69,0-1.22,0a4.9,4.9,0,0,0-.77,0h0a9.87,9.87,0,0,0-1.09.16h0a8.78,8.78,0,0,0-4.7,2.48,9,9,0,0,0-2.63,6.48A9.69,9.69,0,0,0,555.43,113.84Z"/><path class="cls-4" d="M626.18,113.18s-.32,3.48-5.19,3.65c-4.28.15-4.92-2.81-4.92-2.81Z"/><path class="cls-3" d="M561.47,74.91s81.94-16.86,88.95-.09c0,0,2.06-17.67-23.11-34S560.86,42.4,558,50.33a31.53,31.53,0,0,0-2.05,13.88Z"/><path class="cls-11" d="M609.32,91.46s-10.46-4.09-19,2.88Z"/><path class="cls-11" d="M645.51,88.3s-10.06-4.2-19.08,2.2Z"/><path class="cls-12" d="M629.1,397.29l-100.22,9.44-1-8.89-.1-4.95s.15-1.31.39-3.66c1.67-16.15,8-81.87,4.15-120.27-.84-8.54-3.79-26.06-6.66-42.15a41.87,41.87,0,0,1,26.78-46.68c6.79-2.5,12.36-4.43,13.88-4.64,3.06-.41,25.15,47.28,28.36,47.4l-.83-47.16c26.24,9.11,39.09,37.82,40.08,75.4a20.61,20.61,0,0,1-.2,3.14l-8.08,68.24Z"/><path class="cls-12" d="M630.33,122.69l-19,2.06A11.28,11.28,0,0,0,622,130.14,9.07,9.07,0,0,0,630.33,122.69Z"/><path class="cls-4" d="M555.43,113.84a11.49,11.49,0,0,0,1.23.15,3.11,3.11,0,0,0,.62,0l1.3,0a14.23,14.23,0,0,0,.08,1.61c0,.55.08,1.08.14,1.62a4.6,4.6,0,0,0,.06.52,48.47,48.47,0,0,0,6.08,18.79c.15.28.32.55.48.83a47.11,47.11,0,0,0,22.34,19.47s0,0,0,0a43.38,43.38,0,0,0,11.39,3c1.45.17,2.91.29,4.37.35.5,0,1,0,1.49,0-2.33,0-15.9-2.19-26.09-18.11-11.05-17.28-14.1-50.79-14.1-50.79s.7-14.41-.14-14.36c-.27,0-2.7.74-5.92,1.73a39.08,39.08,0,0,0-.77,8v.48l0,1.85,0,2,0,2.59v.6l0,1.18-1.22,0a4.9,4.9,0,0,0-.77,0h0a9.87,9.87,0,0,0-1.09.16h0a8.78,8.78,0,0,0-4.7,2.48,9,9,0,0,0-2.63,6.48A9.69,9.69,0,0,0,555.43,113.84Z"/><circle class="cls-3" cx="651.08" cy="68.19" r="11.81" transform="translate(8.03 190.84) rotate(-16.78)"/><path class="cls-3" d="M618.62,67.41a11.81,11.81,0,1,0,11-12.58A11.8,11.8,0,0,0,618.62,67.41Z"/><circle class="cls-3" cx="609.94" cy="68.75" r="11.81" transform="translate(6.12 178.99) rotate(-16.78)"/><path class="cls-3" d="M579.73,73a11.8,11.8,0,1,0,11-12.58A11.79,11.79,0,0,0,579.73,73Z"/><circle class="cls-3" cx="572.66" cy="75.68" r="11.81" transform="translate(2.53 168.52) rotate(-16.78)"/><path class="cls-3" d="M574.68,63.48,564,104.4a2.63,2.63,0,0,1-5,.25L547.15,72.89S558.08,40.58,574.68,63.48Z"/><polygon class="cls-7" points="562.5 175 562.38 163.18 582.23 163.92 590.79 195.74 594.2 164.74 601.71 164.65 600.81 249 562.5 175"/><path class="cls-13" d="M552.55,306.79c-1.28,19.65-5.3,99.76-5.3,99.76L528,408.49c-2.27-17,8.17-101.13,4.36-139.53-1.78-18-6-41.41-9.15-57.5-1.55-.6,12.89,1.91,12.89,1.91s.23.92.61,2.59.91,3.81,1.53,6.56C542.88,242.92,553.57,291.43,552.55,306.79Z"/><path class="cls-14" d="M373,505.42l-.43,2.63a2.88,2.88,0,0,0,2.39,3.32l40,6.41-.55-12.35L376.1,503A2.91,2.91,0,0,0,373,505.42Z"/><path class="cls-14" d="M413.57,541.71,385.89,551.9a14.08,14.08,0,0,0-8.5,10.18h0a7.31,7.31,0,0,1-7.9,5.8h0a7.26,7.26,0,0,1-6.45-8.47l1.91-11.54a24.14,24.14,0,0,1,9-15.13l34.31-26.54a10.05,10.05,0,0,1,7.22-.81h0a9.84,9.84,0,0,1,6.88,12.55Z"/><path class="cls-15" d="M416.68,543,389,553.14a14.05,14.05,0,0,0-8.5,10.18h0a7.31,7.31,0,0,1-7.91,5.8h0a7.26,7.26,0,0,1-6.45-8.47l1.37-8.27a32.6,32.6,0,0,1,12.22-20.44l31.67-24.49a10,10,0,0,1,7.23-.82h0a9.84,9.84,0,0,1,6.88,12.55Z"/><line class="cls-16" x1="396.01" y1="550.91" x2="393.14" y2="543.84"/><line class="cls-16" x1="401.51" y1="549.1" x2="398.64" y2="542.03"/><line class="cls-16" x1="406.79" y1="547.28" x2="403.91" y2="540.21"/><path class="cls-17" d="M485.07,567.62c-30.59-7.63-60.39-16.94-71.4-21.45l10.52-35.47c4.57,1.87,26.05,9.43,55.48,16.39,27.27,6.45,51.38,8.32,57.89,3,.47-16.78-10-89.55-9.27-95.08,1.49-11.48,53.92-12.59,53.92-12.59.31,1.06,3.94,123.74-6.41,138.06A33.8,33.8,0,0,1,560.91,572C545.27,578.51,524.14,577.37,485.07,567.62Z"/><polygon class="cls-18" points="434.2 512.8 420.86 550.41 410.92 546.33 424.46 509.28 434.2 512.8"/><path class="cls-14" d="M646.34,726.81l2.71.09a3,3,0,0,0,3-2.86l1.26-41.14L641,685.1l2.53,39A2.93,2.93,0,0,0,646.34,726.81Z"/><path class="cls-14" d="M677.68,681.12l13.88,26.53A14.26,14.26,0,0,0,703,714.86h0a7.4,7.4,0,0,1,6.88,7.19v0a7.41,7.41,0,0,1-7.7,7.63l-11.9-.38a24.49,24.49,0,0,1-16.44-7.1l-31.25-31a10.22,10.22,0,0,1-1.76-7.18h0a10,10,0,0,1,11.77-8.6Z"/><path class="cls-15" d="M678.53,677.82l13.88,26.53a14.25,14.25,0,0,0,11.39,7.2h0a7.42,7.42,0,0,1,6.88,7.2v0a7.4,7.4,0,0,1-7.7,7.62l-8.53-.27a33,33,0,0,1-22.21-9.59L643.39,687.9a10.13,10.13,0,0,1-1.76-7.18h0a10.05,10.05,0,0,1,11.77-8.61Z"/><line class="cls-19" x1="689.25" y1="697.59" x2="682.49" y2="701.42"/><line class="cls-19" x1="686.71" y1="692.29" x2="679.95" y2="696.12"/><line class="cls-19" x1="684.19" y1="687.22" x2="677.43" y2="691.05"/><path class="cls-17" d="M641.48,680.32c2.15-67.64.84-132.55-4.77-145.05-5.58-20.17-37.48-71.55-49.74-93.72l39.47-39.61c13.25,32.09,34.12,73.44,44.73,111.77,3.09,11.13,12.21,29.14,11.39,98.07-.44,36.1-2,70.27-2,70.27Z"/><polygon class="cls-18" points="682.52 672.1 638.77 669.67 639.01 681.77 682.57 683.57 682.52 672.1"/><path class="cls-17" d="M529.77,408.94s-6.55,27.32,2.88,38.07c16.83,19.17,81.21,2.08,90-5.7,11.37-10.11,6.77-40.8,6.77-40.8Z"/><polygon class="cls-18" points="528.73 413.11 630.04 401.21 628.8 390.6 528.26 402.34 528.73 413.11"/><g class="cls-20"><path class="cls-12" d="M611.5,113.15c.14,1.68-4.08,3.39-9.42,3.83s-9.77-.56-9.91-2.23,4.07-3.4,9.41-3.84S611.36,111.47,611.5,113.15Z"/><path class="cls-12" d="M648.4,109.78c.14,1.67-3.18,3.26-8.52,3.7s-9.08-.83-9.21-2.5,3.37-3.13,8.71-3.57S648.26,108.1,648.4,109.78Z"/></g><path class="cls-21" d="M596,102.69s4.82-4.36,12.12-1.1"/><path class="cls-21" d="M630.65,100s4.83-4.37,12.13-1.1"/><path class="cls-4" d="M528.56,385.05l-14.37-17a4.48,4.48,0,0,0-6.28-.81l-.33.28a4.58,4.58,0,0,0-.18,6.39l14.37,17a4.45,4.45,0,0,0,6.27.81l.33-.28A4.58,4.58,0,0,0,528.56,385.05Z"/><path class="cls-4" d="M487.33,376.48s4.62,14.08,5.85,18.18c2.38,7.93,5.48,11.41,10.62,10.69l9.74-4.4c5-3.26,7.16-5.06,6.37-10.2l-2.63-16.92a9.64,9.64,0,0,0-10.8-8l-10.27,1.45C491.07,368,486.54,371.34,487.33,376.48Z"/><path class="cls-4" d="M513.08,396l6.84,18.3c1,3,3.43,4.91,5.37,4.29h0c1.94-.63,2.7-3.59,1.68-6.58l-6.84-18.29c-1-3-3.43-4.92-5.37-4.29h0C512.82,390.1,512.06,393.06,513.08,396Z"/><path class="cls-4" d="M506.12,402.93l6.84,18.3c1,3,3.43,4.91,5.37,4.28h0c1.95-.62,2.7-3.58,1.69-6.57l-6.84-18.29c-1-3-3.44-4.92-5.38-4.29h0C505.86,397,505.1,400,506.12,402.93Z"/><path class="cls-4" d="M495.84,400.85l6.84,18.3c1,3,3.43,4.91,5.37,4.29h0c1.94-.63,2.7-3.59,1.68-6.58l-6.84-18.29c-1-3-3.43-4.92-5.37-4.29h0C495.58,394.91,494.82,397.87,495.84,400.85Z"/><path class="cls-4" d="M474.33,302.81a105.91,105.91,0,0,0,.53,23.09,96.41,96.41,0,0,0,2.4,12.18l11.57,43.6a11.55,11.55,0,0,0,3.93,6.17c3.44,2.77,8.47,3.4,13.43,1.21,7.61-3.37,6.4-10.06,4.43-17.5L502,329.89A93.28,93.28,0,0,1,500.75,304c2-21.49,11.47-41.69,26.34-58.1l24.33-26.85c5.84-6.43,6.29-15.73,1-20.76s-14.29-3.91-20.11,2.53L508,227.68C488.26,249.44,476.54,276.28,474.33,302.81Z"/><path class="cls-4" d="M501.09,298.59l-26.42-1.2c-.66,7.77-1.27,15.37-.25,22.95l25.93-6.47Z"/><path class="cls-12" d="M538.68,192.25a45.56,45.56,0,0,0-7,5.21l-.38.33c-3,2.68-6.29,6-9.75,9.67-1.12,1.22-2.27,2.48-3.41,3.77C503.41,227.75,487.26,250,482,260.45c-5,9.95-8,24.9-9.55,34.85-1,6.15-1.37,10.39-1.37,10.39l3.55-.1,30.4-1s-.58-14.07,4-25.53c.4-1,0-7.9,15.75-25,5.65-6.12,11.47-12.28,16.73-18.24,3.56-4,6.84-7.93,9.63-11.66,4.56-6.12,7.75-11.72,8.5-16.43C561.5,196,553.55,183.84,538.68,192.25Z"/><polygon class="cls-7" points="505.61 294.98 489.76 295.75 484.46 305.58 480.12 295.15 471.24 295.39 470.72 311.32 505.5 309.48 505.61 294.98"/><path class="cls-22" d="M351.71,677.46c.47,2.49,1.86,31.65,1.86,31.65l31.15,1.64-10.4-45.7Z"/><path class="cls-23" d="M351.57,727.26l70.58-6.06a7.65,7.65,0,0,0,7-8.27h0a7.65,7.65,0,0,0-5.73-6.76l-36-9.18-38.09,4.21Z"/><path class="cls-14" d="M423.73,723l-71.4,6.66-.48-5.11,76.52-7.14h0A5.14,5.14,0,0,1,423.73,723Z"/><line class="cls-24" x1="387.52" y1="707.38" x2="394.98" y2="697.76"/><line class="cls-24" x1="393.83" y1="709.38" x2="401.28" y2="699.75"/><line class="cls-24" x1="399.96" y1="712.26" x2="408.34" y2="701.35"/><path class="cls-14" d="M255.59,407.08c1.25,3.17,49.67,77.91,66.34,120.09S347.44,692,347.44,692l45.79.19s-4.77-117-15.77-154.08-61.09-139.22-61.09-139.22C314.7,394.7,255.59,407.08,255.59,407.08Z"/><path class="cls-22" d="M107.09,583.53C104.73,584.71,72,603.07,72,603.07l13.88,24.26,40.11-24.67Z"/><path class="cls-23" d="M51.56,606.74l27.71,68.32a8,8,0,0,0,10.37,4.38h0a8,8,0,0,0,5-7.77l-1.92-38.58L76.79,596.51Z"/><path class="cls-14" d="M77.93,677.2l-28.56-69,4.94-2,30.61,73.89h0A5.35,5.35,0,0,1,77.93,677.2Z"/><line class="cls-25" x1="82.38" y1="636.38" x2="94.24" y2="640.84"/><line class="cls-25" x1="82.33" y1="643.27" x2="94.19" y2="647.72"/><line class="cls-25" x1="81.35" y1="650.25" x2="94.77" y2="655.24"/><path class="cls-14" d="M76.66,587.25C141.11,555.09,201.11,520.59,210,509c4.38-9.15,5-49.31,1.26-86.36l46.44-4.7c2.64,26,7.19,89.2-7.3,114.48-6.12,10.67-21.14,26.17-86.14,60.23-34.05,17.84-67,35.76-67,35.76Z"/><path class="cls-14" d="M319.75,401.55a33.31,33.31,0,0,1-29.94,36.32l-55.7,5.39a32.05,32.05,0,0,1-4.89.1,32.56,32.56,0,0,1-11.76-2.8,20.81,20.81,0,0,1-1.9-.92,33.21,33.21,0,0,1-17.77-26.31l-.69-17.77L317,382.93Z"/><path class="cls-9" d="M461.39,333.62c-.12-.29,0-20.56-3.87-21.18a81.29,81.29,0,0,0-20.59-.51l-12.86,1.37s.77,17.81.78,18.74c.09,12.94,25.26,7.14,25.26,7.14S464.15,340.15,461.39,333.62Z"/><path class="cls-9" d="M449.13,321l29.68-2.57a4,4,0,0,0,3.6-4.28h0a4,4,0,0,0-4.29-3.6l-29.67,2.57a4,4,0,0,0-3.6,4.28h0A4,4,0,0,0,449.13,321Z"/><path class="cls-9" d="M456.27,329.8l23.82-2.06a4,4,0,0,0,3.6-4.28h0a4,4,0,0,0-4.28-3.6l-23.83,2.06a4,4,0,0,0-3.6,4.28h0A4,4,0,0,0,456.27,329.8Z"/><path class="cls-9" d="M445.61,340.09l28.2-2.44a4,4,0,0,0,3.6-4.29h0a4,4,0,0,0-4.28-3.6l-28.21,2.45a4,4,0,0,0-3.6,4.28h0A4,4,0,0,0,445.61,340.09Z"/><path class="cls-9" d="M430.11,320.44l27.24-12.06a4,4,0,0,0,2-5.21h0a4,4,0,0,0-5.22-2l-27.23,12.06a4,4,0,0,0-2,5.22h0A4,4,0,0,0,430.11,320.44Z"/><polygon class="cls-26" points="419.47 342.27 418.86 335.25 416.61 309.33 423.91 308.7 428.91 308.27 429.25 312.18 429.3 312.75 429.96 320.5 431.64 339.69 431.77 341.21 426.96 341.63 422.33 342.02 419.47 342.27"/><path class="cls-27" d="M422.19,345c-2.92-.14-72-3.78-107.49-42.13-20.37-22-32.8-59.19-39-82.64-.84-3.19-1.58-6.12-2.21-8.73-1.46-6.11-2.3-10.43-2.61-12l19.52-3.71,19.51-3.7h0c.18,1,.4,2.08.66,3.26,4,18.78,15.85,61.67,33.31,80.53,20.26,21.88,64.8,28.68,80.24,29.45l-.17,3.37-1.28,27.06-.3,6.26Z"/><path class="cls-27" d="M222.78,208.22l-19-32.46L202.21,173c-.4.24-6,3.5-14.15,9.12-7,4.81-15.93,11.34-25.26,19.21-28.55,24.08-46.49,48.34-53.34,72.11-14.23,49.41,4.75,112,5.56,114.64l2.73-.85,5-1.54,20.63-6.36,2.89-.88,4.6-1.43,3.12-.95c-.15-.51-16.17-53.71-5.33-91.35,8.26-28.67,45.49-58,66.34-71.66C218,211.12,220.6,209.49,222.78,208.22Z"/><rect class="cls-4" x="236.74" y="104.83" width="38.22" height="70.83" rx="6.89" transform="translate(-15.12 32.07) rotate(-6.97)"/><path class="cls-15" d="M324.93,59c0,.93.07,1.85.08,2.77a62.14,62.14,0,0,1-32.53,55.09A61.74,61.74,0,0,1,266,124.26c-15.51.8-28.07,8.42-39.42-.44a62.1,62.1,0,0,1-9.92-9.66c-1.14-1.42-2.24-2.85-3.26-4.35-6.22-9.12-12.05-32.6-12.65-44.43A62.21,62.21,0,0,1,256.85.29q1.41-.13,2.82-.21a62.06,62.06,0,0,1,52,23.55l0,0A62,62,0,0,1,324.93,59Z"/><path class="cls-10" d="M244.9,81.11a10.06,10.06,0,0,1-.44,3.8,11.56,11.56,0,0,1-2.17,4.17,10.92,10.92,0,0,1-7.35,3.9l-6.38.44-4.9.35-1-14.53h0l-.2-2.68-.15-2.09-.13-1.91,0-.49h0l11.26-.79A10.8,10.8,0,0,1,241,73.64a11,11,0,0,1,3,3.78A9.8,9.8,0,0,1,244.9,81.11Z"/><path class="cls-9" d="M321.2,65.56l1.66,23.5.25,3.52a46.47,46.47,0,0,1,0,6.88,49.4,49.4,0,0,1-37.34,44.21,17.74,17.74,0,0,1-1.89.42,46.29,46.29,0,0,1-6.82,1,48.06,48.06,0,0,1-6.68,0,49.12,49.12,0,0,1-12.46-2.4.06.06,0,0,1,0,0,49.38,49.38,0,0,1-33.34-39.11c-.09-.56-.17-1.11-.23-1.67a18.62,18.62,0,0,1-.2-2l-.05-.35L223.94,98l-.28-4.19-1-14.39v-.16l-.18-2.67-.15-2.09-.13-1.91,0-.49a39.86,39.86,0,0,1,.66-9.79,53.93,53.93,0,0,1,1.59-6.52,8.34,8.34,0,0,1,.28-1,44.76,44.76,0,0,1,1.93-5.14.07.07,0,0,1,0,0,49.52,49.52,0,0,1,12.08-16.67c1-.93,2.1-1.83,3.19-2.67a50.38,50.38,0,0,1,63.36,1.63A47.81,47.81,0,0,1,317.07,48a36.08,36.08,0,0,1,2.61,7.37A59.21,59.21,0,0,1,321.2,65.56Z"/><path class="cls-10" d="M227.52,78.83l1,14.59.68,9.85-3.87.27a5.79,5.79,0,0,1-.83,0A12.74,12.74,0,0,1,212,91.84a11.74,11.74,0,0,1,3.05-8.72,12,12,0,0,1,7.55-3.88h0a5.69,5.69,0,0,1,1-.12Z"/><path class="cls-14" d="M267.29,86.13h0a2.22,2.22,0,0,1,1.93-2.46l8.53-1a2.21,2.21,0,0,1,2.46,1.92h0A2.22,2.22,0,0,1,278.28,87l-8.52,1A2.22,2.22,0,0,1,267.29,86.13Z"/><path class="cls-14" d="M303.5,81.44h0a2.23,2.23,0,0,1,2-2.39l8.56-.69a2.23,2.23,0,0,1,2.39,2h0a2.22,2.22,0,0,1-2,2.38l-8.56.69A2.22,2.22,0,0,1,303.5,81.44Z"/><path class="cls-4" d="M275.69,145.06a33,33,0,0,1-17.77-2.37.06.06,0,0,1,0,0,49.38,49.38,0,0,1-33.34-39.11A12.74,12.74,0,0,1,212,91.84a11.74,11.74,0,0,1,3.05-8.72,12,12,0,0,1,7.55-3.88v0l-.18-2.67-.15-2.09-.13-1.91,0-.49h0a39.86,39.86,0,0,1,.66-9.79c6.19-4.51,12.87-6,17.73,1.8,0,0,.07,3.8.44,9.57.26,4.32.67,9.73,1.33,15.44,1.33,11.75,3.64,24.79,7.63,32.38C258.43,137.66,275.69,145.06,275.69,145.06Z"/><path class="cls-15" d="M319,31.48l-79.2,9.68a9.55,9.55,0,0,1-10.61-8.3h0a9.55,9.55,0,0,1,8.3-10.61l79.2-9.68a9.56,9.56,0,0,1,10.62,8.3h0A9.55,9.55,0,0,1,319,31.48Z"/><path class="cls-15" d="M337.17,37a12.55,12.55,0,0,1-10.44,16.18l-72.22,8.83a18.89,18.89,0,0,0-16.46,21l1.43,11.68a7.12,7.12,0,0,1-6.19,7.9l-1.67.21a7.1,7.1,0,0,1-7.9-6.19l-4.3-35.17a5.73,5.73,0,0,1,0-.82,12.32,12.32,0,0,1-3-6.63,12.56,12.56,0,0,1,10.92-14l95.84-11.72A12.9,12.9,0,0,1,337.17,37Z"/><path class="cls-15" d="M316,67.91,300.52,69.8a2.8,2.8,0,0,1-3.12-2.44h0a2.81,2.81,0,0,1,2.44-3.12l15.52-1.9a2.81,2.81,0,0,1,3.12,2.44h0A2.82,2.82,0,0,1,316,67.91Z"/><path class="cls-15" d="M278.26,72.52l-15.52,1.9A2.81,2.81,0,0,1,259.62,72h0a2.81,2.81,0,0,1,2.44-3.12L277.58,67a2.82,2.82,0,0,1,3.13,2.44h0A2.82,2.82,0,0,1,278.26,72.52Z"/><path class="cls-7" d="M285.32,111.87a11.56,11.56,0,0,0,10.08,3.92c4.47-.32,9.23-2.91,10.32-6.66Z"/><path class="cls-4" d="M301.13,97.05c0,.08-.3,0-.3,0,.23,2.5-1.69,4.75-7.06,5.25l-3-19.59C297.33,89.29,300.24,93,301.13,97.05Z"/><path class="cls-28" d="M200.2,427.41s49-5.31,48.38-7.08-.59-22.42-.59-22.42,38.94-6.49,38.94-4.13,3.54,20.65,3.54,20.65l28.92-5.31-.59-30.68-125.68,13Z"/><rect class="cls-7" x="234.23" y="153.1" width="52.22" height="228.13" transform="translate(-8.71 8.78) rotate(-1.9)"/><polygon class="cls-12" points="259.71 176.91 245.98 158.68 257.82 151.06 272.2 157.81 259.71 176.91"/><polygon class="cls-7" points="282.71 164.75 258.73 151.99 230.61 167.31 230.02 149.62 282.02 148.76 282.71 164.75"/><rect class="cls-18" x="237.82" y="380.79" width="53.05" height="11.18" transform="matrix(1, -0.03, 0.03, 1, -12.66, 8.98)"/><rect class="cls-29" x="261.59" y="380.46" width="19.03" height="11.51" transform="translate(-12.65 9.2) rotate(-1.9)"/><path class="cls-27" d="M238.89,414.12a145.45,145.45,0,0,1-28.13,3.94,166.23,166.23,0,0,1-20.36-.16,4.54,4.54,0,0,1-1.26-.35L185.7,260.64c-1.72-26.33,0-40.15.78-61.75.11-3,.2-6.09.27-9.4a19.69,19.69,0,0,1,.89-5.52c2.79-9.05,11.81-15,21.56-19.24a174.82,174.82,0,0,1,17.18-6.14c2.41-.78.94-.09,3.5-.31Z"/><path class="cls-27" d="M325.27,409.24l-9.7.38-22.27.86S280.92,159.6,283.15,160.57a53.69,53.69,0,0,1,11.79,7.28c8.09,6.45,15.72,15.78,19.68,26.84a46.29,46.29,0,0,1,2.41,9.86,2.92,2.92,0,0,1,.07.39C319.8,226.47,325.27,409.24,325.27,409.24Z"/><line class="cls-30" x1="258.04" y1="174.28" x2="267.35" y2="379.52"/><path class="cls-31" d="M234.57,282.62c.94,2.17-21.78-77.4-21.78-77.4l9.27-8.36L208,165.09l22-14.58S233,279,234.57,282.62Z"/><path class="cls-31" d="M287.4,284.55c-.77,2.23,15.17-78.62,15.17-78.62l-9.42-7.86,6.91-29.42L280.51,149.8S288.69,280.8,287.4,284.55Z"/><path class="cls-32" d="M264.5,170.78c-.42,2.78-4.14,62.31-22.13,98.46S211,312.35,211,312.35l-20.77-3.27.16-19.47s37.82-24.91,46.83-44.76S259.88,169,259.88,169,265.75,162.68,264.5,170.78Z"/><path class="cls-12" d="M258.11,165.22s-8.73,57.75-38.44,84.06-39.74,25-39.74,25l-6.68,24.14L201,301.06s33.83-25.1,44.68-52.75,19.54-81.26,19.54-81.26Z"/><path class="cls-4" d="M143.19,390.93l15.07,29.67a4.44,4.44,0,0,0,6,1.94h0a4.41,4.41,0,0,0,1.93-5.94l-15.07-29.67a4.44,4.44,0,0,0-5.95-1.94h0A4.43,4.43,0,0,0,143.19,390.93Z"/><path class="cls-33" d="M126.84,448l-1.8-6.08a14,14,0,0,1,9.42-17.36l21.6-6.41a14,14,0,0,1,17.36,9.42l2.63,8.86"/><path class="cls-34" d="M217.55,418.65l44,148.35L123.59,607.89,85.75,480.25a21.62,21.62,0,0,1,14.57-26.85Z"/><rect class="cls-35" x="98.3" y="505.57" width="143.87" height="13.18" transform="translate(-138.54 69.5) rotate(-16.51)"/><path class="cls-35" d="M169.51,529h0a10.83,10.83,0,0,1-13.46-7.31l-3.29-11.12,20.76-6.16,3.3,11.13A10.83,10.83,0,0,1,169.51,529Z"/><path class="cls-36" d="M165.74,530.57h0a10.83,10.83,0,0,1-13.46-7.31L149,512.14,169.75,506l3.3,11.12A10.83,10.83,0,0,1,165.74,530.57Z"/><path class="cls-37" d="M164,525.65h0a8.22,8.22,0,0,1-10.21-5.55l-2.5-8.44L167,507l2.5,8.44A8.22,8.22,0,0,1,164,525.65Z"/><path class="cls-35" d="M240.44,495.77l-21.51,6.38L202.56,446.9A22.43,22.43,0,0,1,217.69,419h0Z"/><path class="cls-38" d="M262.43,566.7,243,572.46,204.91,443.94a20.27,20.27,0,0,1,13.66-25.19h0Z"/><path class="cls-9" d="M136,422.55c.29-.2,21-4.2,20.87-8.39a82.93,82.93,0,0,0-4-21.66l-4.31-13.12s-19.26,5-20.28,5.27c-14.11,3.18-2.25,28.12-2.25,28.12S129.48,427,136,422.55Z"/><path class="cls-9" d="M143.15,395.86l9.74,31.83a4.43,4.43,0,0,0,5.52,2.93h0a4.43,4.43,0,0,0,2.93-5.52l-9.74-31.82a4.44,4.44,0,0,0-5.52-2.94h0A4.43,4.43,0,0,0,143.15,395.86Z"/><path class="cls-9" d="M134.67,405.41,142.49,431a4.44,4.44,0,0,0,5.52,2.93h0a4.43,4.43,0,0,0,2.94-5.52l-7.83-25.55a4.43,4.43,0,0,0-5.52-2.93h0A4.43,4.43,0,0,0,134.67,405.41Z"/><path class="cls-9" d="M123.11,403.49l9.26,30.24a4.44,4.44,0,0,0,5.52,2.94h0a4.44,4.44,0,0,0,2.93-5.52l-9.26-30.25a4.43,4.43,0,0,0-5.51-2.93h0A4.43,4.43,0,0,0,123.11,403.49Z"/><polygon class="cls-26" points="155.21 383.53 151.57 375.58 117.26 386.74 119.89 394.35 155.21 383.53"/></g></g></g></svg>