<svg xmlns="http://www.w3.org/2000/svg" xmlns:xlink="http://www.w3.org/1999/xlink" viewBox="0 0 376.14 234.9"><defs><style>.cls-1{isolation:isolate;}.cls-2,.cls-212{opacity:0.2;}.cls-3{opacity:0;}.cls-4{opacity:0.09;}.cls-5{opacity:0.18;}.cls-6{opacity:0.27;}.cls-7{opacity:0.36;}.cls-8{opacity:0.45;}.cls-9{opacity:0.55;}.cls-10{opacity:0.64;}.cls-11{opacity:0.73;}.cls-12{opacity:0.82;}.cls-13{opacity:0.91;}.cls-14{fill:url(#linear-gradient);}.cls-15{fill:url(#New_Gradient_Swatch_copy_35);}.cls-102,.cls-107,.cls-112,.cls-117,.cls-122,.cls-127,.cls-132,.cls-135,.cls-139,.cls-153,.cls-154,.cls-16,.cls-165,.cls-170,.cls-175,.cls-198,.cls-199,.cls-209,.cls-21,.cls-210,.cls-219,.cls-220,.cls-27,.cls-37,.cls-42,.cls-47,.cls-51,.cls-54,.cls-59,.cls-64,.cls-71,.cls-97{mix-blend-mode:color-dodge;}.cls-16{fill:url(#Radial_Gradient_1);}.cls-17{fill:url(#linear-gradient-2);}.cls-18{fill:url(#linear-gradient-3);}.cls-19{fill:url(#linear-gradient-4);}.cls-20{fill:url(#New_Gradient_Swatch_copy_35-2);}.cls-21{fill:url(#Radial_Gradient_1-2);}.cls-129,.cls-190,.cls-212,.cls-215,.cls-216,.cls-217,.cls-22,.cls-43,.cls-60,.cls-99{mix-blend-mode:multiply;}.cls-22{fill:url(#radial-gradient);}.cls-23{fill:url(#New_Gradient_Swatch_copy_23);}.cls-24{fill:url(#New_Gradient_Swatch_copy_35-3);}.cls-25{fill:#6b24d6;}.cls-26{fill:url(#New_Gradient_Swatch_copy_23-2);}.cls-27{fill:url(#Radial_Gradient_1-3);}.cls-28{fill:url(#New_Gradient_Swatch_copy_42);}.cls-29{fill:#8969c3;}.cls-30{fill:url(#New_Gradient_Swatch_copy_42-2);}.cls-31{fill:url(#New_Gradient_Swatch_copy_42-3);}.cls-32{fill:url(#New_Gradient_Swatch_copy_42-4);}.cls-33{fill:url(#New_Gradient_Swatch_copy_42-5);}.cls-34{fill:#2af6ff;}.cls-35{fill:url(#linear-gradient-5);}.cls-36{fill:url(#New_Gradient_Swatch_copy_35-4);}.cls-37{fill:url(#Radial_Gradient_1-4);}.cls-38{fill:url(#linear-gradient-6);}.cls-39{fill:url(#linear-gradient-7);}.cls-40{fill:url(#linear-gradient-8);}.cls-41{fill:url(#New_Gradient_Swatch_copy_35-5);}.cls-42{fill:url(#Radial_Gradient_1-5);}.cls-43{fill:url(#radial-gradient-2);}.cls-44{fill:url(#New_Gradient_Swatch_copy_23-3);}.cls-45{fill:url(#New_Gradient_Swatch_copy_35-6);}.cls-46{fill:url(#New_Gradient_Swatch_copy_23-4);}.cls-47{fill:url(#Radial_Gradient_1-6);}.cls-48{fill:url(#linear-gradient-9);}.cls-49{fill:url(#linear-gradient-10);}.cls-50{fill:url(#linear-gradient-11);}.cls-51{fill:url(#radial-gradient-3);}.cls-52{fill:url(#linear-gradient-12);}.cls-53{fill:url(#New_Gradient_Swatch_copy_35-7);}.cls-54{fill:url(#Radial_Gradient_1-7);}.cls-55{fill:url(#linear-gradient-13);}.cls-56{fill:url(#linear-gradient-14);}.cls-57{fill:url(#linear-gradient-15);}.cls-58{fill:url(#New_Gradient_Swatch_copy_35-8);}.cls-59{fill:url(#Radial_Gradient_1-8);}.cls-60{fill:url(#radial-gradient-4);}.cls-61{fill:url(#New_Gradient_Swatch_copy_23-5);}.cls-62{fill:url(#New_Gradient_Swatch_copy_35-9);}.cls-63{fill:url(#New_Gradient_Swatch_copy_23-6);}.cls-64{fill:url(#Radial_Gradient_1-9);}.cls-65{fill:url(#New_Gradient_Swatch_copy_42-6);}.cls-66{fill:url(#New_Gradient_Swatch_copy_42-7);}.cls-67{fill:url(#New_Gradient_Swatch_copy_42-8);}.cls-68{fill:url(#New_Gradient_Swatch_copy_25);}.cls-69{fill:url(#New_Gradient_Swatch_copy_25-2);}.cls-70{fill:url(#New_Gradient_Swatch_copy_25-3);}.cls-71{fill:url(#radial-gradient-5);}.cls-72{fill:url(#New_Gradient_Swatch_copy_26);}.cls-73{fill:url(#New_Gradient_Swatch_copy_26-2);}.cls-74{fill:url(#New_Gradient_Swatch_copy_26-3);}.cls-75{fill:url(#New_Gradient_Swatch_copy_26-4);}.cls-76{fill:url(#New_Gradient_Swatch_copy_26-5);}.cls-77{fill:url(#New_Gradient_Swatch_copy_26-6);}.cls-78{fill:url(#New_Gradient_Swatch_copy_25-4);}.cls-79{fill:url(#New_Gradient_Swatch_copy_25-5);}.cls-80{fill:url(#New_Gradient_Swatch_copy_25-6);}.cls-81{fill:url(#New_Gradient_Swatch_copy_35-10);}.cls-82{fill:url(#New_Gradient_Swatch_copy_35-11);}.cls-83{fill:url(#New_Gradient_Swatch_copy_35-12);}.cls-84{fill:url(#linear-gradient-16);}.cls-85{opacity:0.09;}.cls-86{opacity:0.18;}.cls-87{opacity:0.27;}.cls-88{opacity:0.36;}.cls-89{opacity:0.45;}.cls-90{opacity:0.55;}.cls-91{opacity:0.64;}.cls-92{opacity:0.73;}.cls-93{opacity:0.82;}.cls-94{opacity:0.91;}.cls-95{fill:url(#linear-gradient-17);}.cls-96{fill:url(#New_Gradient_Swatch_copy_35-13);}.cls-97{fill:url(#Radial_Gradient_1-10);}.cls-192,.cls-194,.cls-196,.cls-98{opacity:0.3;}.cls-98{fill:url(#New_Gradient_Swatch_copy_16);}.cls-99{fill:url(#radial-gradient-6);}.cls-100{fill:url(#New_Gradient_Swatch_copy_23-7);}.cls-101{fill:url(#New_Gradient_Swatch_copy_35-14);}.cls-102{fill:url(#Radial_Gradient_1-11);}.cls-103{fill:url(#linear-gradient-18);}.cls-104{fill:url(#linear-gradient-19);}.cls-105{fill:url(#New_Gradient_Swatch_copy_23-8);}.cls-106{fill:url(#New_Gradient_Swatch_copy_35-15);}.cls-107{fill:url(#Radial_Gradient_1-12);}.cls-108{fill:url(#linear-gradient-20);}.cls-109{fill:url(#linear-gradient-21);}.cls-110{fill:url(#New_Gradient_Swatch_copy_23-9);}.cls-111{fill:url(#New_Gradient_Swatch_copy_35-16);}.cls-112{fill:url(#Radial_Gradient_1-13);}.cls-113{fill:url(#linear-gradient-22);}.cls-114{fill:url(#linear-gradient-23);}.cls-115{fill:url(#New_Gradient_Swatch_copy_23-10);}.cls-116{fill:url(#New_Gradient_Swatch_copy_35-17);}.cls-117{fill:url(#Radial_Gradient_1-14);}.cls-118{fill:url(#linear-gradient-24);}.cls-119{fill:url(#linear-gradient-25);}.cls-120{fill:url(#New_Gradient_Swatch_copy_23-11);}.cls-121{fill:url(#New_Gradient_Swatch_copy_35-18);}.cls-122{fill:url(#Radial_Gradient_1-15);}.cls-123{fill:url(#linear-gradient-26);}.cls-124{fill:url(#linear-gradient-27);}.cls-125{fill:url(#New_Gradient_Swatch_copy_23-12);}.cls-126{fill:url(#New_Gradient_Swatch_copy_35-19);}.cls-127{fill:url(#Radial_Gradient_1-16);}.cls-128{opacity:0.4;fill:url(#New_Gradient_Swatch_copy_16-2);}.cls-129{fill:#d1d3d4;}.cls-130{fill:url(#linear-gradient-28);}.cls-131{fill:url(#New_Gradient_Swatch_copy_35-20);}.cls-132{fill:url(#Radial_Gradient_1-17);}.cls-133{fill:url(#linear-gradient-29);}.cls-134{fill:url(#New_Gradient_Swatch_copy_35-21);}.cls-135{fill:url(#Radial_Gradient_1-18);}.cls-136{fill:url(#New_Gradient_Swatch_copy_26-7);}.cls-137{fill:url(#New_Gradient_Swatch_copy_23-13);}.cls-138{fill:url(#New_Gradient_Swatch_copy_35-22);}.cls-140{fill:url(#Radial_Gradient_1-19);}.cls-141{fill:url(#Radial_Gradient_1-20);}.cls-142{fill:url(#Radial_Gradient_1-21);}.cls-143{fill:url(#Radial_Gradient_1-22);}.cls-144{fill:url(#Radial_Gradient_1-23);}.cls-145{fill:url(#linear-gradient-30);}.cls-146{fill:url(#linear-gradient-31);}.cls-147{fill:url(#linear-gradient-32);}.cls-148{fill:url(#linear-gradient-33);}.cls-149{fill:url(#linear-gradient-34);}.cls-150{fill:url(#linear-gradient-35);}.cls-151{fill:url(#linear-gradient-36);}.cls-152{fill:url(#New_Gradient_Swatch_copy_35-23);}.cls-153{fill:url(#Radial_Gradient_1-24);}.cls-154{fill:url(#radial-gradient-7);}.cls-155{fill:url(#New_Gradient_Swatch_copy_35-24);}.cls-156{fill:url(#New_Gradient_Swatch_copy_35-25);}.cls-157{fill:#25054d;}.cls-158{fill:url(#New_Gradient_Swatch_copy_35-26);}.cls-159{fill:url(#linear-gradient-37);}.cls-160{fill:url(#linear-gradient-38);}.cls-161{fill:url(#linear-gradient-39);}.cls-162{fill:url(#linear-gradient-40);}.cls-163{fill:#7c1dc9;}.cls-164{fill:#e6e7e8;}.cls-164,.cls-195,.cls-202,.cls-203,.cls-207,.cls-223,.cls-225,.cls-226{mix-blend-mode:screen;}.cls-165{fill:url(#radial-gradient-8);}.cls-166{fill:url(#linear-gradient-41);}.cls-167{fill:url(#linear-gradient-42);}.cls-168{fill:url(#linear-gradient-43);}.cls-169{fill:url(#linear-gradient-44);}.cls-170{fill:url(#radial-gradient-9);}.cls-171{fill:url(#linear-gradient-45);}.cls-172{fill:url(#linear-gradient-46);}.cls-173{fill:url(#linear-gradient-47);}.cls-174{fill:url(#linear-gradient-48);}.cls-175{fill:url(#radial-gradient-10);}.cls-176{fill:url(#New_Gradient_Swatch_copy_35-27);}.cls-177{fill:url(#New_Gradient_Swatch_copy_26-8);}.cls-178{fill:url(#New_Gradient_Swatch_copy_26-9);}.cls-179{fill:url(#New_Gradient_Swatch_copy_26-10);}.cls-180{fill:url(#New_Gradient_Swatch_copy_26-11);}.cls-181{fill:url(#New_Gradient_Swatch_copy_26-12);}.cls-182{fill:url(#New_Gradient_Swatch_copy_26-13);}.cls-183{fill:url(#New_Gradient_Swatch_copy_26-14);}.cls-184{fill:url(#New_Gradient_Swatch_copy_26-15);}.cls-185{fill:url(#New_Gradient_Swatch_copy_26-16);}.cls-186{fill:url(#New_Gradient_Swatch_copy_26-17);}.cls-187{fill:url(#linear-gradient-49);}.cls-188{fill:url(#linear-gradient-50);}.cls-189{fill:url(#linear-gradient-51);}.cls-190,.cls-191{opacity:0.8;}.cls-190{fill:url(#New_Gradient_Swatch_copy_3);}.cls-192{fill:url(#linear-gradient-52);}.cls-193{fill:url(#linear-gradient-53);}.cls-194{fill:url(#linear-gradient-54);}.cls-195{fill:url(#radial-gradient-11);}.cls-197{fill:url(#New_Gradient_Swatch_copy_10);}.cls-198{fill:url(#radial-gradient-12);}.cls-199{fill:url(#radial-gradient-13);}.cls-200{fill:url(#New_Gradient_Swatch_copy_10-2);}.cls-201{fill:url(#New_Gradient_Swatch_copy_10-3);}.cls-202,.cls-203,.cls-223{opacity:0.5;}.cls-202{fill:url(#linear-gradient-55);}.cls-204{fill:url(#linear-gradient-56);}.cls-205{fill:url(#linear-gradient-57);}.cls-206{fill:url(#linear-gradient-58);}.cls-207{fill:url(#radial-gradient-14);}.cls-208{fill:url(#linear-gradient-59);}.cls-209{fill:url(#radial-gradient-15);}.cls-210{fill:url(#radial-gradient-16);}.cls-211{fill:#f4af87;}.cls-212{fill:url(#radial-gradient-17);}.cls-213{fill:url(#linear-gradient-60);}.cls-214{fill:url(#linear-gradient-61);}.cls-215{fill:#7a5608;opacity:0.7;}.cls-216{fill:url(#New_Gradient_Swatch_1);}.cls-217{fill:url(#New_Gradient_Swatch_1-2);}.cls-218{fill:url(#New_Gradient_Swatch_copy_10-4);}.cls-219{fill:url(#radial-gradient-18);}.cls-220{fill:url(#radial-gradient-19);}.cls-221{fill:url(#New_Gradient_Swatch_copy_10-5);}.cls-222{fill:url(#New_Gradient_Swatch_copy_10-6);}.cls-223{fill:url(#linear-gradient-62);}.cls-224{fill:url(#linear-gradient-63);}.cls-225{fill:url(#linear-gradient-64);}.cls-226{fill:url(#linear-gradient-65);}.cls-227{fill:url(#New_Gradient_Swatch_copy_26-18);}.cls-228{fill:url(#New_Gradient_Swatch_copy_26-19);}.cls-229{fill:url(#New_Gradient_Swatch_copy_26-20);}</style><linearGradient id="linear-gradient" x1="213.7" y1="99.13" x2="269.9" y2="99.13" gradientUnits="userSpaceOnUse"><stop offset="0.04" stop-color="#b086cc"/><stop offset="0.18" stop-color="#b289cd"/><stop offset="0.27" stop-color="#b791d0"/><stop offset="0.34" stop-color="#c1a0d5"/><stop offset="0.34" stop-color="#c1a1d5"/><stop offset="0.38" stop-color="#c8abda"/><stop offset="0.44" stop-color="#dac6e6"/><stop offset="0.49" stop-color="#efe5f5"/><stop offset="0.54" stop-color="#e3d1ee"/><stop offset="0.59" stop-color="#d1b4e3"/><stop offset="0.7" stop-color="#b395d6"/><stop offset="0.81" stop-color="#9c7dcb"/><stop offset="0.91" stop-color="#8e6ec5"/><stop offset="1" stop-color="#8969c3"/></linearGradient><linearGradient id="New_Gradient_Swatch_copy_35" x1="254.43" y1="61.66" x2="235.09" y2="111.57" gradientUnits="userSpaceOnUse"><stop offset="0" stop-color="#9f79c8"/><stop offset="0.14" stop-color="#a580cb"/><stop offset="0.33" stop-color="#b492d3"/><stop offset="0.55" stop-color="#cdb0e1"/><stop offset="0.58" stop-color="#d1b4e3"/><stop offset="0.76" stop-color="#dbc4e9"/><stop offset="1" stop-color="#ebdef3"/></linearGradient><radialGradient id="Radial_Gradient_1" cx="241.8" cy="102.36" r="20.72" gradientUnits="userSpaceOnUse"><stop offset="0" stop-color="#fff"/><stop offset="1"/></radialGradient><linearGradient id="linear-gradient-2" x1="215.8" y1="90.83" x2="267.8" y2="90.83" gradientUnits="userSpaceOnUse"><stop offset="0" stop-color="#25054d"/><stop offset="0.5" stop-color="#45108a"/><stop offset="1" stop-color="#25054d"/></linearGradient><linearGradient id="linear-gradient-3" x1="215.8" y1="89.63" x2="267.8" y2="89.63" gradientUnits="userSpaceOnUse"><stop offset="0" stop-color="#7c1dc9"/><stop offset="0.05" stop-color="#6e41d2"/><stop offset="0.16" stop-color="#4c9be8"/><stop offset="0.26" stop-color="#2af6ff"/><stop offset="0.33" stop-color="#37d3f6"/><stop offset="0.49" stop-color="#5093e6"/><stop offset="0.62" stop-color="#6360da"/><stop offset="0.74" stop-color="#703bd1"/><stop offset="0.84" stop-color="#7925cb"/><stop offset="0.9" stop-color="#7c1dc9"/></linearGradient><linearGradient id="linear-gradient-4" x1="213.7" y1="58.78" x2="269.9" y2="58.78" xlink:href="#linear-gradient"/><linearGradient id="New_Gradient_Swatch_copy_35-2" x1="254.43" y1="-4.54" x2="235.09" y2="45.37" xlink:href="#New_Gradient_Swatch_copy_35"/><radialGradient id="Radial_Gradient_1-2" cx="241.8" cy="36.17" r="20.72" xlink:href="#Radial_Gradient_1"/><radialGradient id="radial-gradient" cx="1024.17" cy="-3497.76" r="12.31" gradientTransform="translate(-965.48 2135.01) scale(1.18 0.6)" gradientUnits="userSpaceOnUse"><stop offset="0.19" stop-color="#5f5c5d"/><stop offset="1" stop-color="#fff"/></radialGradient><linearGradient id="New_Gradient_Swatch_copy_23" x1="285.13" y1="29.5" x2="308.52" y2="29.5" gradientTransform="translate(-54.82)" gradientUnits="userSpaceOnUse"><stop offset="0.01" stop-color="#c1a1d5"/><stop offset="0.05" stop-color="#c8abda"/><stop offset="0.11" stop-color="#dac6e6"/><stop offset="0.2" stop-color="#f7f2f9"/><stop offset="0.22" stop-color="#fff"/><stop offset="0.25" stop-color="#f9f5fb"/><stop offset="0.3" stop-color="#e9dbf2"/><stop offset="0.36" stop-color="#d1b4e3"/><stop offset="0.43" stop-color="#b395d6"/><stop offset="0.49" stop-color="#9c7dcb"/><stop offset="0.56" stop-color="#8e6ec5"/><stop offset="0.61" stop-color="#8969c3"/><stop offset="0.76" stop-color="#9471c6"/><stop offset="1" stop-color="#b086cc"/></linearGradient><linearGradient id="New_Gradient_Swatch_copy_35-3" x1="4920.19" y1="8.77" x2="4939.01" y2="28.96" gradientTransform="matrix(-1, 0, 0, 1, 5176.22, 0)" xlink:href="#New_Gradient_Swatch_copy_35"/><linearGradient id="New_Gradient_Swatch_copy_23-2" x1="250.76" y1="22.62" x2="232.4" y2="22.62" gradientTransform="matrix(1, 0, 0, 1, 0, 0)" xlink:href="#New_Gradient_Swatch_copy_23"/><radialGradient id="Radial_Gradient_1-3" cx="238.26" cy="29.7" r="8.76" xlink:href="#Radial_Gradient_1"/><linearGradient id="New_Gradient_Swatch_copy_42" x1="215.54" y1="88.4" x2="253.64" y2="88.4" xlink:href="#linear-gradient-2"/><linearGradient id="New_Gradient_Swatch_copy_42-2" x1="215.54" y1="78.07" x2="253.64" y2="78.07" xlink:href="#linear-gradient-2"/><linearGradient id="New_Gradient_Swatch_copy_42-3" x1="215.54" y1="67.74" x2="253.64" y2="67.74" xlink:href="#linear-gradient-2"/><linearGradient id="New_Gradient_Swatch_copy_42-4" x1="215.54" y1="57.4" x2="253.64" y2="57.4" xlink:href="#linear-gradient-2"/><linearGradient id="New_Gradient_Swatch_copy_42-5" x1="215.54" y1="47.07" x2="253.64" y2="47.07" xlink:href="#linear-gradient-2"/><linearGradient id="linear-gradient-5" x1="258.92" y1="124.35" x2="315.12" y2="124.35" xlink:href="#linear-gradient"/><linearGradient id="New_Gradient_Swatch_copy_35-4" x1="299.64" y1="86.88" x2="280.31" y2="136.79" xlink:href="#New_Gradient_Swatch_copy_35"/><radialGradient id="Radial_Gradient_1-4" cx="287.02" cy="127.59" r="20.72" xlink:href="#Radial_Gradient_1"/><linearGradient id="linear-gradient-6" x1="261.02" y1="116.06" x2="313.02" y2="116.06" xlink:href="#linear-gradient-2"/><linearGradient id="linear-gradient-7" x1="261.02" y1="114.86" x2="313.02" y2="114.86" xlink:href="#linear-gradient-3"/><linearGradient id="linear-gradient-8" x1="258.92" y1="84.01" x2="315.12" y2="84.01" xlink:href="#linear-gradient"/><linearGradient id="New_Gradient_Swatch_copy_35-5" x1="299.64" y1="20.69" x2="280.31" y2="70.6" xlink:href="#New_Gradient_Swatch_copy_35"/><radialGradient id="Radial_Gradient_1-5" cx="287.02" cy="61.39" r="20.72" xlink:href="#Radial_Gradient_1"/><radialGradient id="radial-gradient-2" cx="1062.46" cy="-3455.87" r="12.31" xlink:href="#radial-gradient"/><linearGradient id="New_Gradient_Swatch_copy_23-3" x1="330.34" y1="54.73" x2="353.73" y2="54.73" xlink:href="#New_Gradient_Swatch_copy_23"/><linearGradient id="New_Gradient_Swatch_copy_35-6" x1="4874.97" y1="34" x2="4893.8" y2="54.18" gradientTransform="matrix(-1, 0, 0, 1, 5176.22, 0)" xlink:href="#New_Gradient_Swatch_copy_35"/><linearGradient id="New_Gradient_Swatch_copy_23-4" x1="295.98" y1="47.84" x2="277.61" y2="47.84" gradientTransform="matrix(1, 0, 0, 1, 0, 0)" xlink:href="#New_Gradient_Swatch_copy_23"/><radialGradient id="Radial_Gradient_1-6" cx="283.48" cy="54.92" r="8.76" xlink:href="#Radial_Gradient_1"/><linearGradient id="linear-gradient-9" x1="4044.84" y1="77.49" x2="4060.33" y2="51.43" gradientTransform="matrix(-1, 0, 0, 1, 4319.51, 0)" xlink:href="#linear-gradient-2"/><linearGradient id="linear-gradient-10" x1="4044.84" y1="94.36" x2="4060.33" y2="68.3" gradientTransform="matrix(-1, 0, 0, 1, 4319.51, 0)" xlink:href="#linear-gradient-2"/><linearGradient id="linear-gradient-11" x1="4044.84" y1="110.36" x2="4060.33" y2="84.3" gradientTransform="matrix(-1, 0, 0, 1, 4319.51, 0)" xlink:href="#linear-gradient-2"/><radialGradient id="radial-gradient-3" cx="-6506.03" cy="1791.07" r="26.08" gradientTransform="translate(2369.4 -2755.71) scale(0.32 1.58)" gradientUnits="userSpaceOnUse"><stop offset="0" stop-color="#972a74"/><stop offset="0.04" stop-color="#8a266a"/><stop offset="0.19" stop-color="#601b4a"/><stop offset="0.35" stop-color="#3d112f"/><stop offset="0.51" stop-color="#230a1b"/><stop offset="0.67" stop-color="#0f040c"/><stop offset="0.83" stop-color="#040103"/><stop offset="1"/></radialGradient><linearGradient id="linear-gradient-12" x1="304.53" y1="151.21" x2="360.74" y2="151.21" xlink:href="#linear-gradient"/><linearGradient id="New_Gradient_Swatch_copy_35-7" x1="345.26" y1="113.74" x2="325.93" y2="163.65" xlink:href="#New_Gradient_Swatch_copy_35"/><radialGradient id="Radial_Gradient_1-7" cx="332.63" cy="154.45" r="20.72" xlink:href="#Radial_Gradient_1"/><linearGradient id="linear-gradient-13" x1="306.64" y1="142.92" x2="358.64" y2="142.92" xlink:href="#linear-gradient-2"/><linearGradient id="linear-gradient-14" x1="306.64" y1="141.72" x2="358.64" y2="141.72" xlink:href="#linear-gradient-3"/><linearGradient id="linear-gradient-15" x1="304.53" y1="110.87" x2="360.74" y2="110.87" xlink:href="#linear-gradient"/><linearGradient id="New_Gradient_Swatch_copy_35-8" x1="345.26" y1="47.55" x2="325.93" y2="97.45" xlink:href="#New_Gradient_Swatch_copy_35"/><radialGradient id="Radial_Gradient_1-8" cx="332.63" cy="88.25" r="20.72" xlink:href="#Radial_Gradient_1"/><radialGradient id="radial-gradient-4" cx="1101.08" cy="-3411.27" r="12.31" xlink:href="#radial-gradient"/><linearGradient id="New_Gradient_Swatch_copy_23-5" x1="375.96" y1="81.59" x2="399.35" y2="81.59" xlink:href="#New_Gradient_Swatch_copy_23"/><linearGradient id="New_Gradient_Swatch_copy_35-9" x1="4829.35" y1="60.86" x2="4848.18" y2="81.04" gradientTransform="matrix(-1, 0, 0, 1, 5176.22, 0)" xlink:href="#New_Gradient_Swatch_copy_35"/><linearGradient id="New_Gradient_Swatch_copy_23-6" x1="341.59" y1="74.7" x2="323.23" y2="74.7" gradientTransform="matrix(1, 0, 0, 1, 0, 0)" xlink:href="#New_Gradient_Swatch_copy_23"/><radialGradient id="Radial_Gradient_1-9" cx="329.09" cy="81.78" r="8.76" xlink:href="#Radial_Gradient_1"/><linearGradient id="New_Gradient_Swatch_copy_42-6" x1="307.12" y1="130.71" x2="357.46" y2="130.71" xlink:href="#linear-gradient-2"/><linearGradient id="New_Gradient_Swatch_copy_42-7" x1="306.79" y1="98.76" x2="349.31" y2="98.76" xlink:href="#linear-gradient-2"/><linearGradient id="New_Gradient_Swatch_copy_42-8" x1="306.79" y1="109.92" x2="349.31" y2="109.92" xlink:href="#linear-gradient-2"/><linearGradient id="New_Gradient_Swatch_copy_25" x1="304.5" y1="129.75" x2="341.08" y2="118.8" gradientUnits="userSpaceOnUse"><stop offset="0" stop-color="#25054d"/><stop offset="1" stop-color="#45108a"/></linearGradient><linearGradient id="New_Gradient_Swatch_copy_25-2" x1="292.55" y1="134.07" x2="308.06" y2="130.59" xlink:href="#New_Gradient_Swatch_copy_25"/><linearGradient id="New_Gradient_Swatch_copy_25-3" x1="319.71" y1="94.96" x2="305.74" y2="121.58" xlink:href="#New_Gradient_Swatch_copy_25"/><radialGradient id="radial-gradient-5" cx="-6363.48" cy="1808.02" r="26.08" xlink:href="#radial-gradient-3"/><linearGradient id="New_Gradient_Swatch_copy_26" x1="320.5" y1="135.27" x2="334.88" y2="130.96" gradientUnits="userSpaceOnUse"><stop offset="0.03" stop-color="#7c1dc9"/><stop offset="0.21" stop-color="#6e41d2"/><stop offset="0.62" stop-color="#4c9be8"/><stop offset="1" stop-color="#2af6ff"/></linearGradient><linearGradient id="New_Gradient_Swatch_copy_26-2" x1="282.49" y1="137.1" x2="343.69" y2="123.38" xlink:href="#New_Gradient_Swatch_copy_26"/><linearGradient id="New_Gradient_Swatch_copy_26-3" x1="315.35" y1="114.86" x2="312.96" y2="119.42" xlink:href="#New_Gradient_Swatch_copy_26"/><linearGradient id="New_Gradient_Swatch_copy_26-4" x1="317.17" y1="137.43" x2="331.55" y2="133.13" xlink:href="#New_Gradient_Swatch_copy_26"/><linearGradient id="New_Gradient_Swatch_copy_26-5" x1="279.16" y1="139.27" x2="340.36" y2="125.55" xlink:href="#New_Gradient_Swatch_copy_26"/><linearGradient id="New_Gradient_Swatch_copy_26-6" x1="312.01" y1="117.03" x2="309.62" y2="121.58" xlink:href="#New_Gradient_Swatch_copy_26"/><linearGradient id="New_Gradient_Swatch_copy_25-4" x1="308.35" y1="145.68" x2="347.74" y2="133.88" xlink:href="#New_Gradient_Swatch_copy_25"/><linearGradient id="New_Gradient_Swatch_copy_25-5" x1="306.72" y1="146.9" x2="322.23" y2="143.42" xlink:href="#New_Gradient_Swatch_copy_25"/><linearGradient id="New_Gradient_Swatch_copy_25-6" x1="333.87" y1="107.79" x2="319.91" y2="134.41" xlink:href="#New_Gradient_Swatch_copy_25"/><linearGradient id="New_Gradient_Swatch_copy_35-10" x1="313.39" y1="142.74" x2="329.98" y2="137.77" xlink:href="#New_Gradient_Swatch_copy_35"/><linearGradient id="New_Gradient_Swatch_copy_35-11" x1="269.53" y1="144.86" x2="340.15" y2="129.03" xlink:href="#New_Gradient_Swatch_copy_35"/><linearGradient id="New_Gradient_Swatch_copy_35-12" x1="307.44" y1="119.2" x2="304.68" y2="124.46" xlink:href="#New_Gradient_Swatch_copy_35"/><linearGradient id="linear-gradient-16" x1="4013.55" y1="132.72" x2="4029.05" y2="106.66" gradientTransform="matrix(-1, 0, 0, 1, 4319.51, 0)" xlink:href="#linear-gradient-2"/><linearGradient id="linear-gradient-17" x1="6.93" y1="187.88" x2="125.82" y2="187.88" xlink:href="#linear-gradient"/><linearGradient id="New_Gradient_Swatch_copy_35-13" x1="93.08" y1="109.68" x2="52.18" y2="215.26" xlink:href="#New_Gradient_Swatch_copy_35"/><radialGradient id="Radial_Gradient_1-10" cx="66.37" cy="195.78" r="43.84" xlink:href="#Radial_Gradient_1"/><linearGradient id="New_Gradient_Swatch_copy_16" x1="10.36" y1="100.69" x2="122.39" y2="100.69" gradientUnits="userSpaceOnUse"><stop offset="0.04" stop-color="#1bb0d4"/><stop offset="0.2" stop-color="#1ebfdd"/><stop offset="0.53" stop-color="#27e8f6"/><stop offset="0.63" stop-color="#2af6ff"/><stop offset="0.87" stop-color="#1bb0d4"/></linearGradient><radialGradient id="radial-gradient-6" cx="876.03" cy="-3251.21" r="41.97" xlink:href="#radial-gradient"/><linearGradient id="New_Gradient_Swatch_copy_23-7" x1="79.23" y1="180.86" x2="162.21" y2="180.86" xlink:href="#New_Gradient_Swatch_copy_23"/><linearGradient id="New_Gradient_Swatch_copy_35-14" x1="5060.55" y1="109.17" x2="5127.34" y2="180.78" gradientTransform="matrix(-1, 0, 0, 1, 5176.22, 0)" xlink:href="#New_Gradient_Swatch_copy_35"/><radialGradient id="Radial_Gradient_1-11" cx="52.64" cy="183.41" r="31.09" xlink:href="#Radial_Gradient_1"/><linearGradient id="linear-gradient-18" x1="82.1" y1="166" x2="159.37" y2="166" gradientTransform="translate(-54.82)" gradientUnits="userSpaceOnUse"><stop offset="0" stop-color="#25054d"/><stop offset="0.22" stop-color="#45108a"/><stop offset="0.42" stop-color="#25054d"/><stop offset="0.56" stop-color="#270651"/><stop offset="0.7" stop-color="#2e085e"/><stop offset="0.84" stop-color="#390c73"/><stop offset="0.96" stop-color="#45108a"/></linearGradient><linearGradient id="linear-gradient-19" x1="82.1" y1="164.14" x2="159.37" y2="164.14" gradientTransform="translate(-54.82)" xlink:href="#linear-gradient-3"/><linearGradient id="New_Gradient_Swatch_copy_23-8" x1="79.23" y1="157.79" x2="162.21" y2="157.79" xlink:href="#New_Gradient_Swatch_copy_23"/><linearGradient id="New_Gradient_Swatch_copy_35-15" x1="5060.55" y1="86.1" x2="5127.34" y2="157.71" gradientTransform="matrix(-1, 0, 0, 1, 5176.22, 0)" xlink:href="#New_Gradient_Swatch_copy_35"/><radialGradient id="Radial_Gradient_1-12" cx="52.64" cy="160.34" r="31.09" xlink:href="#Radial_Gradient_1"/><linearGradient id="linear-gradient-20" x1="82.1" y1="142.93" x2="159.37" y2="142.93" xlink:href="#linear-gradient-18"/><linearGradient id="linear-gradient-21" x1="82.1" y1="141.07" x2="159.37" y2="141.07" gradientTransform="translate(-54.82)" xlink:href="#linear-gradient-3"/><linearGradient id="New_Gradient_Swatch_copy_23-9" x1="79.23" y1="135.36" x2="162.21" y2="135.36" xlink:href="#New_Gradient_Swatch_copy_23"/><linearGradient id="New_Gradient_Swatch_copy_35-16" x1="5060.55" y1="63.67" x2="5127.34" y2="135.28" gradientTransform="matrix(-1, 0, 0, 1, 5176.22, 0)" xlink:href="#New_Gradient_Swatch_copy_35"/><radialGradient id="Radial_Gradient_1-13" cx="52.64" cy="137.91" r="31.09" xlink:href="#Radial_Gradient_1"/><linearGradient id="linear-gradient-22" x1="82.1" y1="120.5" x2="159.37" y2="120.5" xlink:href="#linear-gradient-18"/><linearGradient id="linear-gradient-23" x1="82.1" y1="118.64" x2="159.37" y2="118.64" gradientTransform="translate(-54.82)" xlink:href="#linear-gradient-3"/><linearGradient id="New_Gradient_Swatch_copy_23-10" x1="79.23" y1="112.68" x2="162.21" y2="112.68" xlink:href="#New_Gradient_Swatch_copy_23"/><linearGradient id="New_Gradient_Swatch_copy_35-17" x1="5060.55" y1="40.99" x2="5127.34" y2="112.6" gradientTransform="matrix(-1, 0, 0, 1, 5176.22, 0)" xlink:href="#New_Gradient_Swatch_copy_35"/><radialGradient id="Radial_Gradient_1-14" cx="52.64" cy="115.23" r="31.09" xlink:href="#Radial_Gradient_1"/><linearGradient id="linear-gradient-24" x1="82.1" y1="97.82" x2="159.37" y2="97.82" xlink:href="#linear-gradient-18"/><linearGradient id="linear-gradient-25" x1="82.1" y1="95.96" x2="159.37" y2="95.96" gradientTransform="translate(-54.82)" xlink:href="#linear-gradient-3"/><linearGradient id="New_Gradient_Swatch_copy_23-11" x1="79.23" y1="90.7" x2="162.21" y2="90.7" xlink:href="#New_Gradient_Swatch_copy_23"/><linearGradient id="New_Gradient_Swatch_copy_35-18" x1="5060.55" y1="19.02" x2="5127.34" y2="90.63" gradientTransform="matrix(-1, 0, 0, 1, 5176.22, 0)" xlink:href="#New_Gradient_Swatch_copy_35"/><radialGradient id="Radial_Gradient_1-15" cx="52.64" cy="93.26" r="31.09" xlink:href="#Radial_Gradient_1"/><linearGradient id="linear-gradient-26" x1="82.1" y1="75.84" x2="159.37" y2="75.84" xlink:href="#linear-gradient-18"/><linearGradient id="linear-gradient-27" x1="82.1" y1="73.98" x2="159.37" y2="73.98" gradientTransform="translate(-54.82)" xlink:href="#linear-gradient-3"/><linearGradient id="New_Gradient_Swatch_copy_23-12" x1="79.23" y1="68.03" x2="162.21" y2="68.03" xlink:href="#New_Gradient_Swatch_copy_23"/><linearGradient id="New_Gradient_Swatch_copy_35-19" x1="5060.55" y1="-3.66" x2="5127.34" y2="67.95" gradientTransform="matrix(-1, 0, 0, 1, 5176.22, 0)" xlink:href="#New_Gradient_Swatch_copy_35"/><radialGradient id="Radial_Gradient_1-16" cx="52.64" cy="70.58" r="31.09" xlink:href="#Radial_Gradient_1"/><linearGradient id="New_Gradient_Swatch_copy_16-2" x1="10.36" y1="115.9" x2="122.39" y2="115.9" xlink:href="#New_Gradient_Swatch_copy_16"/><linearGradient id="linear-gradient-28" x1="6.93" y1="45.02" x2="125.82" y2="45.02" xlink:href="#linear-gradient"/><linearGradient id="New_Gradient_Swatch_copy_35-20" x1="93.08" y1="-33.19" x2="52.18" y2="72.39" xlink:href="#New_Gradient_Swatch_copy_35"/><radialGradient id="Radial_Gradient_1-17" cx="66.37" cy="52.92" r="43.84" xlink:href="#Radial_Gradient_1"/><linearGradient id="linear-gradient-29" x1="193.26" y1="41.25" x2="276.94" y2="41.25" gradientTransform="translate(-168.41)" xlink:href="#linear-gradient"/><linearGradient id="New_Gradient_Swatch_copy_35-21" x1="284.38" y1="-69.77" x2="228.11" y2="37.47" gradientTransform="translate(-168.41)" xlink:href="#New_Gradient_Swatch_copy_35"/><radialGradient id="Radial_Gradient_1-18" cx="235.11" cy="35.72" r="30.89" gradientTransform="translate(-168.41)" xlink:href="#Radial_Gradient_1"/><linearGradient id="New_Gradient_Swatch_copy_26-7" x1="95.47" y1="23.56" x2="36.53" y2="23.56" gradientTransform="translate(89.88 -43.25) rotate(89.69)" xlink:href="#New_Gradient_Swatch_copy_26"/><linearGradient id="New_Gradient_Swatch_copy_23-13" x1="94.84" y1="18.21" x2="36.34" y2="18.21" gradientTransform="matrix(1, 0, 0, 1, 0, 0)" xlink:href="#New_Gradient_Swatch_copy_23"/><linearGradient id="New_Gradient_Swatch_copy_35-22" x1="259.34" y1="-22.67" x2="231.66" y2="30.07" gradientTransform="translate(-168.41)" xlink:href="#New_Gradient_Swatch_copy_35"/><radialGradient id="Radial_Gradient_1-19" cx="228.83" cy="18.66" r="3.2" gradientTransform="translate(-168.41)" xlink:href="#Radial_Gradient_1"/><radialGradient id="Radial_Gradient_1-20" cx="223.15" cy="26.13" r="8" gradientTransform="translate(-168.41)" xlink:href="#Radial_Gradient_1"/><radialGradient id="Radial_Gradient_1-21" cx="238.64" cy="16.38" r="2.85" gradientTransform="translate(-168.41)" xlink:href="#Radial_Gradient_1"/><radialGradient id="Radial_Gradient_1-22" cx="248.34" cy="25.02" r="7.03" gradientTransform="translate(-168.41)" xlink:href="#Radial_Gradient_1"/><radialGradient id="Radial_Gradient_1-23" cx="236.53" cy="34.09" r="5.69" gradientTransform="translate(-168.41)" xlink:href="#Radial_Gradient_1"/><linearGradient id="linear-gradient-30" x1="226.1" y1="15.05" x2="226.09" y2="15.08" gradientTransform="translate(-168.41)" gradientUnits="userSpaceOnUse"><stop offset="0" stop-color="#2e085f"/><stop offset="0.56" stop-color="#45108a"/><stop offset="1" stop-color="#5213a3"/></linearGradient><linearGradient id="linear-gradient-31" x1="220.72" y1="19.29" x2="231.32" y2="19.29" gradientTransform="translate(-168.41)" xlink:href="#linear-gradient"/><linearGradient id="linear-gradient-32" x1="212.26" y1="23.56" x2="212.11" y2="23.84" xlink:href="#linear-gradient-30"/><linearGradient id="linear-gradient-33" x1="228.55" y1="17.54" x2="239.85" y2="17.54" gradientTransform="translate(-168.41)" xlink:href="#linear-gradient"/><linearGradient id="linear-gradient-34" x1="248.14" y1="26.57" x2="258.01" y2="26.57" gradientTransform="translate(-168.41)" xlink:href="#linear-gradient"/><linearGradient id="linear-gradient-35" x1="210.4" y1="27.83" x2="230.47" y2="27.83" gradientTransform="translate(-168.41)" xlink:href="#linear-gradient"/><linearGradient id="linear-gradient-36" x1="228.49" y1="35.2" x2="245.54" y2="35.2" gradientTransform="translate(-168.41)" xlink:href="#linear-gradient"/><linearGradient id="New_Gradient_Swatch_copy_35-23" x1="1383.33" y1="974.35" x2="1374.63" y2="990.92" gradientTransform="matrix(0.87, 0.5, -1, 0.58, -135.81, -1235.3)" xlink:href="#New_Gradient_Swatch_copy_35"/><radialGradient id="Radial_Gradient_1-24" cx="235.1" cy="24.95" r="4.04" gradientTransform="translate(-168.41)" xlink:href="#Radial_Gradient_1"/><radialGradient id="radial-gradient-7" cx="-7194.78" cy="1823.47" r="51.49" xlink:href="#radial-gradient-3"/><linearGradient id="New_Gradient_Swatch_copy_35-24" x1="73.09" y1="203.93" x2="110.16" y2="230.15" xlink:href="#New_Gradient_Swatch_copy_35"/><linearGradient id="New_Gradient_Swatch_copy_35-25" x1="97.78" y1="219.68" x2="146.55" y2="137.65" xlink:href="#New_Gradient_Swatch_copy_35"/><linearGradient id="New_Gradient_Swatch_copy_35-26" x1="2788.9" y1="186.85" x2="2780.58" y2="202.72" gradientTransform="matrix(-1, 0, 0, 1, 2883.99, 0)" xlink:href="#New_Gradient_Swatch_copy_35"/><linearGradient id="linear-gradient-37" x1="2781.23" y1="210.12" x2="2778.75" y2="205.83" gradientTransform="matrix(-1, 0, 0, 1, 2883.99, 0)" gradientUnits="userSpaceOnUse"><stop offset="0.29" stop-color="#838091"/><stop offset="0.47" stop-color="#a5a2b1"/><stop offset="0.59" stop-color="#b7b4c2"/><stop offset="0.81" stop-color="#9b98a7"/></linearGradient><linearGradient id="linear-gradient-38" x1="2778.71" y1="209.78" x2="2780.9" y2="206.01" gradientTransform="matrix(-1, 0, 0, 1, 2883.99, 0)" gradientUnits="userSpaceOnUse"><stop offset="0.04" stop-color="#9d9eb3"/><stop offset="0.58" stop-color="#d4d1d8"/><stop offset="1" stop-color="#eeebf2"/></linearGradient><linearGradient id="linear-gradient-39" x1="2780.15" y1="210.34" x2="2778.03" y2="206.65" gradientTransform="matrix(-1, 0, 0, 1, 2883.99, 0)" gradientUnits="userSpaceOnUse"><stop offset="0.17" stop-color="#838091"/><stop offset="0.42" stop-color="#a5a2b1"/><stop offset="0.59" stop-color="#b7b4c2"/><stop offset="0.91" stop-color="#9b98a7"/></linearGradient><linearGradient id="linear-gradient-40" x1="2777.82" y1="210.14" x2="2779.7" y2="206.91" xlink:href="#linear-gradient-38"/><radialGradient id="radial-gradient-8" cx="2779.17" cy="208.49" r="1.53" gradientTransform="matrix(-1, 0, 0, 1, 2883.99, 0)" xlink:href="#Radial_Gradient_1"/><linearGradient id="linear-gradient-41" x1="2787.05" y1="213.47" x2="2784.57" y2="209.18" xlink:href="#linear-gradient-37"/><linearGradient id="linear-gradient-42" x1="2784.53" y1="213.13" x2="2786.72" y2="209.36" xlink:href="#linear-gradient-38"/><linearGradient id="linear-gradient-43" x1="2785.97" y1="213.68" x2="2783.85" y2="210" xlink:href="#linear-gradient-39"/><linearGradient id="linear-gradient-44" x1="2783.64" y1="213.49" x2="2785.52" y2="210.25" xlink:href="#linear-gradient-38"/><radialGradient id="radial-gradient-9" cx="2784.99" cy="211.83" r="1.53" gradientTransform="matrix(-1, 0, 0, 1, 2883.99, 0)" xlink:href="#Radial_Gradient_1"/><linearGradient id="linear-gradient-45" x1="2775.31" y1="206.77" x2="2772.83" y2="202.48" xlink:href="#linear-gradient-37"/><linearGradient id="linear-gradient-46" x1="2772.79" y1="206.43" x2="2774.98" y2="202.66" xlink:href="#linear-gradient-38"/><linearGradient id="linear-gradient-47" x1="2774.23" y1="206.98" x2="2772.1" y2="203.3" xlink:href="#linear-gradient-39"/><linearGradient id="linear-gradient-48" x1="2771.9" y1="206.79" x2="2773.78" y2="203.55" xlink:href="#linear-gradient-38"/><radialGradient id="radial-gradient-10" cx="2773.25" cy="205.13" r="1.53" gradientTransform="matrix(-1, 0, 0, 1, 2883.99, 0)" xlink:href="#Radial_Gradient_1"/><linearGradient id="New_Gradient_Swatch_copy_35-27" x1="4274.44" y1="148.25" x2="4356.15" y2="10.81" gradientTransform="matrix(-1, 0, 0, 1, 4319.51, 0)" xlink:href="#New_Gradient_Swatch_copy_35"/><linearGradient id="New_Gradient_Swatch_copy_26-8" x1="45.54" y1="140.14" x2="28.26" y2="109.7" xlink:href="#New_Gradient_Swatch_copy_26"/><linearGradient id="New_Gradient_Swatch_copy_26-9" x1="-406.19" y1="1898.83" x2="-407.9" y2="1895.81" gradientTransform="matrix(0.87, 0.5, 0, 1.15, 379.92, -1857.23)" xlink:href="#New_Gradient_Swatch_copy_26"/><linearGradient id="New_Gradient_Swatch_copy_26-10" x1="-399.09" y1="1898.83" x2="-400.8" y2="1895.81" gradientTransform="matrix(0.87, 0.5, 0, 1.15, 379.92, -1857.23)" xlink:href="#New_Gradient_Swatch_copy_26"/><linearGradient id="New_Gradient_Swatch_copy_26-11" x1="-391.99" y1="1898.83" x2="-393.7" y2="1895.81" gradientTransform="matrix(0.87, 0.5, 0, 1.15, 379.92, -1857.23)" xlink:href="#New_Gradient_Swatch_copy_26"/><linearGradient id="New_Gradient_Swatch_copy_26-12" x1="-406.19" y1="1902.93" x2="-407.9" y2="1899.92" gradientTransform="matrix(0.87, 0.5, 0, 1.15, 379.92, -1857.23)" xlink:href="#New_Gradient_Swatch_copy_26"/><linearGradient id="New_Gradient_Swatch_copy_26-13" x1="-399.09" y1="1902.93" x2="-400.8" y2="1899.92" gradientTransform="matrix(0.87, 0.5, 0, 1.15, 379.92, -1857.23)" xlink:href="#New_Gradient_Swatch_copy_26"/><linearGradient id="New_Gradient_Swatch_copy_26-14" x1="-391.99" y1="1902.93" x2="-393.7" y2="1899.92" gradientTransform="matrix(0.87, 0.5, 0, 1.15, 379.92, -1857.23)" xlink:href="#New_Gradient_Swatch_copy_26"/><linearGradient id="New_Gradient_Swatch_copy_26-15" x1="-406.19" y1="1906.94" x2="-407.9" y2="1903.93" gradientTransform="matrix(0.87, 0.5, 0, 1.15, 379.92, -1857.23)" xlink:href="#New_Gradient_Swatch_copy_26"/><linearGradient id="New_Gradient_Swatch_copy_26-16" x1="-399.09" y1="1906.94" x2="-400.8" y2="1903.93" gradientTransform="matrix(0.87, 0.5, 0, 1.15, 379.92, -1857.23)" xlink:href="#New_Gradient_Swatch_copy_26"/><linearGradient id="New_Gradient_Swatch_copy_26-17" x1="-391.99" y1="1906.94" x2="-393.7" y2="1903.93" gradientTransform="matrix(0.87, 0.5, 0, 1.15, 379.92, -1857.23)" xlink:href="#New_Gradient_Swatch_copy_26"/><linearGradient id="linear-gradient-49" x1="215.95" y1="149.28" x2="272.97" y2="149.28" gradientTransform="translate(106.51 -101.75) rotate(29.8)" gradientUnits="userSpaceOnUse"><stop offset="0.02" stop-color="#ffa98c"/><stop offset="0.07" stop-color="#c46aa7"/><stop offset="0.13" stop-color="#9033c0"/><stop offset="0.16" stop-color="#7c1dc9"/><stop offset="0.32" stop-color="#6e41d2"/><stop offset="0.67" stop-color="#4c9be8"/><stop offset="1" stop-color="#2af6ff"/></linearGradient><linearGradient id="linear-gradient-50" x1="171.57" y1="123.69" x2="228.59" y2="123.69" gradientTransform="translate(87.93 -83.08) rotate(29.8)" xlink:href="#linear-gradient-49"/><linearGradient id="linear-gradient-51" x1="220.23" y1="167.91" x2="318.73" y2="167.91" gradientTransform="matrix(1, 0, 0, 1, 0, 0)" xlink:href="#linear-gradient-49"/><radialGradient id="New_Gradient_Swatch_copy_3" cx="198.63" cy="205.61" r="27.69" gradientUnits="userSpaceOnUse"><stop offset="0" stop-color="#231f20"/><stop offset="0.06" stop-color="#4a4747"/><stop offset="0.14" stop-color="#747272"/><stop offset="0.22" stop-color="#9a9898"/><stop offset="0.3" stop-color="#b9b8b8"/><stop offset="0.4" stop-color="#d3d2d2"/><stop offset="0.5" stop-color="#e6e6e6"/><stop offset="0.62" stop-color="#f4f4f4"/><stop offset="0.76" stop-color="#fdfdfd"/><stop offset="1" stop-color="#fff"/></radialGradient><linearGradient id="linear-gradient-52" x1="172.08" y1="90.46" x2="230.01" y2="192.44" gradientUnits="userSpaceOnUse"><stop offset="0" stop-color="#18065f"/><stop offset="0.07" stop-color="#8a6eb3"/><stop offset="0.08" stop-color="#ae90a7"/><stop offset="0.1" stop-color="#ceae9d"/><stop offset="0.11" stop-color="#e5c496"/><stop offset="0.13" stop-color="#f2d192"/><stop offset="0.14" stop-color="#f7d590"/><stop offset="0.22" stop-color="#fae59a"/><stop offset="0.32" stop-color="#fdf2a3"/><stop offset="0.41" stop-color="#fef7a6"/><stop offset="0.55" stop-color="#f9e296"/><stop offset="0.69" stop-color="#f5d38b"/><stop offset="0.81" stop-color="#f4ce87"/></linearGradient><linearGradient id="linear-gradient-53" x1="183.83" y1="83.79" x2="241.76" y2="185.75" gradientUnits="userSpaceOnUse"><stop offset="0.06" stop-color="#f7c290"/><stop offset="0.17" stop-color="#fbd59b"/><stop offset="0.3" stop-color="#fde2a3"/><stop offset="0.41" stop-color="#fee7a6"/><stop offset="0.55" stop-color="#f9d095"/><stop offset="0.69" stop-color="#f5c18b"/><stop offset="0.81" stop-color="#f4bc87"/></linearGradient><linearGradient id="linear-gradient-54" x1="175.13" y1="94.78" x2="234.47" y2="167.87" gradientUnits="userSpaceOnUse"><stop offset="0.01" stop-color="#f7d590"/><stop offset="0.25" stop-color="#f9db96"/><stop offset="0.56" stop-color="#feeca6"/><stop offset="1" stop-color="#f4c187"/></linearGradient><radialGradient id="radial-gradient-11" cx="166.98" cy="88.54" r="27.27" gradientUnits="userSpaceOnUse"><stop offset="0" stop-color="#ffe9a7"/><stop offset="0.04" stop-color="#e9d598"/><stop offset="0.15" stop-color="#b3a375"/><stop offset="0.26" stop-color="#837856"/><stop offset="0.37" stop-color="#5b533b"/><stop offset="0.49" stop-color="#3a3526"/><stop offset="0.6" stop-color="#201e15"/><stop offset="0.73" stop-color="#0e0d09"/><stop offset="0.85" stop-color="#030302"/><stop offset="1"/></radialGradient><linearGradient id="New_Gradient_Swatch_copy_10" x1="259.1" y1="135.18" x2="122.35" y2="51.86" gradientTransform="matrix(1, 0, 0, 1, 0, 0)" xlink:href="#linear-gradient-38"/><radialGradient id="radial-gradient-12" cx="156.39" cy="133.03" r="54.6" gradientUnits="userSpaceOnUse"><stop offset="0" stop-color="#f49587"/><stop offset="0.12" stop-color="#bd7368"/><stop offset="0.24" stop-color="#8b554d"/><stop offset="0.36" stop-color="#603b35"/><stop offset="0.48" stop-color="#3e2622"/><stop offset="0.61" stop-color="#231513"/><stop offset="0.74" stop-color="#0f0908"/><stop offset="0.86" stop-color="#040202"/><stop offset="1"/></radialGradient><radialGradient id="radial-gradient-13" cx="199.54" cy="165.5" r="66.71" xlink:href="#radial-gradient-12"/><linearGradient id="New_Gradient_Swatch_copy_10-2" x1="181.11" y1="96.36" x2="135.19" y2="68.39" gradientTransform="matrix(1, 0, 0, 1, 0, 0)" xlink:href="#linear-gradient-38"/><linearGradient id="New_Gradient_Swatch_copy_10-3" x1="225.64" y1="111.17" x2="128.87" y2="80.19" gradientTransform="matrix(1, 0, 0, 1, 0, 0)" xlink:href="#linear-gradient-38"/><linearGradient id="linear-gradient-55" x1="196.87" y1="106.07" x2="158.46" y2="82.67" gradientUnits="userSpaceOnUse"><stop offset="0" stop-color="#ffe4a7"/><stop offset="1"/></linearGradient><linearGradient id="linear-gradient-56" x1="257.13" y1="131.21" x2="150.05" y2="65.96" xlink:href="#linear-gradient-55"/><linearGradient id="linear-gradient-57" x1="164.55" y1="94.74" x2="222.49" y2="196.71" gradientUnits="userSpaceOnUse"><stop offset="0.06" stop-color="#f7d590"/><stop offset="0.17" stop-color="#fbe99b"/><stop offset="0.3" stop-color="#fdf6a3"/><stop offset="0.41" stop-color="#fefba6"/><stop offset="0.55" stop-color="#f9e495"/><stop offset="0.69" stop-color="#f5d58b"/><stop offset="0.81" stop-color="#f4d087"/></linearGradient><linearGradient id="linear-gradient-58" x1="169.05" y1="100.84" x2="225.64" y2="170.54" gradientUnits="userSpaceOnUse"><stop offset="0.01" stop-color="#f7c990"/><stop offset="0.18" stop-color="#f8cf93"/><stop offset="0.4" stop-color="#fbe19d"/><stop offset="0.56" stop-color="#fef1a6"/><stop offset="0.56" stop-color="#fef1a6"/><stop offset="1" stop-color="#f4c187"/></linearGradient><radialGradient id="radial-gradient-14" cx="218.27" cy="143.19" r="64.86" gradientUnits="userSpaceOnUse"><stop offset="0.36" stop-color="#fff"/><stop offset="0.43" stop-color="#e1e1e1"/><stop offset="0.64" stop-color="#828282"/><stop offset="0.81" stop-color="#3c3c3c"/><stop offset="0.94" stop-color="#111"/><stop offset="1"/></radialGradient><linearGradient id="linear-gradient-59" x1="171.56" y1="107.17" x2="223.09" y2="223.36" gradientUnits="userSpaceOnUse"><stop offset="0" stop-color="#fff3a7"/><stop offset="0.11" stop-color="#fde8a0"/><stop offset="0.41" stop-color="#f8d092"/><stop offset="0.69" stop-color="#f5c18a"/><stop offset="0.92" stop-color="#f4bc87"/></linearGradient><radialGradient id="radial-gradient-15" cx="214.61" cy="214.38" r="53.14" gradientUnits="userSpaceOnUse"><stop offset="0" stop-color="#92402e"/><stop offset="1"/></radialGradient><radialGradient id="radial-gradient-16" cx="221.08" cy="214.55" r="27.01" gradientUnits="userSpaceOnUse"><stop offset="0" stop-color="#ff63ce"/><stop offset="1"/></radialGradient><radialGradient id="radial-gradient-17" cx="166.37" cy="-3113.99" r="37.13" gradientTransform="translate(0 5351.67) scale(1 1.66)" gradientUnits="userSpaceOnUse"><stop offset="0.14" stop-color="#25166d"/><stop offset="0.22" stop-color="#2c1d72"/><stop offset="0.34" stop-color="#3e317e"/><stop offset="0.48" stop-color="#5d5293"/><stop offset="0.64" stop-color="#887faf"/><stop offset="0.82" stop-color="#bebad4"/><stop offset="1" stop-color="#fff"/></radialGradient><linearGradient id="linear-gradient-60" x1="213.78" y1="158.88" x2="184.11" y2="159.38" gradientTransform="matrix(1, 0, 0, 1, 0, 0)" xlink:href="#linear-gradient-49"/><linearGradient id="linear-gradient-61" x1="176.43" y1="141.82" x2="193.06" y2="170.01" xlink:href="#linear-gradient-57"/><linearGradient id="New_Gradient_Swatch_1" x1="179.87" y1="98.34" x2="165.28" y2="111.3" xlink:href="#Radial_Gradient_1"/><linearGradient id="New_Gradient_Swatch_1-2" x1="229.62" y1="124.87" x2="210.08" y2="144.53" xlink:href="#Radial_Gradient_1"/><linearGradient id="New_Gradient_Swatch_copy_10-4" x1="253.16" y1="121.14" x2="130.79" y2="46.58" gradientTransform="matrix(1, 0, 0, 1, 0, 0)" xlink:href="#linear-gradient-38"/><radialGradient id="radial-gradient-18" cx="156.39" cy="111.09" r="54.52" xlink:href="#radial-gradient-12"/><radialGradient id="radial-gradient-19" cx="199.54" cy="142.69" r="64.2" xlink:href="#radial-gradient-12"/><linearGradient id="New_Gradient_Swatch_copy_10-5" x1="179.74" y1="85.11" x2="148.2" y2="65.9" gradientTransform="matrix(1, 0, 0, 1, 0, 0)" xlink:href="#linear-gradient-38"/><linearGradient id="New_Gradient_Swatch_copy_10-6" x1="223.81" y1="100.17" x2="135.52" y2="71.9" gradientTransform="matrix(1, 0, 0, 1, 0, 0)" xlink:href="#linear-gradient-38"/><linearGradient id="linear-gradient-62" x1="190.93" y1="92.03" x2="166.9" y2="77.39" xlink:href="#linear-gradient-55"/><linearGradient id="linear-gradient-63" x1="251.19" y1="117.17" x2="158.49" y2="60.68" xlink:href="#linear-gradient-55"/><linearGradient id="linear-gradient-64" x1="179.93" y1="54.89" x2="186.01" y2="64.92" xlink:href="#linear-gradient-55"/><linearGradient id="linear-gradient-65" x1="216.97" y1="72.89" x2="152.14" y2="95.38" xlink:href="#linear-gradient-55"/><linearGradient id="New_Gradient_Swatch_copy_26-18" x1="111.58" y1="178.51" x2="189.18" y2="178.51" xlink:href="#New_Gradient_Swatch_copy_26"/><linearGradient id="New_Gradient_Swatch_copy_26-19" x1="99.81" y1="187.68" x2="189.18" y2="187.68" xlink:href="#New_Gradient_Swatch_copy_26"/><linearGradient id="New_Gradient_Swatch_copy_26-20" x1="105.68" y1="183.1" x2="189.18" y2="183.1" xlink:href="#New_Gradient_Swatch_copy_26"/></defs><title>safe_data</title><g class="cls-1"><g id="Layer_2" data-name="Layer 2"><g id="Layer_1-2" data-name="Layer 1"><g class="cls-2"><path class="cls-3" d="M241.51,121.85a11.13,11.13,0,0,1-5.54-1.33L213.6,106.87a5.85,5.85,0,0,1-3.17-5.06c0-2.25,1.39-4.34,3.82-5.74l33.26-19.2a13.61,13.61,0,0,1,6.72-1.71,11.12,11.12,0,0,1,5.53,1.33l22.37,13.65a5.87,5.87,0,0,1,3.18,5.06c0,2.25-1.4,4.34-3.83,5.74l-33.25,19.2A13.56,13.56,0,0,1,241.51,121.85Z"/><path class="cls-4" d="M246.6,77.71a13.43,13.43,0,0,1,6.68-1.66,12.25,12.25,0,0,1,3,.39,10.32,10.32,0,0,1,2.5,1l21.49,13.11L281,91a5.39,5.39,0,0,1,2.77,5,7.2,7.2,0,0,1-3.82,5.43l-29.62,17.16S248,120,247.91,120a13.3,13.3,0,0,1-6.48,1.6,10.78,10.78,0,0,1-5.33-1.29L214,106.83l-.29-.17a5.34,5.34,0,0,1-2.8-5.06,7.15,7.15,0,0,1,3.79-5.41Z"/><path class="cls-5" d="M245.69,78.56a13.11,13.11,0,0,1,6.65-1.62,12.94,12.94,0,0,1,2.94.43,12.74,12.74,0,0,1,2.47,1l21.36,13s.71.43.74.46a4.94,4.94,0,0,1,2.36,5,7.72,7.72,0,0,1-3.8,5.11l-28.48,16.55c-.09.06-2.22,1.27-2.33,1.31a13.15,13.15,0,0,1-6.25,1.5,10.46,10.46,0,0,1-5.12-1.26l-22.14-13.5-.29-.18a4.88,4.88,0,0,1-2.43-5,7.62,7.62,0,0,1,3.76-5.09Z"/><path class="cls-6" d="M244.78,79.4a12.82,12.82,0,0,1,6.62-1.57,12.55,12.55,0,0,1,2.91.48,14.1,14.1,0,0,1,2.43,1.08l21.23,13c.07,0,.69.43.74.48a4.51,4.51,0,0,1,2,5,8.41,8.41,0,0,1-3.79,4.79l-27.34,16c-.13.08-2.08,1.19-2.24,1.24a12.83,12.83,0,0,1-6,1.39,10.06,10.06,0,0,1-4.92-1.21l-22.16-13.52-.29-.18a4.09,4.09,0,0,1-2.05-5c0-1.63,2-3.73,3.72-4.75Z"/><path class="cls-7" d="M243.87,80.25a12.43,12.43,0,0,1,6.58-1.52,12.09,12.09,0,0,1,2.88.51,17.2,17.2,0,0,1,2.41,1.12l21.1,12.87c.09.06.66.41.73.48a3.75,3.75,0,0,1,1.54,4.93c0,1.43-2.24,3.59-3.78,4.48l-26.19,15.34c-.18.1-2,1.1-2.16,1.17a12.55,12.55,0,0,1-5.78,1.29,9.87,9.87,0,0,1-4.72-1.17l-22.19-13.54L214,106c-2-1.24-2.61-3.21-1.68-5,0-1.43,2.15-3.53,3.69-4.42Z"/><path class="cls-8" d="M243,81.1a12.13,12.13,0,0,1,6.55-1.48,11.34,11.34,0,0,1,2.85.56,19.21,19.21,0,0,1,2.37,1.14l21,12.8c.11.07.63.4.72.48a3.44,3.44,0,0,1,1.13,4.9c0,1.23-2.45,3.4-3.77,4.16l-25,14.74c-.23.13-1.83,1-2.08,1.1a12.17,12.17,0,0,1-5.55,1.18,9.47,9.47,0,0,1-4.52-1.12L214.39,106l-.29-.18c-2-1.25-2.47-3.26-1.31-5,0-1.23,2.34-3.33,3.66-4.1Z"/><path class="cls-9" d="M242.05,81.94a12,12,0,0,1,6.52-1.43,11.44,11.44,0,0,1,2.82.61,23,23,0,0,1,2.33,1.17L274.57,95a7.5,7.5,0,0,1,.72.48,3.21,3.21,0,0,1,.72,4.87c0,1-2.66,3.21-3.76,3.85l-23.9,14.13c-.26.15-1.69.93-2,1a12.18,12.18,0,0,1-5.32,1.07,9.13,9.13,0,0,1-4.31-1.09l-22.24-13.57-.29-.18a3.2,3.2,0,0,1-.93-5c0-1,2.52-3.13,3.62-3.76Z"/><path class="cls-10" d="M241.14,82.79a10.93,10.93,0,0,1,9.28-.74c.33.11,2,1,2.3,1.2L273.44,95.9a5.5,5.5,0,0,1,.71.48,3,3,0,0,1,.31,4.84c0,.82-2.87,3-3.75,3.53L248,118.27a21.46,21.46,0,0,1-1.91,1,11.93,11.93,0,0,1-5.08,1,8.8,8.8,0,0,1-4.11-1l-22.27-13.59a2.82,2.82,0,0,1-.29-.18,3,3,0,0,1-.56-5c0-.81,2.71-2.92,3.6-3.43Z"/><path class="cls-11" d="M240.23,83.63a11.5,11.5,0,0,1,6.45-1.34,11.35,11.35,0,0,1,2.77.7c.24.09,2.06,1.11,2.26,1.23l20.6,12.56a5.41,5.41,0,0,1,.7.49c1.67,1.31,1.62,3.26-.1,4.81,0,.61-3.08,2.83-3.74,3.21l-21.6,12.92a16.56,16.56,0,0,1-1.84.91,11.62,11.62,0,0,1-4.84.86,8.53,8.53,0,0,1-3.91-1l-22.29-13.61a2,2,0,0,1-.29-.18c-2-1.3-2-3.4-.18-5,0-.62,2.89-2.73,3.56-3.11Z"/><path class="cls-12" d="M239.32,84.48a11.24,11.24,0,0,1,6.42-1.29,10.68,10.68,0,0,1,2.74.74c.16.06,2.09,1.18,2.23,1.26l20.46,12.48a4.8,4.8,0,0,1,.7.49c1.62,1.33,1.43,3.29-.51,4.78,0,.41-3.29,2.64-3.73,2.9l-20.46,12.31a12.82,12.82,0,0,1-1.75.84,11.41,11.41,0,0,1-4.61.76,8.07,8.07,0,0,1-3.7-1l-22.32-13.61-.29-.19c-2-1.32-1.9-3.45.19-5,0-.41,3.09-2.52,3.53-2.78Z"/><path class="cls-13" d="M238.41,85.33a10.91,10.91,0,0,1,6.39-1.25,10.66,10.66,0,0,1,2.7.78c.09,0,2.13,1.25,2.2,1.29L270,98.56a4.68,4.68,0,0,1,.69.49c1.58,1.34,1.23,3.32-.92,4.75a35.76,35.76,0,0,1-3.72,2.58l-19.31,11.71a11.07,11.07,0,0,1-1.67.77,11.22,11.22,0,0,1-4.38.66,8,8,0,0,1-3.5-.93L214.89,105l-.29-.19c-2-1.34-1.76-3.5.56-5a31.71,31.71,0,0,1,3.5-2.44Z"/><path d="M237.36,118.4,215,104.75c-2.32-1.34-2-3.67.65-5.21L237.5,86.17c2.68-1.54,6.72-1.71,9-.37l22.38,13.65c2.31,1.33,2,3.67-.65,5.21L246.39,118C243.72,119.57,239.67,119.74,237.36,118.4Z"/></g><path class="cls-14" d="M269.9,94.17h-.56a4,4,0,0,0-1.18-1L246.37,80.6c-2.57-1.49-7.08-1.3-10.06.41L216.16,92.65a6.06,6.06,0,0,0-1.8,1.52h-.66v8.61h0a3.08,3.08,0,0,0,1.72,2.3l21.79,12.58c2.58,1.49,7.08,1.3,10.06-.42l20.15-11.63a4.53,4.53,0,0,0,2.41-2.83h0Z"/><path class="cls-15" d="M237.23,109.46,215.44,96.88c-2.58-1.48-2.25-4.08.72-5.8l20.15-11.64c3-1.72,7.49-1.9,10.06-.41l21.79,12.58c2.58,1.48,2.26,4.08-.72,5.8l-20.15,11.64C244.31,110.77,239.81,111,237.23,109.46Z"/><path class="cls-16" d="M267.44,97,247.29,108.6c-3,1.72-7.48,1.9-10.06.41L215.44,96.43a3.13,3.13,0,0,1-1.71-2.2,2.87,2.87,0,0,0,1.71,2.88l21.79,12.58c2.58,1.49,7.08,1.3,10.06-.42l20.15-11.63c1.78-1,2.61-2.38,2.43-3.61A4.42,4.42,0,0,1,267.44,97Z"/><path class="cls-17" d="M267.8,86.71h-.52a3.61,3.61,0,0,0-1.09-.92L246,74.15c-2.38-1.37-6.55-1.2-9.31.39L218.08,85.3a5.52,5.52,0,0,0-1.66,1.41h-.62v7h0a2.87,2.87,0,0,0,1.59,2.13l20.16,11.63c2.39,1.38,6.56,1.21,9.31-.38l18.64-10.76a4.18,4.18,0,0,0,2.23-2.62h.05Z"/><path class="cls-18" d="M267.8,85.51h-.52a3.61,3.61,0,0,0-1.09-.92L246,73c-2.38-1.37-6.55-1.2-9.31.39L218.08,84.1a5.67,5.67,0,0,0-1.66,1.41h-.62v7h0a2.87,2.87,0,0,0,1.59,2.13l20.16,11.64c2.39,1.37,6.56,1.2,9.31-.39l18.64-10.76a4.18,4.18,0,0,0,2.23-2.62h.05Z"/><path class="cls-19" d="M269.9,28h-.56a4,4,0,0,0-1.18-1L246.37,14.4c-2.57-1.49-7.08-1.3-10.06.42L216.16,26.45a6.06,6.06,0,0,0-1.8,1.52h-.66V88.28h0a3.07,3.07,0,0,0,1.72,2.3l21.79,12.58c2.58,1.49,7.08,1.31,10.06-.41l20.15-11.64a4.51,4.51,0,0,0,2.41-2.83h0Z"/><path class="cls-20" d="M237.23,43.27,215.44,30.69c-2.58-1.49-2.25-4.09.72-5.81l20.15-11.63c3-1.72,7.49-1.91,10.06-.42l21.79,12.58c2.58,1.49,2.26,4.09-.72,5.81L247.29,42.85C244.31,44.57,239.81,44.76,237.23,43.27Z"/><path class="cls-21" d="M267.44,30.77,247.29,42.4c-3,1.72-7.48,1.91-10.06.42L215.44,30.24a3.16,3.16,0,0,1-1.71-2.2,2.85,2.85,0,0,0,1.71,2.87l21.79,12.58c2.58,1.49,7.08,1.31,10.06-.41l20.15-11.64c1.78-1,2.61-2.37,2.43-3.6A4.44,4.44,0,0,1,267.44,30.77Z"/><ellipse class="cls-22" cx="244.07" cy="28.66" rx="14.53" ry="7.41"/><path class="cls-23" d="M254,23.69H230.19V28.4c0,3.82,5.32,6.92,11.88,6.92S254,32.22,254,28.4c0,0,0-.06,0-.09h0Z"/><path class="cls-24" d="M230.19,23.74c0,3.82,5.32,6.91,11.88,6.91S254,27.56,254,23.74s-5.32-6.92-11.89-6.92S230.19,19.91,230.19,23.74Z"/><ellipse class="cls-25" cx="242.07" cy="23.77" rx="7.48" ry="4.35"/><path class="cls-26" d="M242.07,23.54c2.85,0,5.33.92,6.59,2.29a3,3,0,0,0,.89-2.06c0-2.41-3.35-4.36-7.48-4.36s-7.47,1.95-7.47,4.36a3,3,0,0,0,.89,2.06C236.75,24.46,239.23,23.54,242.07,23.54Z"/><path class="cls-27" d="M242.07,30.63c-6.49,0-11.76-3-11.87-6.8,0,0,0,.08,0,.12,0,3.83,5.32,6.92,11.88,6.92S254,27.78,254,24c0,0,0-.08,0-.12C253.84,27.6,248.57,30.63,242.07,30.63Z"/><polygon class="cls-28" points="237.63 91.22 237.63 97.23 217.04 85.58 217.04 79.58 237.63 91.22"/><path class="cls-29" d="M217.42,85.36l19.83,11.22V91.43l-19.83-11.2ZM238,97.87,216.67,85.8V78.94L238,91Z"/><polygon class="cls-30" points="237.63 80.88 237.63 86.89 217.04 75.25 217.04 69.25 237.63 80.88"/><path class="cls-29" d="M217.42,75l19.83,11.22V81.1L217.42,69.89ZM238,87.54,216.67,75.47V68.61l21.33,12Z"/><polygon class="cls-31" points="237.63 70.55 237.63 76.56 217.04 64.92 217.04 58.92 237.63 70.55"/><path class="cls-29" d="M217.42,64.7l19.83,11.22V70.77L217.42,59.56ZM238,77.2,216.67,65.14V58.27L238,70.33Z"/><polygon class="cls-32" points="237.63 60.22 237.63 66.23 217.04 54.58 217.04 48.58 237.63 60.22"/><path class="cls-29" d="M217.42,54.36l19.83,11.22V60.43l-19.83-11.2ZM238,66.87,216.67,54.8V47.94L238,60Z"/><polygon class="cls-33" points="237.63 49.88 237.63 55.89 217.04 44.25 217.04 38.25 237.63 49.88"/><path class="cls-29" d="M217.42,44l19.83,11.22V50.1L217.42,38.89ZM238,56.54,216.67,44.47V37.61l21.33,12Z"/><polygon class="cls-34" points="222.88 107.77 222.88 102.81 231.79 107.84 231.79 112.81 222.88 107.77"/><g class="cls-2"><path class="cls-3" d="M286.72,147.08a11,11,0,0,1-5.53-1.34l-22.37-13.65a5.85,5.85,0,0,1-3.18-5.06c0-2.24,1.4-4.33,3.83-5.74l33.25-19.2a13.66,13.66,0,0,1,6.72-1.71,11.06,11.06,0,0,1,5.54,1.34l22.37,13.65a5.84,5.84,0,0,1,3.17,5.06c0,2.24-1.39,4.33-3.82,5.74l-33.26,19.2A13.64,13.64,0,0,1,286.72,147.08Z"/><path class="cls-4" d="M291.81,102.94a13.23,13.23,0,0,1,6.69-1.66,12.77,12.77,0,0,1,3,.38,10.92,10.92,0,0,1,2.5,1l21.48,13.11.76.47a5.36,5.36,0,0,1,2.76,5,7.17,7.17,0,0,1-3.81,5.42l-29.63,17.16-2.4,1.37a13.32,13.32,0,0,1-6.48,1.6,10.67,10.67,0,0,1-5.33-1.29l-22.11-13.49-.29-.18a5.32,5.32,0,0,1-2.8-5,7.11,7.11,0,0,1,3.79-5.41Z"/><path class="cls-5" d="M290.9,103.78a13,13,0,0,1,6.66-1.61,12.32,12.32,0,0,1,2.93.43,11.69,11.69,0,0,1,2.47,1.05l21.36,13,.75.47a4.91,4.91,0,0,1,2.35,5,7.68,7.68,0,0,1-3.8,5.11l-28.48,16.55c-.09.05-2.22,1.27-2.32,1.3a13.15,13.15,0,0,1-6.25,1.5,10.39,10.39,0,0,1-5.13-1.25l-22.13-13.51-.29-.18a4.86,4.86,0,0,1-2.43-5,7.6,7.6,0,0,1,3.76-5.08Z"/><path class="cls-6" d="M290,104.63a12.77,12.77,0,0,1,6.62-1.57,12,12,0,0,1,2.91.47,14.23,14.23,0,0,1,2.44,1.09l21.23,12.95c.07,0,.68.42.74.47a4.52,4.52,0,0,1,1.94,5,8.33,8.33,0,0,1-3.79,4.79l-27.33,16c-.13.07-2.09,1.18-2.24,1.23a12.75,12.75,0,0,1-6,1.4,10,10,0,0,1-4.92-1.22l-22.16-13.52-.29-.18a4.1,4.1,0,0,1-2.06-5.05c0-1.63,2-3.73,3.73-4.75Z"/><path class="cls-7" d="M289.09,105.48a12.41,12.41,0,0,1,6.58-1.53,12.18,12.18,0,0,1,2.88.52,16.46,16.46,0,0,1,2.4,1.11l21.1,12.88c.1.05.67.41.74.47a3.76,3.76,0,0,1,1.53,4.94c0,1.43-2.23,3.58-3.78,4.47l-26.18,15.35c-.18.1-2,1.1-2.16,1.17a12.61,12.61,0,0,1-5.79,1.28,9.64,9.64,0,0,1-4.72-1.17l-22.18-13.54a2.82,2.82,0,0,1-.29-.18c-2-1.23-2.61-3.2-1.68-5,0-1.43,2.14-3.53,3.69-4.43Z"/><path class="cls-8" d="M288.18,106.32a12.32,12.32,0,0,1,6.55-1.48,11.9,11.9,0,0,1,2.85.57,19.93,19.93,0,0,1,2.37,1.14l21,12.8a7.61,7.61,0,0,1,.73.47,3.45,3.45,0,0,1,1.12,4.91c0,1.22-2.44,3.39-3.77,4.16l-25,14.73c-.22.13-1.82,1-2.08,1.11a12.23,12.23,0,0,1-5.54,1.18,9.42,9.42,0,0,1-4.52-1.13l-22.21-13.56-.3-.17c-2-1.26-2.46-3.26-1.3-5.05,0-1.22,2.33-3.33,3.66-4.09Z"/><path class="cls-9" d="M287.27,107.17a12,12,0,0,1,6.52-1.44,12.13,12.13,0,0,1,2.82.61,24.13,24.13,0,0,1,2.33,1.17l20.85,12.72c.14.09.61.39.72.48a3.21,3.21,0,0,1,.71,4.88c0,1-2.65,3.2-3.75,3.84l-23.9,14.13c-.27.16-1.69.94-2,1a12.11,12.11,0,0,1-5.31,1.08,9.1,9.1,0,0,1-4.31-1.09L259.71,131l-.3-.18a3.21,3.21,0,0,1-.93-5c0-1,2.53-3.12,3.63-3.76Z"/><path class="cls-10" d="M286.36,108a11.65,11.65,0,0,1,6.48-1.38,10.84,10.84,0,0,1,2.8.65c.33.11,2,1,2.29,1.2l20.72,12.64a8.18,8.18,0,0,1,.72.48c1.71,1.29,1.81,3.23.3,4.85,0,.81-2.86,3-3.74,3.52L293.18,143.5a20.28,20.28,0,0,1-1.92,1,11.9,11.9,0,0,1-5.08,1,8.71,8.71,0,0,1-4.11-1.05l-22.26-13.58-.3-.18a3,3,0,0,1-.55-5c0-.82,2.71-2.93,3.59-3.44Z"/><path class="cls-11" d="M285.45,108.86a11.39,11.39,0,0,1,6.45-1.34,11.27,11.27,0,0,1,2.76.69c.25.09,2.06,1.12,2.27,1.23L317.52,122a5.5,5.5,0,0,1,.71.48c1.66,1.31,1.62,3.26-.11,4.82,0,.61-3.07,2.82-3.73,3.21l-21.61,12.92a15.54,15.54,0,0,1-1.83.9,11.52,11.52,0,0,1-4.85.87,8.37,8.37,0,0,1-3.9-1l-22.29-13.6-.3-.18c-2-1.31-2-3.41-.18-5,0-.61,2.9-2.72,3.56-3.1Z"/><path class="cls-12" d="M284.54,109.7a11.24,11.24,0,0,1,6.42-1.29,11,11,0,0,1,2.73.74c.17.06,2.1,1.18,2.23,1.26l20.47,12.49a5.37,5.37,0,0,1,.7.48c1.62,1.33,1.42,3.29-.52,4.79,0,.4-3.28,2.64-3.72,2.89l-20.46,12.31a12.87,12.87,0,0,1-1.75.85A11.41,11.41,0,0,1,286,145a8.11,8.11,0,0,1-3.71-1L260,130.39l-.3-.18c-2-1.33-1.89-3.46.2-5,0-.4,3.08-2.52,3.52-2.77Z"/><path class="cls-13" d="M283.63,110.55A11,11,0,0,1,290,109.3a10.74,10.74,0,0,1,2.71.79c.08,0,2.13,1.25,2.2,1.29l20.33,12.41a4.1,4.1,0,0,1,.7.48c1.57,1.35,1.23,3.33-.93,4.76a35.56,35.56,0,0,1-3.71,2.57L292,143.31a11.59,11.59,0,0,1-1.67.78,11.43,11.43,0,0,1-4.38.65,7.91,7.91,0,0,1-3.5-.92l-22.34-13.64-.3-.18c-2-1.34-1.75-3.51.57-5a31.61,31.61,0,0,1,3.49-2.45Z"/><path d="M282.58,143.62,260.21,130c-2.32-1.33-2-3.67.64-5.21l21.87-13.36c2.67-1.55,6.72-1.71,9-.38l22.37,13.65c2.32,1.34,2,3.67-.65,5.22l-21.86,13.36C288.93,144.79,284.89,145,282.58,143.62Z"/></g><path class="cls-35" d="M315.12,119.39h-.56a4,4,0,0,0-1.18-1l-21.79-12.58c-2.58-1.49-7.08-1.3-10.06.42l-20.15,11.63a6.06,6.06,0,0,0-1.8,1.52h-.66V128h0a3.1,3.1,0,0,0,1.73,2.3l21.79,12.58c2.58,1.49,7.08,1.3,10.06-.42l20.15-11.63a4.53,4.53,0,0,0,2.41-2.83h.05Z"/><path class="cls-36" d="M282.45,134.69l-21.79-12.58c-2.58-1.49-2.26-4.09.72-5.81l20.15-11.63c3-1.72,7.48-1.91,10.06-.42l21.79,12.58c2.58,1.49,2.26,4.09-.72,5.81l-20.15,11.63C289.53,136,285,136.18,282.45,134.69Z"/><path class="cls-37" d="M312.66,122.19l-20.15,11.63c-3,1.72-7.48,1.91-10.06.42l-21.79-12.58a3.11,3.11,0,0,1-1.71-2.2,2.85,2.85,0,0,0,1.71,2.87l21.79,12.58c2.58,1.49,7.08,1.31,10.06-.41l20.15-11.64c1.78-1,2.6-2.37,2.43-3.6A4.44,4.44,0,0,1,312.66,122.19Z"/><path class="cls-38" d="M313,111.93h-.52a3.74,3.74,0,0,0-1.09-.91L291.25,99.38c-2.39-1.38-6.55-1.21-9.31.38L263.3,110.53a5.56,5.56,0,0,0-1.67,1.4H261v7h0a2.81,2.81,0,0,0,1.59,2.13l20.16,11.64c2.38,1.38,6.55,1.2,9.31-.39l18.64-10.76A4.18,4.18,0,0,0,313,119h0Z"/><path class="cls-39" d="M313,110.73h-.52a3.74,3.74,0,0,0-1.09-.91L291.25,98.18c-2.39-1.38-6.55-1.21-9.31.38L263.3,109.33a5.56,5.56,0,0,0-1.67,1.4H261v7h0a2.81,2.81,0,0,0,1.59,2.13l20.16,11.64c2.38,1.38,6.55,1.2,9.31-.39l18.64-10.76a4.16,4.16,0,0,0,2.23-2.62h0Z"/><path class="cls-40" d="M315.12,53.2h-.56a3.81,3.81,0,0,0-1.18-1L291.59,39.63c-2.58-1.49-7.08-1.31-10.06.41L261.38,51.68a5.78,5.78,0,0,0-1.8,1.52h-.66v60.31h0a3.1,3.1,0,0,0,1.73,2.3l21.79,12.58c2.58,1.49,7.08,1.3,10.06-.42l20.15-11.63a4.53,4.53,0,0,0,2.41-2.83h.05Z"/><path class="cls-41" d="M282.45,68.49,260.66,55.91c-2.58-1.49-2.26-4.09.72-5.81l20.15-11.63c3-1.72,7.48-1.9,10.06-.42l21.79,12.58c2.58,1.49,2.26,4.09-.72,5.81L292.51,68.08C289.53,69.79,285,70,282.45,68.49Z"/><path class="cls-42" d="M312.66,56,292.51,67.63c-3,1.72-7.48,1.9-10.06.41L260.66,55.46a3.07,3.07,0,0,1-1.71-2.2,2.87,2.87,0,0,0,1.71,2.88l21.79,12.58c2.58,1.49,7.08,1.3,10.06-.42l20.15-11.63c1.78-1,2.6-2.38,2.43-3.61A4.42,4.42,0,0,1,312.66,56Z"/><ellipse class="cls-43" cx="289.28" cy="53.88" rx="14.53" ry="7.41"/><path class="cls-44" d="M299.17,48.91H275.41v4.72c0,3.82,5.32,6.92,11.88,6.92s11.88-3.1,11.88-6.92v-.1h0Z"/><ellipse class="cls-45" cx="287.29" cy="48.96" rx="11.88" ry="6.92"/><ellipse class="cls-25" cx="287.29" cy="48.99" rx="7.48" ry="4.35"/><path class="cls-46" d="M287.29,48.76c2.85,0,5.32.93,6.59,2.29a3.05,3.05,0,0,0,.89-2.06c0-2.4-3.35-4.35-7.48-4.35s-7.48,2-7.48,4.35a3,3,0,0,0,.9,2.06C282,49.69,284.44,48.76,287.29,48.76Z"/><path class="cls-47" d="M287.29,55.85c-6.49,0-11.76-3-11.88-6.79v.12c0,3.82,5.32,6.92,11.88,6.92s11.88-3.1,11.88-6.92v-.12C299.06,52.82,293.78,55.85,287.29,55.85Z"/><path class="cls-29" d="M283.22,123.09,261.88,111V62.26l21.34,12.06Zm-20.59-12.5,19.84,11.22V74.75L262.63,63.54Z"/><rect class="cls-29" x="272.18" y="73.64" width="0.75" height="23.65" transform="translate(64.07 280.73) rotate(-60.54)"/><rect class="cls-29" x="272.18" y="90.02" width="0.75" height="23.65" transform="translate(49.82 289.05) rotate(-60.54)"/><polygon class="cls-48" points="268.31 73.89 268.31 69.17 276.79 73.96 276.79 78.68 268.31 73.89"/><polygon class="cls-49" points="268.31 90.76 268.31 86.04 276.79 90.83 276.79 95.56 268.31 90.76"/><polygon class="cls-50" points="268.31 106.76 268.31 102.04 276.79 106.83 276.79 111.56 268.31 106.76"/><polygon class="cls-34" points="268.1 132.99 268.1 128.03 277.01 133.06 277.01 138.03 268.1 132.99"/><ellipse class="cls-51" cx="287.46" cy="83.14" rx="8.34" ry="41.33"/><g class="cls-2"><path class="cls-3" d="M332.34,173.94a11.09,11.09,0,0,1-5.53-1.34L304.43,159a5.86,5.86,0,0,1-3.17-5.06c0-2.24,1.39-4.34,3.82-5.74L338.34,129a13.64,13.64,0,0,1,6.72-1.71,11,11,0,0,1,5.53,1.34L373,142.23a5.85,5.85,0,0,1,3.18,5.05c0,2.25-1.39,4.34-3.82,5.75l-33.26,19.2A13.64,13.64,0,0,1,332.34,173.94Z"/><path class="cls-4" d="M337.43,129.8a13.27,13.27,0,0,1,9.65-1.28,10.82,10.82,0,0,1,2.51,1l21.48,13.11s.74.45.75.47a5.34,5.34,0,0,1,2.77,5,7.18,7.18,0,0,1-3.81,5.43l-29.63,17.16-2.4,1.37a13.36,13.36,0,0,1-6.49,1.6,10.7,10.7,0,0,1-5.33-1.29l-22.11-13.49-.29-.18a5.35,5.35,0,0,1-2.8-5.05,7.16,7.16,0,0,1,3.79-5.42Z"/><path class="cls-5" d="M336.52,130.64a13,13,0,0,1,6.65-1.61,11,11,0,0,1,5.41,1.48l21.36,13c.05,0,.71.44.74.47a4.9,4.9,0,0,1,2.36,5,7.64,7.64,0,0,1-3.8,5.11l-28.48,16.56c-.09.05-2.22,1.27-2.32,1.3a13.15,13.15,0,0,1-6.25,1.5,10.5,10.5,0,0,1-5.13-1.25l-22.14-13.51-.29-.18a4.85,4.85,0,0,1-2.42-5.05A7.57,7.57,0,0,1,306,148.4Z"/><path class="cls-6" d="M335.61,131.49a12.72,12.72,0,0,1,6.62-1.57,12,12,0,0,1,2.91.47,15,15,0,0,1,2.44,1.08l21.23,13c.07,0,.68.42.73.47a4.5,4.5,0,0,1,1.95,5,8.32,8.32,0,0,1-3.79,4.8l-27.33,16c-.14.07-2.09,1.18-2.25,1.23a12.83,12.83,0,0,1-6,1.4,10.11,10.11,0,0,1-4.93-1.22L305,158.5l-.29-.18a4.09,4.09,0,0,1-2.05-5c0-1.63,2-3.73,3.73-4.75Z"/><path class="cls-7" d="M334.7,132.33a12.53,12.53,0,0,1,6.59-1.52,11.69,11.69,0,0,1,2.88.52,16.46,16.46,0,0,1,2.4,1.11l21.1,12.88c.1.05.66.41.73.47a3.74,3.74,0,0,1,1.54,4.93c0,1.43-2.23,3.59-3.78,4.48L340,170.54c-.18.11-2,1.11-2.16,1.18A12.54,12.54,0,0,1,332,173a9.75,9.75,0,0,1-4.72-1.17l-22.19-13.54-.29-.18c-2-1.23-2.6-3.2-1.68-5,0-1.43,2.15-3.53,3.7-4.43Z"/><path class="cls-8" d="M333.79,133.18a12.28,12.28,0,0,1,6.56-1.48,12.41,12.41,0,0,1,2.85.56,21.5,21.5,0,0,1,2.36,1.15l21,12.79a8.18,8.18,0,0,1,.72.48,3.44,3.44,0,0,1,1.13,4.9c0,1.23-2.44,3.4-3.77,4.17l-25,14.73c-.22.13-1.82,1-2.08,1.11a12.41,12.41,0,0,1-5.55,1.18,9.52,9.52,0,0,1-4.51-1.13l-22.22-13.56-.29-.18c-2-1.25-2.46-3.25-1.3-5,0-1.23,2.33-3.33,3.66-4.09Z"/><path class="cls-9" d="M332.88,134a11.24,11.24,0,0,1,9.34-.83,24.31,24.31,0,0,1,2.34,1.17l20.85,12.72a6.29,6.29,0,0,1,.71.48,3.2,3.2,0,0,1,.72,4.87c0,1-2.65,3.21-3.76,3.85l-23.89,14.13c-.27.15-1.69.94-2,1a12,12,0,0,1-5.31,1.07,9.14,9.14,0,0,1-4.32-1.08l-22.24-13.58-.29-.18a3.2,3.2,0,0,1-.93-5c0-1,2.52-3.12,3.63-3.76Z"/><path class="cls-10" d="M332,134.87a11.7,11.7,0,0,1,6.49-1.38,10.76,10.76,0,0,1,2.79.65c.33.11,2,1,2.3,1.2L364.27,148a6.75,6.75,0,0,1,.71.48,3,3,0,0,1,.31,4.84c0,.82-2.86,3-3.75,3.53l-22.75,13.53a20.1,20.1,0,0,1-1.91,1,11.9,11.9,0,0,1-5.08,1,8.8,8.8,0,0,1-4.11-1.05l-22.27-13.58-.29-.18a3,3,0,0,1-.55-5c0-.82,2.71-2.93,3.59-3.44Z"/><path class="cls-11" d="M331.07,135.72a10.62,10.62,0,0,1,9.21-.65c.25.09,2.06,1.11,2.27,1.23l20.59,12.57a5.37,5.37,0,0,1,.7.48c1.67,1.31,1.62,3.26-.1,4.81,0,.62-3.07,2.83-3.74,3.22L338.4,170.3a18.28,18.28,0,0,1-1.83.9,11.67,11.67,0,0,1-4.85.87,8.49,8.49,0,0,1-3.9-1l-22.3-13.6-.29-.18c-2-1.31-2-3.41-.18-5,0-.61,2.9-2.72,3.56-3.11Z"/><path class="cls-12" d="M330.16,136.56a11.19,11.19,0,0,1,6.41-1.29,11,11,0,0,1,2.74.74c.16.06,2.09,1.18,2.23,1.26L362,149.76a5.24,5.24,0,0,1,.69.48c1.62,1.33,1.43,3.29-.51,4.78,0,.41-3.28,2.64-3.72,2.9L338,170.23a12.82,12.82,0,0,1-1.75.84,11.32,11.32,0,0,1-4.62.76,8.23,8.23,0,0,1-3.7-1l-22.32-13.62-.29-.18c-2-1.33-1.9-3.46.19-5,0-.41,3.09-2.52,3.53-2.77Z"/><path class="cls-13" d="M329.25,137.41a11,11,0,0,1,6.38-1.25,10.74,10.74,0,0,1,2.71.78l2.19,1.29,20.34,12.41a4.2,4.2,0,0,1,.69.49c1.58,1.35,1.23,3.32-.92,4.75a34.14,34.14,0,0,1-3.71,2.58l-19.31,11.71a11.23,11.23,0,0,1-1.68.78,11.38,11.38,0,0,1-4.37.65,7.91,7.91,0,0,1-3.5-.92L305.72,157l-.29-.18c-2-1.34-1.75-3.51.57-5a31.61,31.61,0,0,1,3.49-2.45Z"/><path d="M328.19,170.48l-22.37-13.65c-2.31-1.33-2-3.67.65-5.21l21.87-13.36c2.67-1.55,6.71-1.72,9-.38l22.37,13.65c2.31,1.34,2,3.67-.65,5.21l-21.87,13.37C334.55,171.65,330.51,171.82,328.19,170.48Z"/></g><path class="cls-52" d="M360.74,146.25h-.56a4.22,4.22,0,0,0-1.18-1l-21.79-12.58c-2.58-1.49-7.08-1.3-10.06.42L307,144.73a6.06,6.06,0,0,0-1.8,1.52h-.67v8.61h0a3.1,3.1,0,0,0,1.73,2.3l21.78,12.58c2.58,1.49,7.09,1.3,10.06-.42l20.15-11.63a4.52,4.52,0,0,0,2.42-2.83h.05Z"/><path class="cls-53" d="M328.06,161.55,306.28,149c-2.58-1.49-2.26-4.09.72-5.81l20.15-11.63c3-1.72,7.48-1.91,10.06-.42L359,143.69c2.58,1.49,2.25,4.09-.73,5.81l-20.15,11.63C335.15,162.85,330.64,163,328.06,161.55Z"/><path class="cls-54" d="M358.27,149.05l-20.15,11.63c-3,1.72-7.48,1.91-10.06.42l-21.78-12.58a3.15,3.15,0,0,1-1.72-2.2,2.87,2.87,0,0,0,1.72,2.87l21.78,12.58c2.58,1.49,7.09,1.3,10.06-.41l20.15-11.64c1.79-1,2.61-2.37,2.44-3.61A4.45,4.45,0,0,1,358.27,149.05Z"/><path class="cls-55" d="M358.64,138.79h-.52a4,4,0,0,0-1.09-.91l-20.16-11.64c-2.39-1.38-6.56-1.21-9.31.38l-18.64,10.77a5.43,5.43,0,0,0-1.67,1.4h-.61v7h0a2.86,2.86,0,0,0,1.6,2.13l20.16,11.64c2.38,1.38,6.55,1.2,9.3-.39l18.65-10.76a4.21,4.21,0,0,0,2.23-2.62h.05Z"/><path class="cls-56" d="M358.64,137.59h-.52a4,4,0,0,0-1.09-.91L336.87,125c-2.39-1.38-6.56-1.21-9.31.38l-18.64,10.77a5.43,5.43,0,0,0-1.67,1.4h-.61v7h0a2.85,2.85,0,0,0,1.6,2.13l20.16,11.64c2.38,1.38,6.55,1.2,9.3-.39l18.65-10.76a4.21,4.21,0,0,0,2.23-2.62h.05Z"/><path class="cls-57" d="M360.74,80.06h-.56a4.06,4.06,0,0,0-1.18-1L337.21,66.49c-2.58-1.49-7.08-1.31-10.06.41L307,78.54a5.78,5.78,0,0,0-1.8,1.52h-.67v60.3h0a3.1,3.1,0,0,0,1.73,2.31l21.78,12.58c2.58,1.49,7.09,1.3,10.06-.42l20.15-11.63a4.51,4.51,0,0,0,2.42-2.84h.05Z"/><path class="cls-58" d="M328.06,95.35,306.28,82.77C303.7,81.28,304,78.68,307,77l20.15-11.63c3-1.72,7.48-1.91,10.06-.42L359,77.49c2.58,1.49,2.25,4.09-.73,5.81L338.12,94.93C335.15,96.65,330.64,96.84,328.06,95.35Z"/><path class="cls-59" d="M358.27,82.85,338.12,94.49c-3,1.71-7.48,1.9-10.06.41L306.28,82.32a3.13,3.13,0,0,1-1.72-2.2A2.88,2.88,0,0,0,306.28,83l21.78,12.58c2.58,1.49,7.09,1.3,10.06-.42l20.15-11.63c1.79-1,2.61-2.38,2.44-3.61A4.43,4.43,0,0,1,358.27,82.85Z"/><ellipse class="cls-60" cx="334.9" cy="80.74" rx="14.53" ry="7.41"/><path class="cls-61" d="M344.79,75.77H321v4.71c0,3.83,5.33,6.92,11.89,6.92s11.88-3.09,11.88-6.92v-.09h0Z"/><ellipse class="cls-62" cx="332.91" cy="75.82" rx="11.88" ry="6.92"/><ellipse class="cls-25" cx="332.91" cy="75.85" rx="7.48" ry="4.35"/><path class="cls-63" d="M332.91,75.62c2.85,0,5.32.93,6.58,2.29a3,3,0,0,0,.89-2.06c0-2.41-3.34-4.35-7.47-4.35s-7.48,1.94-7.48,4.35a3.05,3.05,0,0,0,.89,2.06C327.59,76.55,330.06,75.62,332.91,75.62Z"/><path class="cls-64" d="M332.91,82.71c-6.49,0-11.77-3-11.88-6.8,0,0,0,.09,0,.13,0,3.82,5.33,6.92,11.89,6.92s11.88-3.1,11.88-6.92v-.13C344.67,79.68,339.4,82.71,332.91,82.71Z"/><polygon class="cls-65" points="328.46 123.75 328.46 149.31 307.88 137.67 307.88 112.12 328.46 123.75"/><path class="cls-29" d="M328.84,150,307.5,137.89V111.48l21.34,12Zm-20.59-12.5,19.84,11.22V124l-19.84-11.21Z"/><polygon class="cls-66" points="328.46 101.39 328.46 107.75 307.88 96.11 307.88 89.76 328.46 101.39"/><path class="cls-29" d="M328.84,108.39,307.5,96.33V89.12l21.34,12Zm-20.59-12.5,19.84,11.22v-5.5L308.25,90.4Z"/><polygon class="cls-67" points="328.46 112.56 328.46 118.92 307.88 107.27 307.88 100.93 328.46 112.56"/><path class="cls-29" d="M328.84,119.56,307.5,107.49v-7.21l21.34,12.06Zm-20.59-12.51,19.84,11.22v-5.49l-19.84-11.21Z"/><polygon class="cls-68" points="300.69 123.8 300.69 141.58 313.88 134.03 313.88 116.25 300.69 123.8"/><polygon class="cls-69" points="300.71 123.8 300.71 141.58 299.57 140.91 299.57 123.15 300.71 123.8"/><polygon class="cls-70" points="299.57 123.15 300.71 123.8 313.88 116.25 312.71 115.58 299.57 123.15"/><polygon class="cls-34" points="313.71 159.85 313.71 154.89 322.63 159.92 322.63 164.89 313.71 159.85"/><ellipse class="cls-71" cx="333.08" cy="110" rx="8.34" ry="41.33"/><polygon class="cls-72" points="320.89 124.42 320.89 146.23 322.3 145.46 322.3 123.64 320.89 124.42"/><polygon class="cls-73" points="320.9 124.42 320.9 146.23 303.95 136.35 303.95 114.55 320.9 124.42"/><polygon class="cls-74" points="303.95 114.55 320.9 124.42 322.3 123.64 305.33 113.76 303.95 114.55"/><polygon class="cls-75" points="317.56 126.59 317.56 148.4 318.96 147.62 318.96 125.81 317.56 126.59"/><polygon class="cls-76" points="317.57 126.59 317.57 148.4 300.62 138.52 300.62 116.72 317.57 126.59"/><polygon class="cls-77" points="300.62 116.72 317.57 126.59 318.96 125.81 301.99 115.93 300.62 116.72"/><polygon class="cls-78" points="314.86 136.63 314.86 154.42 328.04 146.87 328.04 129.09 314.86 136.63"/><polygon class="cls-79" points="314.88 136.63 314.88 154.42 313.74 153.75 313.74 135.98 314.88 136.63"/><polygon class="cls-80" points="313.74 135.98 314.88 136.63 328.04 129.09 326.88 128.42 313.74 135.98"/><polygon class="cls-81" points="313.84 130.23 313.84 155.4 315.46 154.5 315.46 129.33 313.84 130.23"/><polygon class="cls-82" points="313.85 130.23 313.85 155.4 294.29 144 294.29 118.84 313.85 130.23"/><polygon class="cls-83" points="294.29 118.84 313.85 130.23 315.46 129.33 295.88 117.93 294.29 118.84"/><polygon class="cls-84" points="299.6 129.12 299.6 124.4 308.07 129.19 308.07 133.92 299.6 129.12"/><g class="cls-2"><path class="cls-3" d="M65.75,234.9A23.54,23.54,0,0,1,54,232.08L6.72,203.2C2.45,200.73,0,196.83,0,192.5c0-4.75,3-9.18,8.09-12.15l70.35-40.62a28.85,28.85,0,0,1,14.22-3.61,23.5,23.5,0,0,1,11.7,2.82l47.33,28.88c4.27,2.47,6.72,6.36,6.72,10.7,0,4.75-2.95,9.18-8.09,12.15L80,231.28A28.86,28.86,0,0,1,65.75,234.9Z"/><path class="cls-85" d="M76.52,141.52A28.15,28.15,0,0,1,90.66,138a26.7,26.7,0,0,1,6.28.81,22.58,22.58,0,0,1,5.3,2.17l45.4,27.7c.05,0,1.6,1,1.64,1a11.36,11.36,0,0,1,5.85,10.63c-.24,4.31-3.4,8.78-8.07,11.48L84.42,228.1c-.09.05-5,2.88-5.12,2.91a28.08,28.08,0,0,1-13.71,3.39,22.69,22.69,0,0,1-11.28-2.73L7.58,203.15l-.66-.4A11.29,11.29,0,0,1,1,192.06c.25-4.31,3.35-8.75,8-11.45Z"/><path class="cls-86" d="M74.59,143.31a27.69,27.69,0,0,1,14.08-3.42A23.29,23.29,0,0,1,100.11,143l45.14,27.54c.1.06,1.55,1,1.62,1a10.41,10.41,0,0,1,5,10.57c-.43,3.86-3.84,8.38-8,10.81L83.59,228c-.19.11-4.73,2.7-5,2.77a27.59,27.59,0,0,1-13.22,3.17,22.07,22.07,0,0,1-10.84-2.65L7.78,202.71l-.65-.4A10.32,10.32,0,0,1,2,191.62c.46-3.86,3.75-8.32,8-10.75Z"/><path class="cls-87" d="M72.67,145.1a27,27,0,0,1,14-3.32,25.76,25.76,0,0,1,6.16,1,30.59,30.59,0,0,1,5.16,2.3l44.86,27.37c.16.09,1.5.93,1.61,1,4,2.58,4.8,6.39,4.11,10.5-.57,3.4-4.28,8-8,10.14l-57.8,33.72c-.28.16-4.44,2.52-4.77,2.63a27.15,27.15,0,0,1-12.72,2.95,21.4,21.4,0,0,1-10.42-2.57L8,202.27l-.65-.41c-4.24-2.57-5.8-6.67-4.33-10.67,0-3.46,4.14-7.9,7.88-10.06Z"/><path class="cls-88" d="M70.75,146.89a26.46,26.46,0,0,1,13.93-3.22,25.53,25.53,0,0,1,6.09,1.09,37.24,37.24,0,0,1,5.1,2.36l44.59,27.21c.21.12,1.44.9,1.6,1,3.87,2.61,5.05,6.62,3.23,10.43,0,3-4.72,7.58-8,9.47L81.92,227.71c-.38.22-4.16,2.35-4.6,2.49a26.58,26.58,0,0,1-12.23,2.72,20.64,20.64,0,0,1-10-2.47L8.2,201.82l-.66-.4C3.31,198.8,2.05,194.64,4,190.75c0-3,4.54-7.47,7.81-9.36Z"/><path class="cls-89" d="M68.82,148.68a26,26,0,0,1,13.87-3.13,25.38,25.38,0,0,1,6,1.19,44.84,44.84,0,0,1,5,2.43l44.33,27.05c.26.15,1.39.86,1.58,1,3.78,2.66,4.63,6.69,2.36,10.37,0,2.59-5.17,7.18-8,8.8l-53,31.16c-.47.27-3.87,2.17-4.42,2.35a25.9,25.9,0,0,1-11.73,2.5A20,20,0,0,1,55.38,230l-47-28.66c-.11-.06-.57-.34-.66-.41-4.22-2.65-5.19-6.88-2.74-10.66,0-2.59,4.94-7,7.74-8.66Z"/><path class="cls-90" d="M66.9,150.47a25.29,25.29,0,0,1,13.79-3,24.64,24.64,0,0,1,6,1.28c.88.29,4.23,2.08,5,2.49l44,26.89a15.83,15.83,0,0,1,1.57,1c3.68,2.69,4.22,6.75,1.49,10.29,0,2.16-5.61,6.79-7.95,8.14L80.25,227.45c-.57.33-3.6,2-4.25,2.21a25.4,25.4,0,0,1-11.24,2.27,19.23,19.23,0,0,1-9.12-2.3l-47-28.7-.65-.4c-4.21-2.69-4.88-7-1.95-10.65,0-2.16,5.34-6.62,7.67-8Z"/><path class="cls-91" d="M65,152.26a24.72,24.72,0,0,1,13.72-2.93,23.84,23.84,0,0,1,5.9,1.37c.7.24,4.31,2.22,4.89,2.56L133.28,180a14,14,0,0,1,1.55,1.05c3.59,2.73,3.8,6.81.62,10.22,0,1.73-6,6.39-7.92,7.47l-48.11,28.6a44.57,44.57,0,0,1-4.08,2.07,25.07,25.07,0,0,1-10.74,2.05,18.62,18.62,0,0,1-8.69-2.22L8.82,200.49l-.66-.41C4,197.35,3.59,193,7,189.44c0-1.73,5.73-6.19,7.6-7.27Z"/><path class="cls-92" d="M63.05,154.05a24.28,24.28,0,0,1,13.65-2.84,24.21,24.21,0,0,1,5.85,1.47c.52.19,4.38,2.37,4.82,2.63l43.52,26.55a13.2,13.2,0,0,1,1.53,1c3.49,2.77,3.39,6.88-.25,10.16,0,1.3-6.5,6-7.9,6.8L78.58,227.19a34.48,34.48,0,0,1-3.9,1.93,24.6,24.6,0,0,1-10.24,1.82,17.92,17.92,0,0,1-8.26-2.12L9,200.05c-.17-.1-.51-.31-.66-.42C4.18,196.87,4.1,192.44,8,189c0-1.3,6.13-5.76,7.53-6.57Z"/><path class="cls-93" d="M61.13,155.84a23.71,23.71,0,0,1,13.58-2.74,23.39,23.39,0,0,1,5.78,1.56c.35.13,4.47,2.52,4.76,2.69l43.25,26.39A11.17,11.17,0,0,1,130,184.8c3.4,2.81,3,6.95-1.11,10.09,0,.87-7,5.59-7.88,6.13l-43.27,26A29.12,29.12,0,0,1,74,228.85a24.22,24.22,0,0,1-9.75,1.6,17.32,17.32,0,0,1-7.82-2L9.24,199.6c-.19-.11-.49-.29-.66-.41-4.19-2.8-4-7.3.44-10.63,0-.86,6.53-5.33,7.46-5.87Z"/><path class="cls-94" d="M59.21,157.63A23.07,23.07,0,0,1,72.71,155a22.46,22.46,0,0,1,5.73,1.66c.17.06,4.54,2.66,4.68,2.75l43,26.22a9.86,9.86,0,0,1,1.51,1.07c3.29,2.84,2.55,7-2,10,0,.43-7.39,5.19-7.86,5.46L76.91,226.93a23,23,0,0,1-3.55,1.65A24,24,0,0,1,64.11,230a16.56,16.56,0,0,1-7.4-2L9.44,199.16c-.21-.12-.47-.29-.66-.42-4.17-2.83-3.65-7.39,1.24-10.61,0-.44,6.93-4.91,7.39-5.18Z"/><path d="M57,227.59,9.65,198.72c-4.89-2.83-4.28-7.77,1.37-11l46.26-28.27c5.66-3.27,14.21-3.62,19.1-.79l47.33,28.87c4.89,2.83,4.28,7.77-1.37,11L76.08,226.8C70.43,230.07,61.87,230.42,57,227.59Z"/></g><path class="cls-95" d="M125.82,178.45h-1.18a8.57,8.57,0,0,0-2.5-2.1L76.05,149.74c-5.46-3.15-15-2.75-21.28.88L12.14,175.23a12.62,12.62,0,0,0-3.81,3.22H6.93v16.09H7c.17,1.83,1.36,3.56,3.64,4.87L56.7,226c5.46,3.15,15,2.76,21.29-.88l42.62-24.61c3-1.73,4.7-3.87,5.11-6h.1Z"/><path class="cls-96" d="M56.7,210.81,10.61,184.19c-5.45-3.14-4.77-8.65,1.53-12.28L54.77,147.3c6.29-3.64,15.82-4,21.28-.89L122.14,173c5.46,3.15,4.77,8.65-1.53,12.28L78,209.92C71.69,213.56,62.16,214,56.7,210.81Z"/><path class="cls-97" d="M120.61,184.36,78,209c-6.3,3.64-15.83,4-21.29.89L10.61,183.24A6.6,6.6,0,0,1,7,178.59c-.33,2.26.84,4.48,3.62,6.08L56.7,211.28c5.46,3.15,15,2.76,21.29-.88l42.62-24.61c3.77-2.18,5.52-5,5.15-7.63C125.44,180.34,123.7,182.58,120.61,184.36Z"/><path class="cls-98" d="M122.36,54.28c-.17-1.72-1.29-3.35-3.44-4.59L75.49,24.61c-5.14-3-14.12-2.59-20.06.84L15.27,48.64c-2.82,1.62-4.43,3.65-4.81,5.64h-.1V177.51h0a4.56,4.56,0,0,0,.3,1.25,9.82,9.82,0,0,1,4.58-4.82l40.16-23.19c5.94-3.43,14.92-3.8,20.06-.83L118.92,175a6.84,6.84,0,0,1,3.14,3.33,4.76,4.76,0,0,0,.23-.82h.1V54.28Z"/><ellipse class="cls-99" cx="69.11" cy="177.13" rx="42.74" ry="21.79"/><path class="cls-100" d="M108.32,162.08H24v13c0,13.56,18.87,24.55,42.15,24.55s42.16-11,42.16-24.55c0-.11,0-.22,0-.33h0Z"/><ellipse class="cls-101" cx="66.16" cy="162.25" rx="42.16" ry="24.55"/><path class="cls-102" d="M66.16,186.7c-23,0-41.73-10.76-42.13-24.11,0,.15,0,.29,0,.44,0,13.56,18.87,24.55,42.15,24.55s42.16-11,42.16-24.55c0-.15,0-.29,0-.44C107.9,175.94,89.19,186.7,66.16,186.7Z"/><path class="cls-103" d="M105.42,149.05H26.91v10.72h0c0,.11,0,.21,0,.32,0,12.62,17.57,22.86,39.25,22.86s39.26-10.24,39.26-22.86c0-.11,0-.21,0-.32h0Z"/><path class="cls-104" d="M105.42,147.19H26.91v10.72h0c0,.11,0,.21,0,.32,0,12.62,17.57,22.86,39.25,22.86s39.26-10.24,39.26-22.86c0-.11,0-.21,0-.32h0Z"/><path class="cls-105" d="M108.32,139H24v13c0,13.56,18.87,24.55,42.15,24.55s42.16-11,42.16-24.55c0-.11,0-.22,0-.33h0Z"/><ellipse class="cls-106" cx="66.16" cy="139.18" rx="42.16" ry="24.55"/><path class="cls-107" d="M66.16,163.63c-23,0-41.73-10.76-42.13-24.11,0,.15,0,.29,0,.44,0,13.56,18.87,24.55,42.15,24.55s42.16-11,42.16-24.55c0-.15,0-.29,0-.44C107.9,152.87,89.19,163.63,66.16,163.63Z"/><path class="cls-108" d="M105.42,126H26.91V136.7h0c0,.11,0,.21,0,.32,0,12.62,17.57,22.86,39.25,22.86s39.26-10.24,39.26-22.86c0-.11,0-.21,0-.32h0Z"/><path class="cls-109" d="M105.42,124.12H26.91v10.72h0c0,.11,0,.21,0,.32,0,12.62,17.57,22.86,39.25,22.86s39.26-10.24,39.26-22.86c0-.11,0-.21,0-.32h0Z"/><path class="cls-110" d="M108.32,116.58H24v13c0,13.56,18.87,24.55,42.15,24.55s42.16-11,42.16-24.55c0-.11,0-.22,0-.33h0Z"/><ellipse class="cls-111" cx="66.16" cy="116.75" rx="42.16" ry="24.55"/><path class="cls-112" d="M66.16,141.2c-23,0-41.73-10.76-42.13-24.11,0,.15,0,.29,0,.44,0,13.56,18.87,24.55,42.15,24.55s42.16-11,42.16-24.55c0-.15,0-.29,0-.44C107.9,130.44,89.19,141.2,66.16,141.2Z"/><path class="cls-113" d="M105.42,103.55H26.91v10.72h0c0,.11,0,.21,0,.32,0,12.62,17.57,22.86,39.25,22.86s39.26-10.24,39.26-22.86c0-.11,0-.21,0-.32h0Z"/><path class="cls-114" d="M105.42,101.69H26.91v10.72h0c0,.11,0,.21,0,.32,0,12.62,17.57,22.86,39.25,22.86s39.26-10.24,39.26-22.86c0-.11,0-.21,0-.32h0Z"/><path class="cls-115" d="M108.32,93.9H24v13c0,13.56,18.87,24.55,42.15,24.55s42.16-11,42.16-24.55c0-.12,0-.23,0-.34h0Z"/><ellipse class="cls-116" cx="66.16" cy="94.07" rx="42.16" ry="24.55"/><path class="cls-117" d="M66.16,118.52c-23,0-41.73-10.75-42.13-24.11,0,.15,0,.29,0,.44,0,13.56,18.87,24.55,42.15,24.55s42.16-11,42.16-24.55c0-.15,0-.29,0-.44C107.9,107.77,89.19,118.52,66.16,118.52Z"/><path class="cls-118" d="M105.42,80.87H26.91V91.6h0c0,.1,0,.2,0,.31,0,12.63,17.57,22.86,39.25,22.86s39.26-10.23,39.26-22.86c0-.11,0-.21,0-.31h0Z"/><path class="cls-119" d="M105.42,79H26.91V89.74h0c0,.1,0,.21,0,.31,0,12.63,17.57,22.86,39.25,22.86s39.26-10.23,39.26-22.86c0-.1,0-.21,0-.31h0Z"/><path class="cls-120" d="M108.32,71.93H24v13c0,13.56,18.87,24.55,42.15,24.55s42.16-11,42.16-24.55c0-.11,0-.22,0-.34h0Z"/><ellipse class="cls-121" cx="66.16" cy="72.1" rx="42.16" ry="24.55"/><path class="cls-122" d="M66.16,96.55c-23,0-41.73-10.76-42.13-24.11,0,.14,0,.29,0,.44,0,13.55,18.87,24.54,42.15,24.54s42.16-11,42.16-24.54c0-.15,0-.3,0-.44C107.9,85.79,89.19,96.55,66.16,96.55Z"/><path class="cls-123" d="M105.42,58.89H26.91V69.62h0c0,.1,0,.21,0,.31,0,12.63,17.57,22.86,39.25,22.86s39.26-10.23,39.26-22.86c0-.1,0-.21,0-.31h0Z"/><path class="cls-124" d="M105.42,57H26.91V67.76h0c0,.11,0,.21,0,.32,0,12.62,17.57,22.86,39.25,22.86s39.26-10.24,39.26-22.86c0-.11,0-.21,0-.32h0Z"/><path class="cls-125" d="M108.32,49.25H24v13C24,75.81,42.88,86.8,66.16,86.8s42.16-11,42.16-24.55c0-.11,0-.22,0-.33h0Z"/><ellipse class="cls-126" cx="66.16" cy="49.42" rx="42.16" ry="24.55"/><path class="cls-127" d="M66.16,73.87c-23,0-41.73-10.76-42.13-24.11,0,.15,0,.29,0,.44,0,13.56,18.87,24.55,42.15,24.55s42.16-11,42.16-24.55c0-.15,0-.29,0-.44C107.9,63.11,89.19,73.87,66.16,73.87Z"/><path class="cls-128" d="M118.92,49.69,75.49,24.61c-5.14-3-14.12-2.59-20.06.84L15.27,48.64c-2.82,1.62-4.43,3.65-4.81,5.64h-.1V177.51h0c.17,1.73,1.29,3.35,3.44,4.59l43.43,25.08c5.14,3,14.12,2.59,20.06-.83l40.16-23.19c2.82-1.63,4.43-3.65,4.81-5.65h.1V54.28h0C122.19,52.56,121.07,50.93,118.92,49.69Z"/><polygon class="cls-129" points="52.7 110.69 52.7 156.88 26.65 141.78 26.65 95.6 52.7 110.69"/><path class="cls-129" d="M118.92,49.69,75.49,24.61c-5.14-3-14.12-2.59-20.06.84L15.27,48.64c-2.82,1.62-4.43,3.65-4.81,5.64h-.1v6.13l.25.16L56.7,87.19c5.46,3.15,15,2.75,21.29-.89l42.62-24.61a14.52,14.52,0,0,0,1.78-1.2V54.28h0C122.19,52.56,121.07,50.93,118.92,49.69Z"/><path class="cls-130" d="M125.82,35.59h-1.18a8.57,8.57,0,0,0-2.5-2.1L76.05,6.88c-5.46-3.15-15-2.76-21.28.88L12.14,32.37a12.62,12.62,0,0,0-3.81,3.22H6.93V51.68H7c.17,1.83,1.36,3.55,3.64,4.87L56.7,83.16c5.46,3.15,15,2.75,21.29-.88l42.62-24.61c3-1.73,4.7-3.88,5.11-6h.1Z"/><path class="cls-131" d="M56.7,67.94,10.61,41.33C5.16,38.18,5.84,32.68,12.14,29L54.77,4.43C61.06.8,70.59.4,76.05,3.55l46.09,26.61c5.46,3.15,4.77,8.65-1.53,12.29L78,67.06C71.69,70.7,62.16,71.09,56.7,67.94Z"/><path class="cls-132" d="M120.61,41.5,78,66.11c-6.3,3.64-15.83,4-21.29.88L10.61,40.38A6.62,6.62,0,0,1,7,35.72c-.33,2.27.84,4.48,3.62,6.09L56.7,68.42c5.46,3.15,15,2.75,21.29-.88l42.62-24.61c3.77-2.18,5.52-5,5.15-7.63C125.44,37.48,123.7,39.71,120.61,41.5Z"/><path class="cls-133" d="M108.46,32V24.77H24.91V33h0c-.51,3.77,1.49,7.44,6.12,10.12L50.22,54.15c9.19,5.3,25.22,4.64,35.83-1.48l13.71-7.92C106.05,41.12,109,36.38,108.46,32Z"/><path class="cls-134" d="M50.22,44.74,31,33.66C21.86,28.36,23,19.1,33.61,13L47.33,5.06C57.93-1.06,74-1.72,83.15,3.58l19.18,11.07c9.18,5.31,8,14.57-2.57,20.69L86.05,43.25C75.45,49.37,59.41,50,50.22,44.74Z"/><path class="cls-135" d="M99.76,34.62,86.05,42.54C75.45,48.66,59.41,49.32,50.22,44L31,32.94c-3.94-2.27-6-5.28-6.17-8.45-.08,3.43,1.93,6.73,6.17,9.17L50.22,44.74c9.19,5.3,25.23,4.63,35.83-1.49l13.71-7.91c6-3.5,9-8,8.74-12.23C108.41,27.12,105.47,31.32,99.76,34.62Z"/><ellipse class="cls-136" cx="66.69" cy="23.56" rx="15.31" ry="26.52" transform="translate(42.77 90.12) rotate(-89.69)"/><path class="cls-137" d="M47.88,21.75c10.32-6,27.11-5.93,37.5.07A16.76,16.76,0,0,1,92,28.17c2.81-5.25.61-11.22-6.63-15.4-10.39-6-27.18-6-37.5-.07-7.16,4.13-9.32,10.05-6.52,15.3A16.56,16.56,0,0,1,47.88,21.75Z"/><path class="cls-138" d="M87,19.81c-5.52-3.16-14.65-.49-19,1.69a3.63,3.63,0,0,1,.79-4.34c2-1.78,4.87-2.55,3.84-4.24-1.44-2.36-7.59-4-12.5-1.15-5.45,3.17-.77,8.46,3,11a16.82,16.82,0,0,1-7.52-.49c-3.1-1.16-4.45-2.83-7.38-2.24-4.07.81-6.87,4.36-1.9,7.21,5.52,3.16,14.65.5,19-1.69a3.65,3.65,0,0,1-.8,4.34c-2,1.78-4.87,2.55-3.84,4.24,1.44,2.36,7.59,4,12.5,1.15,5.45-3.17.77-8.46-3-11a17,17,0,0,1,7.52.49c3.09,1.16,4.44,2.83,7.37,2.24C89.17,26.21,92,22.67,87,19.81Z"/><g class="cls-139"><path class="cls-140" d="M62.45,22.26l.72-.09c-2.48-1.65-5.31-4.46-5.49-7.1C57.45,17.62,60,20.44,62.45,22.26Z"/><path class="cls-141" d="M65.74,27a4.46,4.46,0,0,0-.36-2c-4.36,2.18-13.49,4.84-19,1.68-1.73-1-2.5-2.06-2.62-3.08-.16,1.18.55,2.48,2.62,3.67,5.52,3.16,14.65.5,19-1.69A4.89,4.89,0,0,1,65.74,27Z"/><path class="cls-142" d="M68.79,16.57a3.31,3.31,0,0,0-1.16,2.89,3.28,3.28,0,0,1,1.16-2.3c1.83-1.64,4.42-2.42,4-3.86C72.47,14.39,70.35,15.17,68.79,16.57Z"/><path class="cls-143" d="M85.1,26.44c-2.93.58-4.28-1.09-7.37-2.25a16.8,16.8,0,0,0-7.52-.48c.23.15.47.32.71.5a16,16,0,0,1,6.81.57c3.09,1.16,4.44,2.83,7.37,2.24,2.66-.53,4.76-2.22,4.53-4.13C89.41,24.55,87.48,26,85.1,26.44Z"/><path class="cls-144" d="M73.24,34.69c-4.91,2.85-11.06,1.21-12.5-1.14a1.4,1.4,0,0,1-.16-.39,1.14,1.14,0,0,0,.16,1c1.44,2.36,7.59,4,12.5,1.15,1.9-1.11,2.55-2.47,2.46-3.89A4.29,4.29,0,0,1,73.24,34.69Z"/></g><path class="cls-145" d="M57.68,15.07h0v0Z"/><path class="cls-146" d="M57.67,15.6v2.52c-.13,1.62.84,3.34,2.2,4.85a22.64,22.64,0,0,0,3.3-.21C60.67,21.1,57.82,18.26,57.67,15.6Z"/><path class="cls-147" d="M43.73,23.74h0v.15C43.72,23.84,43.73,23.79,43.73,23.74Z"/><path class="cls-148" d="M68.79,20.2c1.76-1.58,4.22-2.37,4-3.7V13.74c-.17,1.17-2.41,2-4,3.42a3.57,3.57,0,0,0-.85,4.19A3.39,3.39,0,0,1,68.79,20.2Z"/><path class="cls-149" d="M89.64,23c.16,1.87-1.92,3.52-4.54,4-2.93.59-4.28-1.08-7.37-2.24a17,17,0,0,0-7.52-.49,18.44,18.44,0,0,1,3.3,2.83,13,13,0,0,1,4.22.7c3.09,1.15,4.44,2.83,7.37,2.24,2.53-.51,4.57-2.07,4.56-3.87h0V23Z"/><path class="cls-150" d="M65.44,28.75a3.93,3.93,0,0,0-.06-3.2c-4.36,2.19-13.49,4.85-19,1.69-1.85-1.06-2.62-2.22-2.65-3.3V27h0c.05,1.07.82,2.21,2.65,3.25,5.52,3.17,14.65.5,19-1.68Z"/><path class="cls-151" d="M73.24,38.31a4.31,4.31,0,0,0,2.45-3.23h0V31.55h0c0,1.36-.63,2.66-2.46,3.73-4.91,2.85-11.06,1.21-12.5-1.15a1.38,1.38,0,0,1-.21-.62h0v2.87h0a1.2,1.2,0,0,0,.2.8,4.44,4.44,0,0,0,1.69,1.47A45.63,45.63,0,0,0,73,38.43,1.67,1.67,0,0,0,73.24,38.31Z"/><path class="cls-152" d="M70.57,25.77a8.55,8.55,0,0,1-7.74,0c-2.14-1.24-2.15-3.24,0-4.46a8.53,8.53,0,0,1,7.73,0C72.69,22.54,72.7,24.54,70.57,25.77Z"/><path class="cls-153" d="M70.57,25.18a8.55,8.55,0,0,1-7.74,0,2.88,2.88,0,0,1-1.57-1.95,2.56,2.56,0,0,0,1.57,2.54,8.55,8.55,0,0,0,7.74,0,2.54,2.54,0,0,0,1.54-2.52A2.86,2.86,0,0,1,70.57,25.18Z"/><ellipse class="cls-154" cx="67.07" cy="134.49" rx="16.48" ry="81.62"/><polygon class="cls-155" points="90.95 209.24 90.95 223.33 85.88 220.29 85.88 206.2 90.95 209.24"/><polygon class="cls-156" points="90.94 209.24 90.94 223.33 117.97 207.67 117.97 193.59 90.94 209.24"/><polygon class="cls-157" points="115.52 205.87 115.52 197.85 93.39 210.65 93.39 218.68 115.52 205.87"/><polygon class="cls-158" points="117.97 193.59 90.94 209.24 85.88 206.2 112.93 190.54 117.97 193.59"/><path class="cls-159" d="M102.31,209.11a1.15,1.15,0,0,0,.46,1l.53.31c.3.17.11-.21.56-.47a3.6,3.6,0,0,0,1.64-2.83c0-.52.48-.52.18-.69l-.58-.32a1.17,1.17,0,0,0-1.15.13A3.63,3.63,0,0,0,102.31,209.11Z"/><path class="cls-160" d="M102.88,209.43c0,1,.74,1.46,1.64.94a3.63,3.63,0,0,0,1.65-2.83c0-1-.74-1.46-1.65-.94A3.63,3.63,0,0,0,102.88,209.43Z"/><path class="cls-161" d="M103.28,209.36a1,1,0,0,0,.4.89l.79.48c.26.14.09-.18.48-.41a3.09,3.09,0,0,0,1.41-2.43c0-.44.41-.44.16-.59l-.85-.48a1,1,0,0,0-1,.11A3.11,3.11,0,0,0,103.28,209.36Z"/><path class="cls-162" d="M104.11,209.84c0,.9.63,1.26,1.41.81a3.11,3.11,0,0,0,1.41-2.43c0-.9-.63-1.26-1.41-.81A3.11,3.11,0,0,0,104.11,209.84Z"/><path class="cls-163" d="M104.86,209.61c0,.51.36.72.81.46a1.78,1.78,0,0,0,.81-1.4c0-.51-.36-.72-.81-.46A1.78,1.78,0,0,0,104.86,209.61Z"/><path class="cls-164" d="M104.45,206.56a1.2,1.2,0,0,1,1.12-.14,1.28,1.28,0,0,0-1,.2,3.6,3.6,0,0,0-1.64,2.83,1.12,1.12,0,0,0,.51,1.07c-.4-.11-.66-.51-.66-1.13A3.61,3.61,0,0,1,104.45,206.56Z"/><path class="cls-165" d="M105.46,207.38a1,1,0,0,1,1-.12,1.11,1.11,0,0,0-.85.16,3.14,3.14,0,0,0-1.42,2.45,1,1,0,0,0,.45.92c-.34-.09-.57-.44-.57-1A3.12,3.12,0,0,1,105.46,207.38Z"/><path class="cls-166" d="M96.49,212.46a1.15,1.15,0,0,0,.46,1l.53.31c.3.16.11-.21.56-.47a3.61,3.61,0,0,0,1.64-2.83c0-.52.48-.52.19-.69l-.59-.32a1.17,1.17,0,0,0-1.15.13A3.63,3.63,0,0,0,96.49,212.46Z"/><path class="cls-167" d="M97.06,212.78c0,1,.74,1.46,1.64.93a3.61,3.61,0,0,0,1.65-2.83c0-1-.74-1.46-1.65-.93A3.63,3.63,0,0,0,97.06,212.78Z"/><path class="cls-168" d="M97.46,212.71a1,1,0,0,0,.4.89l.79.47c.26.15.09-.18.48-.4a3.11,3.11,0,0,0,1.41-2.43c0-.44.41-.45.16-.59l-.84-.48a1,1,0,0,0-1,.11A3.08,3.08,0,0,0,97.46,212.71Z"/><path class="cls-169" d="M98.29,213.19c0,.89.63,1.25,1.41.8a3.09,3.09,0,0,0,1.41-2.43c0-.89-.63-1.25-1.41-.8A3.11,3.11,0,0,0,98.29,213.19Z"/><path class="cls-164" d="M98.63,209.91a1.17,1.17,0,0,1,1.12-.14,1.28,1.28,0,0,0-1,.19,3.61,3.61,0,0,0-1.64,2.83,1.13,1.13,0,0,0,.51,1.08c-.4-.11-.66-.51-.66-1.13A3.61,3.61,0,0,1,98.63,209.91Z"/><path class="cls-170" d="M99.64,210.72a1.06,1.06,0,0,1,1-.12,1.17,1.17,0,0,0-.85.17,3.12,3.12,0,0,0-1.42,2.44,1,1,0,0,0,.45.93.92.92,0,0,1-.57-1A3.13,3.13,0,0,1,99.64,210.72Z"/><path class="cls-163" d="M99,213c0,.51.37.72.82.46a1.79,1.79,0,0,0,.81-1.4c0-.52-.36-.73-.81-.47A1.8,1.8,0,0,0,99,213Z"/><path class="cls-171" d="M108.23,205.76a1.15,1.15,0,0,0,.46,1l.53.31c.3.16.11-.21.56-.47a3.61,3.61,0,0,0,1.64-2.83c0-.52.48-.52.19-.69l-.59-.32a1.17,1.17,0,0,0-1.15.13A3.63,3.63,0,0,0,108.23,205.76Z"/><path class="cls-172" d="M108.8,206.08c0,1,.74,1.46,1.65.93a3.63,3.63,0,0,0,1.64-2.83c0-1-.74-1.46-1.64-.93A3.61,3.61,0,0,0,108.8,206.08Z"/><path class="cls-173" d="M109.2,206a1,1,0,0,0,.4.89l.79.47c.26.15.1-.18.48-.4a3.11,3.11,0,0,0,1.41-2.43c0-.44.41-.45.16-.59l-.84-.48a1,1,0,0,0-1,.11A3.09,3.09,0,0,0,109.2,206Z"/><path class="cls-174" d="M110,206.49c0,.89.63,1.25,1.41.8a3.09,3.09,0,0,0,1.41-2.43c0-.89-.63-1.25-1.41-.8A3.11,3.11,0,0,0,110,206.49Z"/><path class="cls-163" d="M110.78,206.26c0,.51.36.72.81.46a1.8,1.8,0,0,0,.82-1.4c0-.52-.37-.73-.82-.47A1.79,1.79,0,0,0,110.78,206.26Z"/><path class="cls-164" d="M110.37,203.21a1.17,1.17,0,0,1,1.12-.14,1.28,1.28,0,0,0-1,.19,3.61,3.61,0,0,0-1.64,2.83,1.12,1.12,0,0,0,.52,1.08c-.41-.11-.66-.51-.66-1.13A3.6,3.6,0,0,1,110.37,203.21Z"/><path class="cls-175" d="M111.38,204a1.06,1.06,0,0,1,1-.12,1.17,1.17,0,0,0-.85.17,3.12,3.12,0,0,0-1.41,2.44,1,1,0,0,0,.44.93.91.91,0,0,1-.57-1A3.14,3.14,0,0,1,111.38,204Z"/><polygon class="cls-176" points="46.91 113.9 46.91 160.09 20.87 144.99 20.87 98.82 46.91 113.9"/><polygon class="cls-157" points="23.23 143.25 23.23 102.92 44.55 115.26 44.55 155.6 23.23 143.25"/><polygon class="cls-177" points="25.16 122.87 25.16 106.27 42.63 116.37 42.63 132.98 25.16 122.87"/><polygon class="cls-178" points="30.23 133.78 25.2 130.88 25.2 128.13 30.23 131.04 30.23 133.78"/><polygon class="cls-179" points="36.38 137.33 31.35 134.43 31.35 131.68 36.38 134.59 36.38 137.33"/><polygon class="cls-180" points="42.52 140.88 37.49 137.97 37.49 135.23 42.52 138.13 42.52 140.88"/><polygon class="cls-181" points="30.23 138.52 25.2 135.62 25.2 132.87 30.23 135.78 30.23 138.52"/><polygon class="cls-182" points="36.38 142.07 31.35 139.17 31.35 136.42 36.38 139.33 36.38 142.07"/><polygon class="cls-183" points="42.52 145.62 37.49 142.72 37.49 139.97 42.52 142.88 42.52 145.62"/><polygon class="cls-184" points="30.23 143.15 25.2 140.24 25.2 137.5 30.23 140.41 30.23 143.15"/><polygon class="cls-185" points="36.38 146.7 31.35 143.79 31.35 141.05 36.38 143.95 36.38 146.7"/><polygon class="cls-186" points="42.52 150.25 37.49 147.34 37.49 144.6 42.52 147.5 42.52 150.25"/><rect class="cls-187" x="212.04" y="148.53" width="64.84" height="1.5" transform="translate(-41.86 141.22) rotate(-29.8)"/><rect class="cls-188" x="167.66" y="122.94" width="64.84" height="1.5" transform="translate(-35.01 115.8) rotate(-29.8)"/><polygon class="cls-189" points="289.59 176.84 257.04 158.45 220.98 179.09 220.23 177.79 257.04 156.72 289.58 175.11 317.98 158.86 318.73 160.16 289.59 176.84"/><ellipse class="cls-190" cx="198.63" cy="205.61" rx="36.34" ry="14.59"/><g class="cls-191"><path class="cls-192" d="M245.65,140.22c-14.12-8-27.93-20.9-39.5-36.86l-.16-.09c-11.57,2.6-25.38-.46-39.5-8.75L166,94.2l-18.31,10.46,8.57,5.63c2.68,35.75,16.63,65.09,39.08,99.83l.55.32c4-1.58-2.08,2.07,1.39.11L218.06,199c15.58-8.94,25.19-22.65,27.37-49.18l.76-9.28Z"/><path class="cls-193" d="M245.65,140.22c-14.12-8-27.93-20.9-39.5-36.86l-.16-.1c-11.57,2.61-25.38-.45-39.5-8.74L166,94.2l-2,1.25.54.31c14.12,8.3,27.93,11.36,39.5,8.75l.16.09c11.57,16,25.38,28.86,39.5,36.87l.54.31-.76,9.28c-2,24.87-10.62,38.48-24.52,47.45,15.09-8.95,24.41-22.64,26.55-48.7l.76-9.28Z"/><path class="cls-194" d="M245.65,140.22c-14.12-8-27.93-20.9-39.5-36.86l-.16-.09-.22,0-39.26,22.63,58.19,26.69,21.49-12.1Z"/><path class="cls-195" d="M166.36,105.34,166,96.6c-.51-.28-1-.56-1.52-.86l-.54-.32.76,10.17a162.59,162.59,0,0,0,12.89,52.1A162.42,162.42,0,0,1,166.36,105.34Z"/></g><g class="cls-196"><path class="cls-197" d="M203.64,51.46h0a26.92,26.92,0,0,0-40.36,23.33v49.83h0s0,0,0,.06c0,2.84,4,5.15,8.84,5.15s8.83-2.31,8.83-5.15a.34.34,0,0,0,0-.1h.1v-46a11.41,11.41,0,0,1,17.09-9.89h0a28.47,28.47,0,0,1,14.28,24.67V152.9h.09c.1,2.79,4,5,8.83,5s8.78-2.28,8.83-5.1h0V97.35A53,53,0,0,0,203.64,51.46Z"/><path class="cls-198" d="M168.76,127.05h0V79A25.17,25.17,0,0,1,193.89,53.9a24.76,24.76,0,0,1,12.49,3.39,50.89,50.89,0,0,1,7.12,5A51.06,51.06,0,0,0,202.73,54a24.76,24.76,0,0,0-12.49-3.39A25.17,25.17,0,0,0,165.1,75.7v48h0v1.82a.49.49,0,0,1,0,.12c.06,1.07,1.48,2.21,3.66,2.82Z"/><path class="cls-199" d="M217.91,155.92h0V98.19a30.34,30.34,0,0,0-11.81-24,30.34,30.34,0,0,1,8.16,20.64v57.73h0l.06,1.77c0,1.07,1.47,2.21,3.63,2.83Z"/><path class="cls-200" d="M185.17,60.26a14.47,14.47,0,0,0-14.46,14.46v51.13l-.09,3.16c-.07.27,4.94-.14,5.06-.61l.09-3.16V74.11A14.49,14.49,0,0,1,186,60.28Z"/><path class="cls-201" d="M200.6,55.76a23.54,23.54,0,0,0-11.88-3.22,23.07,23.07,0,0,0-5.2.61h.14a23.58,23.58,0,0,1,11.88,3.23,50.06,50.06,0,0,1,25,43.26V157.5c0,.25,5.06-.19,5.06-.61V99A50.07,50.07,0,0,0,200.6,55.76Z"/><path class="cls-202" d="M176.48,80v48.31c2-.62,3.3-1.7,3.36-2.72v0l.1-2V79.37a13.26,13.26,0,0,1,9.23-12.63A13.26,13.26,0,0,0,176.48,80Z"/><g class="cls-203"><path class="cls-204" d="M203.87,54.05a25.59,25.59,0,0,0-5.73-2.44,56.13,56.13,0,0,1,27.24,48v57c2.41-.58,4-1.81,4-3V98.25A51.15,51.15,0,0,0,203.87,54.05Z"/></g></g><path class="cls-205" d="M230.6,148.77c-14.13-8-27.93-20.9-39.51-36.86l-.15-.09c-11.57,2.6-25.38-.46-39.51-8.75l-.54-.32-3.25,1.91,8.57,5.63c2.68,35.75,16.63,65.09,39.08,99.83l.55.32c4-1.58-2.08,2.07,1.39.11.15-.08,5.63-2.92,5.77-3,15.58-8.93,25.2-22.65,27.38-49.17l.76-9.29Z"/><path class="cls-206" d="M230.6,148.77c-14.13-8-27.93-20.9-39.51-36.86l-.15-.09-.23,0-24.2,14.08,58.19,26.69,6.44-3.55Z"/><path class="cls-207" d="M228.27,150.09c-14.13-8-27.93-20.9-39.51-36.87l-.15-.09c-11.58,2.6-25.38-.45-39.51-8.75l-.54-.31.77,10.16C152,150,166,179.32,188.41,214.07l.55.31c22.45-8.81,36.4-22,39.08-54.7l.77-9.29Z"/><path class="cls-208" d="M227.22,150.5c-14.12-8-27.93-20.9-39.5-36.86l-.16-.09c-11.57,2.6-25.38-.45-39.5-8.75l-.54-.32.76,10.17c2.68,35.75,16.64,65.09,39.09,99.83l.55.32c22.45-8.82,36.4-22.05,39.08-54.7l.76-9.29Z"/><path class="cls-209" d="M227.22,150.5c-14.12-8-27.93-20.9-39.5-36.86l-.16-.09c-11.57,2.6-25.38-.45-39.5-8.75l-.54-.32.76,10.17c2.68,35.75,16.64,65.09,39.09,99.83l.55.32c22.45-8.82,36.4-22.05,39.08-54.7l.76-9.29Z"/><path class="cls-210" d="M227.22,150.5l-.7-.41-.76,9.2c-2.67,32.5-16.51,45.76-38.78,54.58l.39.61.55.32c22.45-8.82,36.4-22.05,39.08-54.7l.76-9.29Z"/><path class="cls-211" d="M189.36,209.49c-20.19-31.59-34.09-60.11-36.72-95.17l-.16-2.21c9.2,4.41,18.32,6.71,26.7,6.71a44.27,44.27,0,0,0,6.57-.48c11.14,14.86,24,26.85,37.43,34.87l-.54,6.53C220.18,189.75,208.13,201.49,189.36,209.49Z"/><path class="cls-212" d="M155.47,113.8l0-.35c-1-.42-2-.87-3-1.34l.16,2.21c2.63,35.06,16.53,63.58,36.72,95.17.83-.36,1.65-.73,2.46-1.1C171.84,177,158.09,148.65,155.47,113.8Z"/><path class="cls-213" d="M195.39,156.42a14.92,14.92,0,0,0-6.76-11.66c-3.73-2.15-6.76-.43-6.76,3.86a14.69,14.69,0,0,0,3.42,8.71V170.9l6.68,3.86V161.19C194,161,195.39,159.31,195.39,156.42Z"/><path class="cls-214" d="M188.46,169.48V155.9a14.69,14.69,0,0,1-3.42-8.71,5.75,5.75,0,0,1,.9-3.34c-2.39-.19-4.07,1.58-4.07,4.77a14.69,14.69,0,0,0,3.42,8.71V170.9l6.68,3.86v-3.25Z"/><path class="cls-215" d="M188.46,169.48V155.9a14.69,14.69,0,0,1-3.42-8.71,5.75,5.75,0,0,1,.9-3.34c-2.39-.19-4.07,1.58-4.07,4.77a14.69,14.69,0,0,0,3.42,8.71V170.9l6.68,3.86v-3.25Z"/><path class="cls-216" d="M183.84,103.94c0,3.31-4.6,6-10.28,6s-10.28-2.68-10.28-6,4.6-6,10.28-6S183.84,100.64,183.84,103.94Z"/><path class="cls-217" d="M232.46,132.06c0,3.21-4.47,5.81-10,5.81s-10-2.6-10-5.81,4.47-5.82,10-5.82S232.46,128.84,232.46,132.06Z"/><path class="cls-218" d="M203.64,51.36h0a26.92,26.92,0,0,0-40.36,23.33v29.19h0s0,0,0,.06c0,2.85,4,5.15,8.84,5.15s8.83-2.3,8.83-5.15a.38.38,0,0,0,0-.1h.1V78.45a11.41,11.41,0,0,1,17.09-9.89h0a28.46,28.46,0,0,1,14.28,24.67v38.93h.09c.1,2.79,4,5,8.83,5s8.78-2.28,8.83-5.09h0V97.25A53,53,0,0,0,203.64,51.36Z"/><path class="cls-219" d="M168.76,106.31h0V78.94A25.17,25.17,0,0,1,193.89,53.8a24.76,24.76,0,0,1,12.49,3.39,50.89,50.89,0,0,1,7.12,5,51.06,51.06,0,0,0-10.77-8.31,24.76,24.76,0,0,0-12.49-3.39A25.17,25.17,0,0,0,165.1,75.6V103h0v1.82a.57.57,0,0,1,0,.13c.06,1.06,1.48,2.21,3.66,2.82Z"/><path class="cls-220" d="M217.91,135.19h0V98.09a30.34,30.34,0,0,0-11.81-24,30.34,30.34,0,0,1,8.16,20.64v37.1h0l.06,1.78c0,1.06,1.47,2.21,3.63,2.82Z"/><path class="cls-221" d="M185.17,60.15a14.48,14.48,0,0,0-14.46,14.47v30.49l-.09,3.17c-.07.26,4.94-.15,5.06-.61l.09-3.17V74A14.49,14.49,0,0,1,186,60.18C185.72,60.17,185.45,60.15,185.17,60.15Z"/><path class="cls-222" d="M200.6,55.66a23.54,23.54,0,0,0-11.88-3.22,23.07,23.07,0,0,0-5.2.61h.14a23.58,23.58,0,0,1,11.88,3.23,50.06,50.06,0,0,1,25,43.26v37.24c0,.24,5.06-.19,5.06-.61V98.92A50.05,50.05,0,0,0,200.6,55.66Z"/><path class="cls-223" d="M176.48,79.87v27.67c2-.62,3.3-1.7,3.36-2.71v0l.1-2V79.26a13.26,13.26,0,0,1,9.23-12.62A13.26,13.26,0,0,0,176.48,79.87Z"/><g class="cls-203"><path class="cls-224" d="M203.87,54a25.59,25.59,0,0,0-5.73-2.44,56.13,56.13,0,0,1,27.24,48v36.31c2.41-.58,4-1.81,4-3V98.15A51.14,51.14,0,0,0,203.87,54Z"/></g><path class="cls-225" d="M193.85,53.9A27.93,27.93,0,0,1,207,57.2,50.56,50.56,0,0,0,202.12,54a23.55,23.55,0,0,0-11.88-3.23c-11.5,0-23.92,9.15-23.92,23.93v.06C169.88,61.7,182.25,53.9,193.85,53.9Z"/><path class="cls-226" d="M215.44,94a31,31,0,0,0-8.3-25.62c-7.7-8.12-17-10.23-21.85-2.44a14.33,14.33,0,0,1,14.35,0,31.56,31.56,0,0,1,15.8,27.3Z"/><polygon class="cls-227" points="154.97 170.63 154.97 191.14 130.33 205.03 111.58 205.03 111.58 206.35 130.67 206.35 156.3 191.92 156.3 171.4 189.19 152.2 189.19 150.66 154.97 170.63"/><polygon class="cls-228" points="189.19 162.01 162.41 177.63 162.41 198.15 137.77 212.03 99.81 212.03 99.81 213.36 138.11 213.36 163.74 198.92 163.74 178.4 189.19 163.55 189.19 162.01"/><polygon class="cls-229" points="134.05 208.53 105.68 208.53 105.68 209.85 134.39 209.85 160.02 195.42 160.02 174.9 189.19 157.87 189.19 156.34 158.69 174.13 158.69 194.64 134.05 208.53"/></g></g></g></svg>