<svg id="Layer_1" data-name="Layer 1" xmlns="http://www.w3.org/2000/svg" xmlns:xlink="http://www.w3.org/1999/xlink" viewBox="0 0 500 70"><defs><style>.cls-1{fill:url(#New_Gradient_Swatch_1);}.cls-2{fill:#fff;}</style><linearGradient id="New_Gradient_Swatch_1" y1="35" x2="75.17" y2="35" gradientUnits="userSpaceOnUse"><stop offset="0" stop-color="#f15a24"/><stop offset="1" stop-color="#d4145a"/></linearGradient></defs><path class="cls-1" d="M31,66.1.93,11.1A7.5,7.5,0,0,1,7.51,0H67.66a7.5,7.5,0,0,1,6.58,11.1l-30.07,55A7.5,7.5,0,0,1,31,66.1Z"/><path class="cls-2" d="M35.07,41.15H26a1.43,1.43,0,0,1-1.24-.76L16.92,26.15,10,13.42h0a1.52,1.52,0,0,1,1.24-2.27h9.12a1.4,1.4,0,0,1,1.24.75l14.76,27A1.52,1.52,0,0,1,35.07,41.15Z"/><path class="cls-2" d="M64,11.15a1.51,1.51,0,0,1,1.24,2.27h0l-7,12.73-8.2,15L43.8,52.57l-2,3.58-3,5.52a1.39,1.39,0,0,1-2.48,0l-3-5.52-1.55-2.82a1.61,1.61,0,0,1,0-1.51L37.59,41.2l0-.05,16-29.25a1.4,1.4,0,0,1,1.24-.75Z"/><path d="M100.48,12a3.75,3.75,0,0,1-.24-.94c0-.71.39-1.06,1.18-1.06h6.25a1.46,1.46,0,0,1,1.3.83L133,58a4.05,4.05,0,0,1,.23.94c0,.71-.39,1.06-1.18,1.06h-5.89a1.19,1.19,0,0,1-1.18-.83Zm36.08,38.92a1,1,0,0,1-.7.47.63.63,0,0,1-.71-.47l-3.07-5.42a3.66,3.66,0,0,1-.23-1.07,1.83,1.83,0,0,1,.23-.82l16-32.55c.24-.55.47-.86.71-.94a2.15,2.15,0,0,1,.7-.12h5.08c.86,0,1.29.39,1.29,1.18a5.36,5.36,0,0,1-.23.82Z"/><path d="M169.34,12a1.94,1.94,0,0,1,.59-1.41,2,2,0,0,1,1.42-.59h4.48a2,2,0,0,1,1.42.59,1.93,1.93,0,0,1,.58,1.41V58a1.92,1.92,0,0,1-.58,1.41,2,2,0,0,1-1.42.59h-4.48a2,2,0,0,1-1.42-.59,1.93,1.93,0,0,1-.59-1.41Z"/><path d="M197.17,47a2,2,0,0,1,2-2h3.89A1.72,1.72,0,0,1,205,46.67a8,8,0,0,0,2.47,4.19,6.46,6.46,0,0,0,4.49,1.71H232.2a6.48,6.48,0,0,0,5-2.18,7.31,7.31,0,0,0,2-5.13,7.12,7.12,0,0,0-2-5.07,6.53,6.53,0,0,0-5-2.12H212.74A14,14,0,0,1,207.26,37a14.22,14.22,0,0,1-4.48-2.94,13.91,13.91,0,0,1-3.07-4.43,13.33,13.33,0,0,1-1.12-5.48,13.36,13.36,0,0,1,1.12-5.48,14.79,14.79,0,0,1,7.55-7.55A13.33,13.33,0,0,1,212.74,10H232a13.63,13.63,0,0,1,5,.94,13.8,13.8,0,0,1,4.25,2.6,15,15,0,0,1,3.07,3.89,14,14,0,0,1,1.59,4.83,1.78,1.78,0,0,1-2,2H240.1a1.79,1.79,0,0,1-2-1.65,6.45,6.45,0,0,0-2.24-3.72,6.25,6.25,0,0,0-4.12-1.47H212.62a6.18,6.18,0,0,0-4.6,1.93A6.37,6.37,0,0,0,206.14,24,6.58,6.58,0,0,0,208,28.65a6.09,6.09,0,0,0,4.6,2h19.46a15,15,0,0,1,10.5,4.2,14.76,14.76,0,0,1,3.18,4.62,14.55,14.55,0,0,1,0,11.48,15.51,15.51,0,0,1-3.18,4.68,15.21,15.21,0,0,1-4.72,3.2A14.3,14.3,0,0,1,232.08,60H211.8a14.43,14.43,0,0,1-5.37-1A14.59,14.59,0,0,1,202,56.23a15.76,15.76,0,0,1-3.24-4.13A12.63,12.63,0,0,1,197.17,47Z"/><path d="M258.14,12a2,2,0,0,1,2-2H307a1.91,1.91,0,0,1,1.48.59A2.06,2.06,0,0,1,309,12v3.42a2,2,0,0,1-.53,1.42,1.91,1.91,0,0,1-1.48.59H260.15a2,2,0,0,1-2-2Zm21.11,13.33a1.77,1.77,0,0,1,2-2h4.49a1.77,1.77,0,0,1,2,2V58a2,2,0,0,1-.53,1.41,1.89,1.89,0,0,1-1.47.59h-4.49a1.88,1.88,0,0,1-1.47-.59,2,2,0,0,1-.53-1.41Z"/><path d="M335.62,12a3.22,3.22,0,0,1,1.23-1.41,3.12,3.12,0,0,1,1.71-.59h4.25a3.12,3.12,0,0,1,1.71.59A4.34,4.34,0,0,1,345.88,12l24.41,46a4.05,4.05,0,0,1,.23.94c0,.71-.39,1.06-1.18,1.06h-5.42a2.4,2.4,0,0,1-2.12-1.42l-5.55-10.37h-23c-.79,0-1.18-.36-1.18-1.06a4.1,4.1,0,0,1,.23-.95l1.89-3.65a2.42,2.42,0,0,1,2.12-1.42h16.16L340.57,17.9,319.81,58.58a2.11,2.11,0,0,1-.88,1,2.37,2.37,0,0,1-1.24.41h-5.07c-.79,0-1.18-.35-1.18-1.06a3.75,3.75,0,0,1,.24-.94Z"/><path d="M402.48,12a3.24,3.24,0,0,1,1.24-1.41,3.12,3.12,0,0,1,1.71-.59h4.24a3.12,3.12,0,0,1,1.71.59A4.34,4.34,0,0,1,412.74,12l24.41,46a4.05,4.05,0,0,1,.23.94c0,.71-.39,1.06-1.18,1.06h-5.42a2.41,2.41,0,0,1-2.12-1.42l-5.55-10.37h-23c-.79,0-1.18-.36-1.18-1.06a3.78,3.78,0,0,1,.24-.95l1.88-3.65a2.43,2.43,0,0,1,2.13-1.42h16.15L407.43,17.9,386.68,58.58a2.19,2.19,0,0,1-.89,1,2.34,2.34,0,0,1-1.24.41h-5.07c-.78,0-1.18-.35-1.18-1.06a3.75,3.75,0,0,1,.24-.94Z"/><path d="M482.67,10a15.28,15.28,0,0,1,6.07,1.18,14.6,14.6,0,0,1,4.77,3.24,15.94,15.94,0,0,1,3.19,4.78,14.72,14.72,0,0,1,1.18,5.89,14.52,14.52,0,0,1-3.3,9.62,15.1,15.1,0,0,1-8.38,5.12L499.65,58a2.29,2.29,0,0,1,.35,1.17c0,.56-.31.83-.94.83h-6.49a1.56,1.56,0,0,1-.77-.24,1.74,1.74,0,0,1-.64-.59l-14-18.86h-9a2,2,0,0,1-2-2V35.24a2,2,0,0,1,2-2h14.15a7.68,7.68,0,0,0,8-8A7.34,7.34,0,0,0,488,19.67a7.94,7.94,0,0,0-5.66-2.24h-22.4V58a1.93,1.93,0,0,1-.59,1.41,2,2,0,0,1-1.42.59h-4.24a2,2,0,0,1-2-2V12a2,2,0,0,1,2-2Z"/></svg>