<svg xmlns="http://www.w3.org/2000/svg" viewBox="0 0 512 168"><defs><style>.cls-1{fill:#5cb2e4;}.cls-2{fill:#fff;}</style></defs><g id="Windows_OS" data-name="Windows OS"><path d="M512,145.29A22.67,22.67,0,0,1,489.37,168H22.63A22.68,22.68,0,0,1,0,145.29V22.7A22.67,22.67,0,0,1,22.63,0H489.37A22.67,22.67,0,0,1,512,22.7Z"/><path class="cls-1" d="M135,34.59c-17.19,2.36-33.1,4.6-49.55,6.85V80.93H135Z"/><path class="cls-1" d="M40.68,118.61c13.41,1.93,26.44,4.13,39.46,6V85.19H40.68Z"/><path class="cls-1" d="M135,85H85.45v40.45c16.6,2.64,32.63,5.29,49.55,8Z"/><path class="cls-1" d="M40.68,47.27V80.93h39.9V42.21Z"/><path class="cls-2" d="M150.51,68.3V43.09h7.28q13.94,0,13.94,12.29a12.09,12.09,0,0,1-3.87,9.37Q164,68.31,157.49,68.3Zm4.17-21.66V64.76H158a9.35,9.35,0,0,0,6.86-2.42,9.24,9.24,0,0,0,2.45-6.86q0-8.83-9.16-8.84Z"/><path class="cls-2" d="M183.86,68.72a8.94,8.94,0,0,1-6.66-2.52,9.14,9.14,0,0,1-2.49-6.69,8.9,8.9,0,0,1,9.58-9.64,8.65,8.65,0,0,1,6.58,2.48,9.6,9.6,0,0,1,2.35,6.88,9.41,9.41,0,0,1-2.54,6.9A9.14,9.14,0,0,1,183.86,68.72Zm.19-15.59a4.65,4.65,0,0,0-3.78,1.67,6.94,6.94,0,0,0-1.39,4.6,6.59,6.59,0,0,0,1.41,4.46,4.72,4.72,0,0,0,3.76,1.62,4.48,4.48,0,0,0,3.7-1.6A7.07,7.07,0,0,0,189,59.33a7.21,7.21,0,0,0-1.29-4.59A4.48,4.48,0,0,0,184.05,53.13Z"/><path class="cls-2" d="M221.58,50.3l-5.31,18H212l-3.27-12.2a8,8,0,0,1-.25-1.58h-.07a7.41,7.41,0,0,1-.31,1.54L204.54,68.3h-4.18l-5.29-18h4.22l3.27,13a8.54,8.54,0,0,1,.21,1.55h.12a9,9,0,0,1,.28-1.59l3.64-12.93h3.83l3.24,13a10.12,10.12,0,0,1,.23,1.55h.12a8.18,8.18,0,0,1,.26-1.55l3.2-13Z"/><path class="cls-2" d="M240.63,68.3h-4.08V58.15c0-3.36-1.18-5-3.56-5a3.87,3.87,0,0,0-3.08,1.4A5.16,5.16,0,0,0,228.7,58V68.3h-4.1v-18h4.1v3h.07a6.42,6.42,0,0,1,5.83-3.41,5.46,5.46,0,0,1,4.49,1.91,8.57,8.57,0,0,1,1.54,5.51Z"/><path class="cls-2" d="M249.7,68.3h-4.09V41.65h4.09Z"/><path class="cls-2" d="M263,68.72a8.92,8.92,0,0,1-6.65-2.52,9.14,9.14,0,0,1-2.49-6.69,8.88,8.88,0,0,1,9.58-9.64A8.66,8.66,0,0,1,270,52.35a9.6,9.6,0,0,1,2.35,6.88,9.45,9.45,0,0,1-2.54,6.9A9.15,9.15,0,0,1,263,68.72Zm.2-15.59a4.62,4.62,0,0,0-3.78,1.67A6.94,6.94,0,0,0,258,59.4a6.64,6.64,0,0,0,1.4,4.46,4.75,4.75,0,0,0,3.77,1.62,4.49,4.49,0,0,0,3.7-1.6,7.07,7.07,0,0,0,1.29-4.55,7.21,7.21,0,0,0-1.29-4.59A4.5,4.5,0,0,0,263.19,53.13Z"/><path class="cls-2" d="M289.9,68.3H286V65.48h-.07a6,6,0,0,1-5.47,3.24,5.74,5.74,0,0,1-4.15-1.44,5,5,0,0,1-1.51-3.82q0-5.1,5.87-5.94l5.35-.75q0-3.85-3.66-3.85a8.66,8.66,0,0,0-5.8,2.21V51.56a12.7,12.7,0,0,1,6.57-1.69q6.82,0,6.82,6.72ZM286,59.45l-3.78.53a6.06,6.06,0,0,0-2.65.85,2.51,2.51,0,0,0-.89,2.19,2.44,2.44,0,0,0,.82,1.88,3.21,3.21,0,0,0,2.19.72,4,4,0,0,0,3.09-1.31A4.65,4.65,0,0,0,286,61Z"/><path class="cls-2" d="M311.24,68.3h-4.07V65.24h-.07a7,7,0,0,1-11.39,1.06,10,10,0,0,1-2-6.58,10.9,10.9,0,0,1,2.21-7.16,7.23,7.23,0,0,1,5.88-2.69,5.65,5.65,0,0,1,5.29,2.92h.07V41.65h4.07Zm-4-8.23V57.71A4.61,4.61,0,0,0,306,54.46a4.15,4.15,0,0,0-3.18-1.33,4.29,4.29,0,0,0-3.6,1.7,7.62,7.62,0,0,0-1.3,4.73,6.78,6.78,0,0,0,1.25,4.33,4.1,4.1,0,0,0,3.39,1.59A4.25,4.25,0,0,0,305.92,64,5.8,5.8,0,0,0,307.22,60.07Z"/><path class="cls-2" d="M336.65,45a3.71,3.71,0,0,0-1.89-.47c-2,0-3,1.11-3,3.35V50.3H336v3.2h-4.17V68.3h-4.08V53.5h-3.07V50.3h3.07V47.38a5.65,5.65,0,0,1,1.87-4.49,7.74,7.74,0,0,1,7-1.31Z"/><path class="cls-2" d="M346.86,68.72a8.94,8.94,0,0,1-6.66-2.52,9.17,9.17,0,0,1-2.48-6.69,8.88,8.88,0,0,1,9.58-9.64,8.64,8.64,0,0,1,6.57,2.48,9.61,9.61,0,0,1,2.36,6.88,9.45,9.45,0,0,1-2.54,6.9A9.17,9.17,0,0,1,346.86,68.72Zm.19-15.59a4.65,4.65,0,0,0-3.78,1.67,7,7,0,0,0-1.39,4.6,6.59,6.59,0,0,0,1.41,4.46,4.73,4.73,0,0,0,3.76,1.62,4.46,4.46,0,0,0,3.7-1.6A7.07,7.07,0,0,0,352,59.33a7.21,7.21,0,0,0-1.29-4.59A4.47,4.47,0,0,0,347.05,53.13Z"/><path class="cls-2" d="M370.82,54.18a3.38,3.38,0,0,0-2.13-.58,3.64,3.64,0,0,0-3,1.64,7.29,7.29,0,0,0-1.22,4.44V68.3h-4.07v-18h4.07V54h.07a6.27,6.27,0,0,1,1.84-3A4.15,4.15,0,0,1,369.13,50a3.49,3.49,0,0,1,1.69.33Z"/><path class="cls-2" d="M200.88,86.89,190.14,126.1h-7.36l-7.46-27.43a18.44,18.44,0,0,1-.58-3.82h-.11a18.94,18.94,0,0,1-.65,3.77l-7.5,27.48H159L148,86.89h7.14l7.11,28.71a20.76,20.76,0,0,1,.54,3.77h.14a21,21,0,0,1,.77-3.77l8-28.71h6.7l7.44,28.93a22.15,22.15,0,0,1,.58,3.5h.1a22.53,22.53,0,0,1,.63-3.61l7-28.82Z"/><path class="cls-2" d="M208.81,92.22a3.8,3.8,0,0,1-2.66-1A3.32,3.32,0,0,1,205,88.64a3.41,3.41,0,0,1,1.11-2.6,3.74,3.74,0,0,1,2.66-1,3.9,3.9,0,0,1,2.74,1,3.42,3.42,0,0,1,1.12,2.6,3.38,3.38,0,0,1-1.12,2.53A3.86,3.86,0,0,1,208.81,92.22ZM212,126.1h-6.35v-28H212Z"/><path class="cls-2" d="M245.18,126.1h-6.34V110.32q0-7.84-5.55-7.84a6.06,6.06,0,0,0-4.79,2.17,8.06,8.06,0,0,0-1.89,5.48v16h-6.37v-28h6.37v4.65h.11a10,10,0,0,1,9.08-5.31,8.45,8.45,0,0,1,7,3q2.41,3,2.41,8.57Z"/><path class="cls-2" d="M278.38,126.1H272v-4.76h-.11a10.94,10.94,0,0,1-17.7,1.66q-3.1-3.77-3.11-10.24,0-6.95,3.43-11.13a11.24,11.24,0,0,1,9.15-4.19q5.67,0,8.23,4.54H272V84.65h6.35Zm-6.27-12.8v-3.66a7.12,7.12,0,0,0-1.94-5.06,6.48,6.48,0,0,0-4.95-2.08,6.68,6.68,0,0,0-5.59,2.65,11.83,11.83,0,0,0-2,7.36,10.62,10.62,0,0,0,2,6.74,6.36,6.36,0,0,0,5.26,2.48,6.58,6.58,0,0,0,5.28-2.4A9,9,0,0,0,272.11,113.3Z"/><path class="cls-2" d="M299.07,126.76q-6.48,0-10.34-3.93t-3.87-10.4q0-7.05,4-11t10.87-4q6.56,0,10.22,3.86T313.65,112q0,6.7-3.95,10.73T299.07,126.76Zm.31-24.26a7.25,7.25,0,0,0-5.88,2.6,10.87,10.87,0,0,0-2.16,7.16,10.25,10.25,0,0,0,2.18,6.94,7.38,7.38,0,0,0,5.86,2.53,7,7,0,0,0,5.75-2.49q2-2.49,2-7.09c0-3.08-.67-5.45-2-7.13A6.93,6.93,0,0,0,299.38,102.5Z"/><path class="cls-2" d="M357.75,98.1l-8.25,28h-6.65l-5.08-19a11.63,11.63,0,0,1-.39-2.46h-.11a11,11,0,0,1-.49,2.41l-5.52,19h-6.51l-8.23-28h6.56l5.09,20.18a12.59,12.59,0,0,1,.33,2.41h.19a12.3,12.3,0,0,1,.44-2.46l5.66-20.13h6l5,20.26a14.37,14.37,0,0,1,.35,2.41h.19a13.63,13.63,0,0,1,.41-2.41l5-20.26Z"/><path class="cls-2" d="M360.71,125.23v-5.88a12.67,12.67,0,0,0,7.85,2.7c3.82,0,5.74-1.13,5.74-3.39a2.69,2.69,0,0,0-.49-1.62,4.68,4.68,0,0,0-1.33-1.19,10,10,0,0,0-2-.93L368,114a27.33,27.33,0,0,1-3.1-1.45,9.32,9.32,0,0,1-2.3-1.74,6.59,6.59,0,0,1-1.38-2.2,8.11,8.11,0,0,1-.47-2.87,6.62,6.62,0,0,1,1-3.57,8.49,8.49,0,0,1,2.57-2.6A12.28,12.28,0,0,1,367.93,98a16.52,16.52,0,0,1,4.23-.54,19.36,19.36,0,0,1,6.95,1.18v5.55a11.7,11.7,0,0,0-6.78-2,9.15,9.15,0,0,0-2.18.24,5.94,5.94,0,0,0-1.65.69,3.36,3.36,0,0,0-1.07,1,2.55,2.55,0,0,0-.38,1.35,2.92,2.92,0,0,0,.38,1.53,3.57,3.57,0,0,0,1.14,1.11,10.07,10.07,0,0,0,1.8.88c.7.26,1.51.55,2.42.86a33.31,33.31,0,0,1,3.24,1.5,10.71,10.71,0,0,1,2.45,1.74,7,7,0,0,1,1.56,2.24,7.72,7.72,0,0,1,.55,3,6.89,6.89,0,0,1-1,3.72,8.22,8.22,0,0,1-2.62,2.63,12.51,12.51,0,0,1-3.79,1.54,19.53,19.53,0,0,1-4.53.51A19,19,0,0,1,360.71,125.23Z"/><path class="cls-2" d="M418.87,126.76q-8.47,0-13.58-5.5t-5.1-14.3q0-9.46,5.2-15.09t14.11-5.64q8.25,0,13.3,5.47t5,14.3q0,9.6-5.16,15.18T418.87,126.76Zm.3-34.81a10.93,10.93,0,0,0-8.77,4Q407,100,407,106.55t3.28,10.53a10.59,10.59,0,0,0,8.59,4,11.09,11.09,0,0,0,8.88-3.8q3.25-3.81,3.26-10.64,0-7-3.16-10.85A10.66,10.66,0,0,0,419.17,92Z"/><path class="cls-2" d="M443.23,124.54v-6.7a10.3,10.3,0,0,0,2.15,1.48,16.32,16.32,0,0,0,2.64,1.11,20.28,20.28,0,0,0,2.79.69,14.19,14.19,0,0,0,2.57.25q4.1,0,6.11-1.37a4.49,4.49,0,0,0,2-4,4.37,4.37,0,0,0-.67-2.42,7,7,0,0,0-1.88-1.88,19.8,19.8,0,0,0-2.83-1.62c-1.08-.52-2.24-1.06-3.48-1.63s-2.57-1.43-3.72-2.16a15.88,15.88,0,0,1-3-2.42,10.15,10.15,0,0,1-2-3A9.64,9.64,0,0,1,443.2,97a9,9,0,0,1,1.25-4.8,10.55,10.55,0,0,1,3.28-3.37,14.94,14.94,0,0,1,4.63-2,22,22,0,0,1,5.31-.65q6.15,0,9,1.4v6.42a14.38,14.38,0,0,0-8.59-2.4,15.44,15.44,0,0,0-2.88.27,8.4,8.4,0,0,0-2.57.9,5.49,5.49,0,0,0-1.85,1.62,4,4,0,0,0-.71,2.37,4.41,4.41,0,0,0,.55,2.27,5.58,5.58,0,0,0,1.6,1.75,15.69,15.69,0,0,0,2.57,1.55c1,.5,2.18,1,3.51,1.63s2.66,1.46,3.87,2.24a18.05,18.05,0,0,1,3.2,2.6,11.44,11.44,0,0,1,2.19,3.15,9.43,9.43,0,0,1,.8,4,9.83,9.83,0,0,1-1.2,5,9.65,9.65,0,0,1-3.24,3.33,14.3,14.3,0,0,1-4.69,1.86,26.67,26.67,0,0,1-5.61.58,24.09,24.09,0,0,1-2.42-.15c-.95-.1-1.93-.25-2.94-.44a27.43,27.43,0,0,1-2.84-.7A8.83,8.83,0,0,1,443.23,124.54Z"/></g></svg>